<svg xmlns="http://www.w3.org/2000/svg"><defs><font id="Pe-icon-7-stroke" horiz-adv-x="512"><font-face units-per-em="512" ascent="480" descent="-32"/><glyph horiz-adv-x="256"/><glyph unicode="" d="M447.892 343.42H392.48v46.814c0 21.25-17.219 38.486-38.485 38.486H89.765c-21.241 0-38.485-17.236-38.485-38.486V32.108c0-7.089 5.739-12.828 12.828-12.828h383.783c7.081 0 12.828 5.739 12.828 12.828v298.483c.001 7.089-5.746 12.829-12.827 12.829zM89.765 411.66h264.23c11.811 0 21.425-9.613 21.425-21.426V343.42H68.34v46.814c0 11.813 9.612 21.426 21.425 21.426zM443.66 36.34H68.34v290.02h375.32V36.34zM324.24 181.341c0-23.55 19.101-42.634 42.659-42.634s42.641 19.084 42.641 42.634c0 23.557-19.084 42.65-42.641 42.65s-42.659-19.092-42.659-42.65zm68.24 0c0-14.103-11.479-25.574-25.581-25.574-14.111 0-25.599 11.471-25.599 25.574 0 14.111 11.487 25.59 25.599 25.59 14.102 0 25.581-11.478 25.581-25.59z"/><glyph unicode="" d="M179.23 266.65v-85.3h69.948l58.002-57.995v201.297l-58.002-58.002H179.23zm82.01-12.062l28.88 28.88V164.54l-33.878 33.87H196.29v51.18h59.953l4.997 4.998zM256 437.25c-117.77 0-213.25-95.48-213.25-213.25 0-117.771 95.48-213.25 213.25-213.25 117.771 0 213.25 95.479 213.25 213.25 0 117.77-95.479 213.25-213.25 213.25zm0-409.44C147.817 27.81 59.81 115.825 59.81 224c0 108.174 88.007 196.19 196.19 196.19S452.19 332.174 452.19 224c0-108.175-88.007-196.19-196.19-196.19z"/><glyph unicode="" d="M179.23 266.65v-85.3h69.948l58.002-57.995v201.297l-58.002-58.002H179.23zm82.01-12.062l28.88 28.88V164.54l-33.879 33.87H196.29v51.18h59.952l4.998 4.998zm165.81 96.77l-13.753-10.238c24.415-32.712 38.893-73.255 38.893-117.12s-14.478-84.409-38.893-117.113l13.753-10.238c26.507 35.536 42.2 79.611 42.2 127.35s-15.694 91.823-42.2 127.359zm-41.259-223.995c20.167 27.022 32.271 60.401 32.271 96.637s-12.103 69.614-32.271 96.637l-13.661-10.171c18.043-24.174 28.871-54.046 28.871-86.466s-10.82-62.284-28.871-86.467l13.661-10.17zm-40.984 30.512C358.61 176.368 366.89 199.201 366.89 224s-8.28 47.639-22.083 66.124l-13.661-10.171c11.678-15.644 18.684-34.97 18.684-55.953s-7.006-40.309-18.684-55.953l13.661-10.172zM255.991 27.81C147.817 27.81 59.81 115.817 59.81 224s88.007 196.19 196.181 196.19c53.912 0 102.752-21.917 138.254-57.228l12.12 12.12c-38.567 38.386-91.671 62.168-150.374 62.168C138.23 437.25 42.75 341.779 42.75 224c0-117.771 95.48-213.25 213.241-213.25 58.703 0 111.807 23.782 150.375 62.167l-12.12 12.129c-35.503-35.32-84.342-57.236-138.255-57.236z"/><glyph unicode="" d="M396.745 339.155c-63.592 0-115.155-51.554-115.155-115.155 0-41.55 22.075-77.844 55.062-98.095H175.348C208.335 146.156 230.41 182.45 230.41 224c0 63.601-51.563 115.155-115.155 115.155S.1 287.601.1 224c0-63.6 51.563-115.155 115.155-115.155h281.49C460.337 108.845 511.9 160.4 511.9 224s-51.563 115.155-115.155 115.155zM17.16 224c0 54.087 44.008 98.095 98.095 98.095S213.35 278.087 213.35 224s-44.008-98.095-98.095-98.095S17.16 169.913 17.16 224zm379.585-98.095c-54.087 0-98.095 44.008-98.095 98.095s44.008 98.095 98.095 98.095S494.84 278.087 494.84 224s-44.008-98.095-98.095-98.095z"/><glyph unicode="" d="M450.974 334.89L341.3 268.933v74.487c0 14.127-11.463 25.59-25.59 25.59H42.75c-14.144 0-25.59-11.463-25.59-25.59V104.58c0-14.128 11.446-25.59 25.59-25.59h272.96c14.127 0 25.59 11.462 25.59 25.59v75.903l112.089-67.373h41.451v221.78h-43.866zM324.24 104.58c0-4.707-3.833-8.53-8.53-8.53H42.75a8.53 8.53 0 0 0-8.53 8.53v238.84a8.53 8.53 0 0 0 8.53 8.53h272.96c4.697 0 8.53-3.824 8.53-8.53V104.58zm153.54 25.59h-19.659L341.3 200.392v48.631l114.405 68.806h22.075V130.17z"/><glyph unicode="" d="M256 428.722c-113.073 0-204.72-91.647-204.72-204.72S142.927 19.279 256 19.279s204.72 91.651 204.72 204.723c0 113.073-91.647 204.72-204.72 204.72zm0-17.06c103.477 0 187.66-84.183 187.66-187.66 0-45.524-16.31-87.307-43.383-119.836-18.71 7.813-62.875 23.141-90.215 31.213-2.332.733-2.699.85-2.699 10.554 0 8.014 3.299 16.085 6.514 22.916 3.482 7.422 7.613 19.901 9.096 31.096 4.148 4.815 9.796 14.312 13.428 32.412 3.182 15.953 1.699 21.758-.416 27.206-.217.575-.45 1.141-.617 1.708-.8 3.74.299 23.174 3.032 38.252 1.883 10.346-.484 32.346-14.728 50.546-8.997 11.504-26.207 25.623-57.644 27.589l-17.243-.016c-30.905-1.95-48.131-16.069-57.128-27.573-14.244-18.2-16.61-40.2-14.727-50.539 2.748-15.085 3.832-34.519 3.049-38.185-.166-.641-.4-1.208-.633-1.783-2.099-5.448-3.599-11.254-.4-27.206 3.615-18.101 9.263-27.597 13.428-32.412 1.466-11.196 5.598-23.674 9.096-31.096 2.549-5.431 3.749-12.82 3.749-23.266 0-9.705-.367-9.821-2.55-10.512-28.272-8.347-73.271-24.607-90.048-31.954-27.604 32.679-44.281 74.862-44.281 120.886 0 103.476 84.183 187.66 187.66 187.66zM124.984 89.817c19.21 7.842 57.511 21.504 82.668 28.935 14.628 4.615 14.628 16.935 14.628 26.831 0 8.205-.566 20.301-5.365 30.53-3.299 7.006-7.065 19.018-7.897 28.422a8.451 8.451 0 0 1-2.882 5.681c-2.416 2.116-7.331 9.863-10.463 25.49-2.482 12.37-1.432 15.078-.416 17.693.433 1.117.85 2.216 1.183 3.457 2.049 7.488-.234 32.087-2.716 45.732-1.082 5.931.283 22.783 11.379 36.978 9.946 12.72 25.007 19.809 44.216 21.033l16.177.017c19.726-1.241 34.786-8.33 44.749-21.05 11.096-14.195 12.445-31.047 11.362-36.985-2.466-13.637-4.765-38.236-2.716-45.716.351-1.25.75-2.349 1.183-3.466 1.017-2.615 2.066-5.323-.4-17.693-3.131-15.627-8.063-23.374-10.479-25.49a8.597 8.597 0 0 1-2.882-5.681c-.816-9.404-4.581-21.416-7.88-28.422-3.782-8.039-8.13-18.743-8.13-30.18 0-9.897 0-22.216 14.777-26.873 24.074-7.114 62.559-20.334 82.884-28.326C354.028 57.13 307.397 36.338 256 36.338c-50.93 0-97.162 20.425-131.016 53.479z"/><glyph unicode="" d="M330.638 180.083l12.062 12.061-86.7 86.7-86.7-86.7 12.063-12.061 66.107 66.107V-23.846h17.06V246.19zM213.35 61.454v17.06H102.46v290.02h307.08V78.514H298.65v-17.06H426.6v324.14H85.4V61.454z"/><glyph unicode="" d="M375.42 232.53H162.17v102.36c0 51.738 42.1 93.83 93.847 93.83 51.729 0 93.813-42.092 93.813-93.83v-34.12h17.06v34.12c0 61.234-49.647 110.89-110.873 110.89-61.251 0-110.907-49.656-110.907-110.89V232.53H85.4V2.22h341.2v230.31h-51.18zm34.12-213.25H102.46v196.19h307.08V19.28z"/><glyph unicode="" d="M264.53 437.042v25.798h-17.06v-25.798C110.307 432.543.1 320.279.1 182.825c0-9.047.5-18.31 1.5-27.556l16.993.608c1.033 28.63 24.257 51.063 52.896 51.063 29.205 0 52.979-23.774 52.979-52.988h17.06c0 29.214 23.774 52.988 52.996 52.988 28.889 0 52.413-23.241 52.946-52.005V22.853c0-20.783 16.894-37.693 37.686-37.693s37.702 16.91 37.702 37.693h-17.06c0-11.378-9.263-20.633-20.642-20.633s-20.626 9.255-20.626 20.633v131.099h.05c0 29.214 23.757 52.988 52.979 52.988s52.996-23.774 52.996-52.988h17.06c0 29.214 23.774 52.988 52.979 52.988 28.39 0 51.613-22.225 52.863-50.597l17.011-.517a259.808 259.808 0 0 1 1.432 26.998c0 137.455-110.207 249.719-247.37 254.218zM440.594 224c-26.506 0-49.614-14.803-61.509-36.569C367.19 209.197 344.065 224 317.559 224s-49.614-14.803-61.509-36.569C244.155 209.197 221.03 224 194.524 224s-49.631-14.803-61.526-36.569C121.103 209.197 97.995 224 71.489 224c-21.658 0-40.968-9.696-53.796-25.082C26.057 322.336 129.733 420.199 256 420.199c126.235 0 229.91-97.845 238.291-221.231C481.445 214.312 462.153 224 440.594 224z"/><glyph unicode="" d="M418.07 386.07h-85.3v17.06c0 18.842-15.277 34.12-34.12 34.12h-85.3c-18.843 0-34.12-15.278-34.12-34.12v-17.06h-85.3v-17.06h17.577l17.076-324.14c0-18.843 15.277-34.12 34.12-34.12h187.66c18.843 0 34.12 15.277 34.12 34.12l16.777 324.14h16.81v17.06zm-221.78 17.06c0 9.413 7.664 17.06 17.06 17.06h85.3c9.413 0 17.06-7.647 17.06-17.06v-17.06H196.29v17.06zM367.456 45.753l-.033-.433v-.45c0-9.397-7.647-17.06-17.06-17.06h-187.66c-9.396 0-17.06 7.663-17.06 17.06v.45l-.016.45-17.044 323.24h255.601L367.456 45.753zM247.47 334.89h17.06V61.93h-17.06v272.96zM213.733 62.479l-17.459 272.427-17.027-1.082 17.46-272.427zm119.154 271.878l-17.027 1.066-17.21-272.96 17.027-1.066z"/><glyph unicode="" d="M472.52 67.84l-90.473 90.473 12.07 12.071-12.062 12.061-36.177-36.177-60.334 60.318 72.488 72.505c9.655-3.44 19.751-5.181 30.105-5.181 23.891 0 46.357 9.305 63.258 26.19 26.074 26.09 33.471 64.866 18.843 98.778l-4.973 11.545-38.876-38.876-31.304-.425.416 29.855 39.635 39.626-11.521 4.989c-11.304 4.89-23.307 7.372-35.669 7.372-23.899 0-46.357-9.305-63.234-26.198-24.74-24.723-32.688-60.834-20.984-93.438l-72.463-72.463L128.713 363.4l12.071 12.062-66.325 66.332-36.219-36.169 66.357-66.349 12.054 12.061 102.551-102.535-72.472-72.472c-9.679 3.466-19.817 5.215-30.205 5.215-23.891 0-46.356-9.305-63.241-26.198-26.132-26.115-33.513-64.941-18.81-98.895l4.989-11.512L79.09 84.566l29.846.4-.425-31.304-38.876-38.876L81.18 9.812c11.271-4.856 23.224-7.322 35.536-7.322 23.899 0 46.349 9.297 63.234 26.182 24.699 24.707 32.654 60.776 21.025 93.33l72.505 72.514 60.335-60.31-36.203-36.203 12.062-12.061 12.061 12.061L412.2 7.538c8.055-8.063 18.776-12.503 30.163-12.503s22.1 4.44 30.164 12.503c16.629 16.619 16.62 43.676-.007 60.302zM62.381 405.625l12.07 12.045 42.208-42.208-12.061-12.062-42.217 42.225zm120.786-284.914c11.829-27.464 5.831-58.86-15.277-79.977-13.662-13.661-31.829-21.183-51.171-21.183-5.556 0-11.021.617-16.343 1.849l25.099 25.099.757 55.761-54.304-.733L46.02 75.621c-5.698 24.157 1.299 49.647 19.326 67.665 13.67 13.669 31.846 21.2 51.18 21.2 10.021 0 19.734-2.008 28.889-5.973l5.324-2.3 173.107 173.108-2.299 5.323c-11.904 27.497-5.923 58.918 15.227 80.06 13.662 13.67 31.838 21.2 51.172 21.2 5.606 0 11.112-.633 16.485-1.874l-25.89-25.89-.75-54.312 55.761.758 25.124 25.115c5.631-24.115-1.375-49.555-19.343-67.54-13.678-13.662-31.854-21.192-51.197-21.192a72.462 72.462 0 0 0-28.813 5.931l-5.315 2.291-173.132-173.165 2.291-5.315zm277.3-101.11c-4.84-4.84-11.271-7.506-18.102-7.506-6.839 0-13.261 2.666-18.101 7.506l-90.465 90.465 36.186 36.186 90.473-90.473c9.98-9.98 9.98-26.207.009-36.178z"/><glyph unicode="" d="M234.975 209.206c.333-.416.799-.767 1.166-1.166 4.698-5.831 11.795-9.63 19.859-9.63 14.127 0 25.59 11.446 25.59 25.59 0 7.513-3.299 14.194-8.43 18.875-.666.75-1.283 1.517-2.266 2.266l-103.41 78.686c-3.015 2.316-7.347 2.432-10.495 0a8.598 8.598 0 0 1-1.566-12.062l79.552-102.559zM256 437.233c-2.799 0-5.531-.316-8.297-.416v-8.846h-.233v-93.064h17.06v84.833c104.225-4.515 187.66-90.448 187.66-195.74 0-108.175-87.999-196.174-196.19-196.174S59.81 115.826 59.81 224c0 54.096 22.008 103.143 57.544 138.662l-12.129 12.129C66.624 336.207 42.75 282.894 42.75 224c0-117.771 95.463-213.234 213.25-213.234S469.25 106.229 469.25 224c0 117.771-95.463 213.233-213.25 213.233z"/><glyph unicode="" d="M396.504 454.31H284.098L25.69 196.578 228.144-6.31 486.31 251.173v113.539l-89.806 89.598zm72.746-196.056L228.178 17.815 49.822 196.553 291.153 437.25h98.295l79.802-79.618v-99.378zm-119.37 93.755c0-18.776 15.302-34.045 34.12-34.045s34.12 15.269 34.12 34.045c0 18.784-15.303 34.061-34.12 34.061s-34.12-15.277-34.12-34.061zm51.18 0c0-9.363-7.656-16.985-17.06-16.985s-17.06 7.622-17.06 16.985c0 9.371 7.655 17.001 17.06 17.001s17.06-7.63 17.06-17.001z"/><glyph unicode="" d="M256.9 294.91c-37.686 0-68.249-30.547-68.249-68.249 0-37.685 30.563-68.248 68.249-68.248 37.693 0 68.231 30.563 68.231 68.248 0 37.702-30.538 68.249-68.231 68.249zm0-119.436c-28.222 0-51.189 22.965-51.189 51.188s22.966 51.189 51.189 51.189c28.214 0 51.171-22.966 51.171-51.189s-22.957-51.188-51.171-51.188zm-.009 187.667c-75.379 0-136.48-61.093-136.48-136.48 0-75.379 61.101-136.48 136.48-136.48s136.48 61.101 136.48 136.48c0 75.388-61.101 136.48-136.48 136.48zm0-255.9c-65.849 0-119.42 53.571-119.42 119.42s53.571 119.42 119.42 119.42 119.42-53.57 119.42-119.42c0-65.849-53.571-119.42-119.42-119.42zm203.829 119.42c0 113.073-91.656 204.72-204.72 204.72S51.28 339.734 51.28 226.661c0-62.309 27.873-118.078 71.788-155.622L88.149 27.265l13.344-10.646 34.995 43.875c33.636-24.233 74.887-38.552 119.511-38.552 44.424 0 85.508 14.195 119.062 38.235l34.795-43.558 13.328 10.646-34.669 43.407c44.158 37.553 72.205 93.481 72.205 155.989zm-392.38 0c0 103.477 84.184 187.66 187.66 187.66s187.66-84.183 187.66-187.66c0-103.476-84.183-187.66-187.66-187.66-103.476 0-187.66 84.185-187.66 187.66z"/><glyph unicode="" d="M256 351.834c-70.673 0-127.95-57.303-127.95-127.967 0-70.647 57.277-127.933 127.95-127.933 70.664 0 127.95 57.286 127.95 127.933 0 70.664-57.286 127.967-127.95 127.967zm0-238.84c-61.143 0-110.89 49.738-110.89 110.873 0 61.152 49.747 110.907 110.89 110.907s110.89-49.755 110.89-110.907c0-61.135-49.747-110.873-110.89-110.873zM247.537 479.9h17.06V377.424h-17.06V479.9zm0-409.556h17.06V-31.9h-17.06V70.344zM.1 232.53h102.36v-17.06H.1v17.06zm409.44 0H511.9v-17.06H409.54v17.06zm21.431 178.984l12.063-12.063-71.322-71.322-12.063 12.063 71.322 71.322zM81.15 37.545L69.087 49.608l71.322 71.322 12.063-12.063L81.15 37.545zm.01 373.966l71.323-71.322-12.061-12.062-71.323 71.323 12.061 12.061zM430.995 37.543l-71.322 71.322 12.063 12.063 71.322-71.322-12.063-12.063z"/><glyph unicode="" d="M504.224 301.17l-248.22 119.47L7.776 301.161l34.978-21.091V95.6h17.06v174.182l51.18-30.862V27.36h290.02v211.509l103.21 62.301zm-248.22 100.544L468.405 299.47 256.129 171.337 43.612 299.479l212.392 102.235zM383.954 44.42h-255.9v184.22l128.075-77.228 127.825 77.162V44.42z"/><glyph unicode="" d="M400.618 339.505l14.436 14.428 14.627-14.628 18.093 18.093-41.317 41.318-18.093-18.093 14.627-14.628-14.436-14.428c-31.979 29.322-73.704 48.131-119.761 51.113v34.57h-25.59v-34.57C140.82 396.083 59.81 310.999 59.81 206.94 59.81 98.582 147.643 10.75 256 10.75s196.19 87.832 196.19 196.19c0 51.113-19.559 97.645-51.572 132.565zM256 27.81c-98.77 0-179.13 80.368-179.13 179.13 0 98.777 80.36 179.13 179.13 179.13s179.13-80.353 179.13-179.13c0-98.762-80.36-179.13-179.13-179.13zm8.53 203.154V343.42h-17.06V230.964c-9.913-3.532-17.06-12.896-17.06-24.024 0-11.129 7.147-20.492 17.06-24.025V147.23h17.06v35.685c9.913 3.532 17.06 12.896 17.06 24.025s-7.147 20.492-17.06 24.024z"/><glyph unicode="" d="M310.078 275.148L256 441.517l-54.095-166.368H25.69l142.794-102.351L113.656 6.484 256 109.655 398.327 6.483l-54.811 166.314L486.31 275.148H310.078zm17.228-107.691l38.301-116.175L256 130.722l-109.624-79.44 42.233 128.079-10.196 7.297-99.645 71.43h135.531L256 386.347l41.684-128.259h135.531l-109.824-78.727 3.915-11.904z"/><glyph unicode="" d="M-.329 282.944v-119.42h51.18V61.164h17.06v102.36h131.232L323.744 62.697v324.139L198.352 282.944H-.329zm17.06-102.36v85.3h68.24v-85.3h-68.24zm192.508 89.223l97.445 80.743V98.448l-101.502 82.134H102.031v85.3H204.5l4.739 3.925zm232.576 101.51l-12.27-12.278c39.926-31.255 65.724-79.752 65.724-134.272 0-55.97-27.214-105.583-68.981-136.705l12.345-12.345c44.783 34.295 73.697 88.29 73.697 149.05-.001 59.301-27.549 112.155-70.515 146.55zm-54.829-54.837l-12.404-12.403c26.332-16.635 43.917-45.924 43.917-79.31 0-34.861-19.151-65.283-47.457-81.46l12.428-12.429c31.255 19.61 52.088 54.271 52.088 93.889.001 38.143-19.258 71.763-48.572 91.713z"/><glyph unicode="" d="M255.512 185.611c-37.627 0-68.24-30.613-68.24-68.24s30.613-68.24 68.24-68.24c37.627 0 68.24 30.613 68.24 68.24s-30.612 68.24-68.24 68.24zm0-119.42c-28.223 0-51.18 22.958-51.18 51.18s22.957 51.18 51.18 51.18c28.222 0 51.18-22.958 51.18-51.18s-22.958-51.18-51.18-51.18zm0 196.19c-57.586 0-107.291-33.82-130.682-82.576l12.77-12.762c19.434 45.949 64.966 78.277 117.912 78.277s98.478-32.329 117.913-78.277l12.769 12.762c-23.391 48.756-73.096 82.576-130.682 82.576zm.833 136.488c-95.213 0-179.48-47.565-230.443-120.128l12.228-12.229c47.682 69.557 127.701 115.297 218.215 115.297 90.09 0 169.758-45.316 217.524-114.322l12.229 12.229c-51.039 72.013-134.964 119.153-229.753 119.153zm0-68.24c-76.454 0-143.603-40.467-181.254-101.077l12.42-12.412c34.204 57.661 97.062 96.429 168.834 96.429 71.339 0 133.89-38.285 168.226-95.379l12.378 12.378c-37.768 60.044-104.583 100.061-180.604 100.061z"/><glyph unicode="" d="M380.985 177.497l55.911-55.936H336.153l-208.186 221.78H42.45v-17.06h78.137l208.185-221.78h108.124l-55.761-55.778 12.062-12.062 76.353 76.378-76.503 76.52zm-260.398-55.936H42.45v-17.06h85.517l82.601 87.999-12.445 11.679zm215.582 204.72h100.727l-55.761-55.778 12.062-12.062 76.353 76.378-76.503 76.52-12.062-12.062 55.911-55.936H328.772l-82.967-88.716 12.461-11.645z"/><glyph unicode="" d="M51.28 428.72V19.28h409.44v409.44H51.28zM443.66 36.34H68.34v375.32h375.32V36.34zM145.093 266.65c0-61.251 49.656-110.89 110.899-110.89s110.881 49.639 110.881 110.89v59.71h17.077v17.06h-51.18v-17.06h17.043v-59.71c0-51.738-42.091-93.83-93.821-93.83-51.746 0-93.839 42.092-93.839 93.83v59.71h17.077v17.06h-51.18v-17.06h17.043v-59.71z"/><glyph unicode="" d="M418.07 445.78c-37.685 0-68.24-30.563-68.24-68.24 0-6.539.975-12.853 2.691-18.842L153.024 275.08c-11.795 20.434-33.821 34.22-59.094 34.22-37.677 0-68.24-30.563-68.24-68.24 0-37.685 30.563-68.24 68.24-68.24 19.743 0 37.486 8.439 49.947 21.85l128.55-92.389a67.879 67.879 0 0 1-7.897-31.813c0-37.693 30.563-68.249 68.24-68.249s68.24 30.555 68.24 68.249c0 37.677-30.563 68.231-68.24 68.231-20.042 0-38.018-8.705-50.505-22.465L153.89 208.473c5.282 9.688 8.28 20.784 8.28 32.587 0 6.339-.932 12.454-2.549 18.285l199.647 83.684c11.853-20.158 33.72-33.736 58.802-33.736 37.686 0 68.24 30.554 68.24 68.248 0 37.676-30.554 68.239-68.24 68.239zm-85.3-324.14c28.222 0 51.18-22.958 51.18-51.171 0-28.222-22.958-51.189-51.18-51.189s-51.18 22.966-51.18 51.189c0 28.213 22.958 51.171 51.18 51.171zM93.93 189.88c-28.222 0-51.18 22.958-51.18 51.18s22.958 51.18 51.18 51.18 51.18-22.958 51.18-51.18c0-28.221-22.958-51.18-51.18-51.18zm324.14 136.472c-28.222 0-51.18 22.966-51.18 51.188s22.958 51.18 51.18 51.18 51.18-22.958 51.18-51.18-22.958-51.188-51.18-51.188z"/><glyph unicode="" d="M256 445.78c-108.358 0-196.19-42.009-196.19-93.839v-255.9C59.81 44.228 147.642 2.22 256 2.22c108.34 0 196.19 42.009 196.19 93.821v255.9c0 51.83-87.85 93.839-196.19 93.839zm0-17.06c105.559 0 179.13-40.459 179.13-76.779 0-36.303-73.571-76.761-179.13-76.761-105.576 0-179.13 40.459-179.13 76.761 0 36.32 73.554 76.779 179.13 76.779zm179.13-315.619v-17.06c0-36.303-73.571-76.761-179.13-76.761-105.576 0-179.13 40.459-179.13 76.761v47.049c30.621-32.737 99.277-55.57 179.13-55.57 79.835 0 148.508 22.832 179.13 55.57v-29.989zm0 68.24c0-36.303-73.571-76.761-179.13-76.761-105.576 0-179.13 40.459-179.13 76.761v47.049c30.621-32.737 99.277-55.57 179.13-55.57 79.835 0 148.508 22.832 179.13 55.57v-47.049zm0 85.3c0-36.303-73.571-76.761-179.13-76.761-105.576 0-179.13 40.459-179.13 76.761v47.049c30.621-32.737 99.277-55.57 179.13-55.57 79.835 0 148.508 22.832 179.13 55.57v-47.049z"/><glyph unicode="" d="M457.463 43.639L341.258 159.856c23.358 28.089 37.419 64.167 37.419 103.543 0 89.515-72.554 162.07-162.07 162.07-89.498 0-162.07-72.555-162.07-162.07 0-89.498 72.572-162.07 162.07-162.07 39.385 0 75.454 14.061 103.543 37.419L436.355 22.531l21.108 21.108zM71.597 263.399c0 79.96 65.041 145.01 145.01 145.01 79.953 0 145.01-65.05 145.01-145.01s-65.057-145.01-145.01-145.01c-79.969 0-145.01 65.05-145.01 145.01z"/><glyph unicode="" d="M393.425 224c41.867 43.033 60.601 84.908 44.899 110.748-6.256 10.304-20.676 22.582-53.812 22.582-18.168 0-39.41-3.682-62.326-10.462-15.22 54.995-40.576 90.382-69.848 90.382-28.913 0-54.012-34.537-69.289-88.399-20.25 5.515-39.051 8.48-55.37 8.48-33.137 0-47.556-12.278-53.821-22.582-12.587-20.709-4.148-51.622 23.758-87.041 6.223-7.897 13.32-15.844 21.075-23.775-41.834-43-60.535-84.858-44.833-110.698 6.264-10.296 20.684-22.575 53.812-22.575 16.319 0 35.128 2.974 55.387 8.481 15.269-53.854 40.367-88.39 69.281-88.39 29.272 0 54.629 35.386 69.848 90.373 22.908-6.781 44.158-10.463 62.334-10.463 33.129 0 47.549 12.279 53.805 22.575 15.701 25.847-3.033 67.739-44.9 110.764zm-8.913 116.271c13.911 0 32.012-2.499 39.235-14.386 10.404-17.118-5.256-51.755-42.484-89.957-13.578 12.704-29.063 25.39-46.198 37.668-1.849 20.201-4.807 39.21-8.722 56.628 21.649 6.481 41.567 10.047 58.169 10.047zm-93.155-174.307a524.558 524.558 0 0 0-35.261-19.6 526.375 526.375 0 0 0-35.253 19.6 537.966 537.966 0 0 0-35.22 23.366c-.725 11.179-1.192 22.692-1.192 34.67 0 11.995.467 23.516 1.199 34.711a530.53 530.53 0 0 0 35.186 23.324 528.827 528.827 0 0 0 35.278 19.609 529.077 529.077 0 0 0 35.278-19.609c9.638-5.857 18.668-11.854 27.364-17.893A529.667 529.667 0 0 0 320.253 224c0-13.92-.542-27.306-1.517-40.134-8.695-6.04-17.734-12.046-27.379-17.902zm25.206-4.231a413.53 413.53 0 0 0-6.555-38.652c-11.288 3.982-22.916 8.689-34.703 14.036a556.315 556.315 0 0 1 24.915 14.27 557.643 557.643 0 0 1 16.343 10.346zm-79.677-24.608c-14.228-6.464-28.222-11.954-41.659-16.402-3.232 14.228-5.856 29.764-7.705 46.516 7.939-5.415 16.044-10.738 24.457-15.852a548.298 548.298 0 0 1 24.907-14.262zm-69.114 65.766c-8.738 6.931-17.018 13.978-24.674 21.084 7.514 7.006 15.81 14.078 24.674 21.142-.259-6.938-.4-13.977-.4-21.116-.001-7.141.141-14.18.4-21.11zm19.767 77.979c1.841 16.702 4.465 32.203 7.688 46.407 13.436-4.448 27.423-9.938 41.65-16.394a558.056 558.056 0 0 1-24.923-14.269 560.98 560.98 0 0 1-24.415-15.744zm87.773 30.012c11.787 5.348 23.407 10.046 34.695 14.028a412.633 412.633 0 0 0 6.555-38.635 552.487 552.487 0 0 1-16.326 10.338 557.103 557.103 0 0 1-24.924 14.269zm61.318-59.743c11.862-9.046 22.774-18.143 32.421-27.139-9.647-8.989-20.559-18.085-32.421-27.131.433 8.871.683 17.918.683 27.131a554.317 554.317 0 0 1-.683 27.139zM252.338 420.19c19.435 0 40.168-29.639 53.546-78.553-16.094-5.598-32.829-12.629-49.789-20.9-19.393 9.455-38.469 17.268-56.645 23.199 13.396 47.532 33.763 76.254 52.888 76.254zM88.436 325.885c7.222 11.887 25.323 14.386 39.243 14.386 14.777 0 32.204-2.832 51.114-8.022-4.524-19.642-7.848-41.334-9.705-64.533-13.987-10.447-26.79-21.125-38.219-31.838-7.305 7.481-14.003 14.961-19.85 22.391-22.85 28.998-31.08 53.638-22.583 67.616zM127.67 107.72c-13.912 0-32.012 2.499-39.235 14.378-10.404 17.127 5.248 51.755 42.458 89.957 11.562-10.771 24.399-21.375 38.185-31.671 1.849-23.241 5.181-44.966 9.713-64.641-18.908-5.183-36.335-8.023-51.121-8.023zm124.668-79.91c-19.125 0-39.492 28.721-52.888 76.245 18.177 5.939 37.261 13.745 56.645 23.208 16.96-8.272 33.695-15.302 49.789-20.908-13.378-48.915-34.111-78.545-53.546-78.545zm171.408 94.288c-7.222-11.879-25.315-14.378-39.227-14.378-16.61 0-36.527 3.566-58.177 10.047 3.915 17.426 6.873 36.435 8.73 56.644 17.127 12.287 32.612 24.965 46.19 37.668 37.228-38.21 52.888-72.854 42.484-89.981z"/><glyph unicode="" d="M93.926 428.72V19.28l162.07 119.42L418.074 19.28v409.44H93.926zM401.014 53.042l-145.018 106.85-145.01-106.85V411.66h290.028V53.042zM170.696 326.36H341.3V309.3H170.696v17.06zm0-68.24H341.3v-17.06H170.696v17.06z"/><glyph unicode="" d="M434.888 112.818H74.929l71.872 71.897-12.062 12.062-91.881-91.905 91.881-91.89 12.062 12.063-70.706 70.713h375.853v153.54h-17.06zM76.695 334.598h359.81l-71.289-71.305 12.061-12.062 91.865 91.88-91.881 91.907-12.062-12.063 71.272-71.297H59.635v-153.54h17.06z"/><glyph unicode="" d="M443.66 181.371c0-103.477-84.183-187.66-187.66-187.66-103.476 0-187.66 84.183-187.66 187.66 0 103.234 83.8 187.251 186.952 187.643v-85.325l162.07 93.839-162.07 93.821v-85.275C142.536 385.691 51.28 294.219 51.28 181.371c0-113.047 91.639-204.72 204.72-204.72 113.064 0 204.72 91.673 204.72 204.72h-17.06zm-171.308 260.39l110.957-64.233-110.957-64.25v128.483z"/><glyph unicode="" d="M418.316 249.682c.033 1.366.2 2.682.2 4.048 0 73.021-59.194 132.215-132.215 132.215-52.613 0-97.912-30.804-119.196-75.287-9.205 4.632-19.567 7.297-30.572 7.297-33.769 0-61.742-24.574-67.207-56.794C29.11 247.366.146 209.314.146 164.398c0-56.494 45.79-102.293 102.268-102.343l316.102.016c51.596.267 93.338 42.15 93.338 93.797 0 51.73-41.841 93.664-93.538 93.814zm.108-170.551l-3.723-.016h-312.27c-46.99.049-85.225 38.301-85.225 85.283 0 36.403 23.174 68.806 57.653 80.636l9.596 3.281 1.691 9.996c4.182 24.674 25.373 42.583 50.388 42.583 7.972 0 15.677-1.849 22.9-5.481l15.553-7.813 7.505 15.693c19.068 39.851 59.818 65.591 103.81 65.591 63.5 0 115.155-51.647 115.155-115.155 0-.35-.042-.717-.067-1.066-.049-.85-.107-1.699-.125-2.566l-.433-17.41 17.435-.067c42.2-.117 76.528-34.553 76.528-76.754-.001-42.082-34.263-76.518-76.371-76.735zm-162.428 59.694c-32.92 0-59.71 26.773-59.71 59.71 0 32.921 26.79 59.71 59.71 59.71V226.74l64.2 37.069-64.2 37.086v-25.59c-42.4 0-76.77-34.37-76.77-76.77s34.37-76.77 76.77-76.77c42.392 0 76.77 34.37 76.77 76.77h-17.06c0-32.937-26.79-59.71-59.71-59.71z"/><glyph unicode="" d="M449.825 334.434c-.175.058-.308.191-.491.233l-361.976 85.3c-4.589 1.058-9.188-1.766-10.262-6.347-1.075-4.59 1.766-9.18 6.348-10.263l290.536-68.464H66.666c-13.204 0-23.916-10.704-23.916-23.916V51.72c0-13.203 10.713-23.907 23.916-23.907h378.668c13.212 0 23.916 10.704 23.916 23.907v259.256c0 11.67-8.363 21.358-19.425 23.458zm2.365-282.715c0-3.774-3.073-6.847-6.856-6.847H66.666c-3.782 0-6.856 3.073-6.856 6.847v259.257a6.862 6.862 0 0 0 6.856 6.856h378.668a6.862 6.862 0 0 0 6.856-6.856V51.719zm-255.967 146.7c-7.064 0-12.811-5.73-12.811-12.795 0-7.047 5.748-12.795 12.811-12.795 7.047 0 12.779 5.748 12.779 12.795 0 7.065-5.731 12.795-12.779 12.795zm-93.763-12.795c0 7.065-5.748 12.795-12.803 12.795-7.048 0-12.787-5.73-12.787-12.795 0-7.047 5.74-12.795 12.787-12.795 7.055 0 12.803 5.749 12.803 12.795zm200.464 12.795c-7.047 0-12.804-5.73-12.804-12.795 0-7.047 5.757-12.795 12.804-12.795 7.072 0 12.786 5.748 12.786 12.795 0 7.065-5.714 12.795-12.786 12.795zm-153.557-24.881c-7.048 0-12.787-5.731-12.787-12.787s5.74-12.803 12.787-12.803c7.055 0 12.803 5.747 12.803 12.803s-5.748 12.787-12.803 12.787zM256 160.034c0 7.056-5.73 12.787-12.795 12.787-7.047 0-12.795-5.731-12.795-12.787s5.748-12.803 12.795-12.803c7.065.001 12.795 5.748 12.795 12.803zm-106.633 63.968c-7.048 0-12.787-5.74-12.787-12.787 0-7.072 5.74-12.803 12.787-12.803 7.055 0 12.803 5.73 12.803 12.803 0 7.047-5.748 12.787-12.803 12.787zm93.838-25.59c7.065 0 12.795 5.73 12.795 12.803 0 7.047-5.73 12.787-12.795 12.787-7.047 0-12.795-5.74-12.795-12.787 0-7.073 5.748-12.803 12.795-12.803zm-136.48-51.414c-7.055 0-12.795-5.73-12.795-12.795s5.74-12.795 12.795-12.795c7.047 0 12.795 5.731 12.795 12.795s-5.748 12.795-12.795 12.795zm179.139 0c-7.072 0-12.804-5.73-12.804-12.795s5.731-12.795 12.804-12.795c7.056 0 12.786 5.731 12.786 12.795s-5.73 12.795-12.786 12.795zM106.725 249.592c-7.055 0-12.795-5.748-12.795-12.804s5.74-12.786 12.795-12.786c7.047 0 12.795 5.73 12.795 12.786 0 7.055-5.748 12.804-12.795 12.804zm179.139-25.59c7.056 0 12.786 5.73 12.786 12.786 0 7.055-5.73 12.804-12.786 12.804-7.072 0-12.804-5.748-12.804-12.804s5.731-12.786 12.804-12.786zm-145.668-110.89c-7.039 0-12.795-5.731-12.795-12.787s5.756-12.803 12.795-12.803c7.081 0 12.795 5.748 12.795 12.803s-5.714 12.787-12.795 12.787zm111.206 0c-7.056 0-12.795-5.731-12.795-12.787s5.739-12.803 12.795-12.803c7.064 0 12.795 5.748 12.795 12.803s-5.731 12.787-12.795 12.787zm-110.557 145.01c7.081 0 12.795 5.73 12.795 12.786 0 7.072-5.714 12.804-12.795 12.804-7.038 0-12.795-5.731-12.795-12.804 0-7.056 5.757-12.786 12.795-12.786zm110.557 25.59c-7.056 0-12.795-5.731-12.795-12.804 0-7.056 5.739-12.786 12.795-12.786 7.064 0 12.795 5.73 12.795 12.786 0 7.072-5.731 12.804-12.795 12.804zm-55.186-136.714c-7.056 0-12.804-5.73-12.804-12.795 0-7.047 5.748-12.795 12.804-12.795 7.055 0 12.786 5.748 12.786 12.795 0 7.064-5.731 12.795-12.786 12.795zm0-50.93c-7.056 0-12.804-5.748-12.804-12.804s5.748-12.803 12.804-12.803c7.055 0 12.786 5.748 12.786 12.803s-5.731 12.804-12.786 12.804zm0 153.524c-7.056 0-12.804-5.748-12.804-12.804s5.748-12.786 12.804-12.786c7.055 0 12.786 5.73 12.786 12.786 0 7.055-5.731 12.804-12.786 12.804zm0 51.18c-7.056 0-12.804-5.731-12.804-12.787s5.748-12.803 12.804-12.803c7.055 0 12.786 5.748 12.786 12.803s-5.731 12.787-12.786 12.787zm196.281-17.06c-14.128 0-25.607-11.454-25.607-25.582s11.479-25.581 25.607-25.581c14.111 0 25.573 11.454 25.573 25.581 0 14.128-11.462 25.582-25.573 25.582zm0-34.104c-4.715 0-8.547 3.824-8.547 8.521s3.833 8.522 8.547 8.522c4.698 0 8.513-3.824 8.513-8.522s-3.815-8.521-8.513-8.521zm0-34.136c-14.128 0-25.607-11.454-25.607-25.582s11.479-25.581 25.607-25.581c14.111 0 25.573 11.454 25.573 25.581s-11.462 25.582-25.573 25.582zm0-34.104c-4.715 0-8.547 3.824-8.547 8.521s3.833 8.522 8.547 8.522c4.698 0 8.513-3.824 8.513-8.522s-3.815-8.521-8.513-8.521z"/><glyph unicode="" d="M119.52 283.71c-9.43 0-17.06-7.639-17.06-17.06s7.63-17.06 17.06-17.06c9.413 0 17.06 7.639 17.06 17.06s-7.647 17.06-17.06 17.06zm51.18 0c-9.43 0-17.06-7.639-17.06-17.06s7.63-17.06 17.06-17.06c9.413 0 17.06 7.639 17.06 17.06s-7.647 17.06-17.06 17.06zm298.55 68.24h-93.83v85.3H136.58v-85.3H42.75a8.525 8.525 0 0 1-8.53-8.53V87.52a8.525 8.525 0 0 1 8.53-8.53h93.83V10.75h238.84v68.24h93.83a8.526 8.526 0 0 1 8.53 8.53v255.9a8.526 8.526 0 0 1-8.53 8.53zm-315.61 68.24h204.72v-68.24H153.64v68.24zM358.36 27.81H153.64v153.54h204.72V27.81zm102.36 68.24h-85.3v102.36H136.58V96.05h-85.3v238.84h409.44V96.05z"/><glyph unicode="" d="M256 224.009L494.84 87.52v272.96L256 224.009zm221.78-107.092L290.386 224.009 477.78 331.083V116.917zM17.16 224.009L256 87.52v272.96L17.16 224.009zm221.78-107.092L51.546 224.009 238.94 331.083V116.917z"/><glyph unicode="" d="M244.888 437.25h17.06V232.53h-17.06v204.72zm93.83-34.519v-18.868c62.101-30.63 104.942-94.596 104.942-168.392 0-103.476-84.183-187.66-187.66-187.66-103.476 0-187.66 84.184-187.66 187.66 0 71.739 40.477 134.173 99.778 165.744v19.183C99.037 367.51 51.28 297.08 51.28 215.47c0-113.064 91.657-204.72 204.72-204.72s204.72 91.656 204.72 204.72c0 83.618-50.155 155.481-122.002 187.261z"/><glyph unicode="" d="M315.71 364.745v42.65H196.29v-42.65H51.28V40.605h409.44v324.14H315.71zm-102.36 25.59h85.3v-25.59h-85.3v25.59zm-17.06-42.65h247.37v-136.48H315.71v34.12H196.29v-34.12H68.34v136.48h127.95zm102.36-119.42v-51.18h-85.3v51.18h85.3zM68.34 57.665v136.48h127.95v-34.12h119.42v34.12h127.95V57.665H68.34z"/><glyph unicode="" d="M256 437.248c-117.787 0-213.25-95.463-213.25-213.25S138.213 10.752 256 10.752c117.788 0 213.25 95.458 213.25 213.246S373.788 437.248 256 437.248zm0-409.436c-108.174 0-196.19 88.012-196.19 196.186s88.016 196.19 196.19 196.19c108.174 0 196.19-88.015 196.19-196.19 0-108.174-88.016-196.186-196.19-196.186zm8.53 324.136h-17.06v-119.42H128.616v-17.06H247.47V96.614h17.06v118.854h119.42v17.06H264.53z"/><glyph unicode="" d="M119.52 373.425L375.678 224 119.52 74.576v298.849zm-17.06 29.705V44.87L409.54 224 102.46 403.13z"/><glyph unicode="" d="M145.974-7.426L124.698 92.868 23.614 115.217l20.65 39.593 92.555 5.057c4.749 6.181 15.361 19.742 21.992 26.365l84.334 84.342-175.823 86.208 44.516 44.507 222.913-39.102 78.928 78.928c9.355 9.363 23.932 14.311 42.15 14.311 12.42 0 22.316-2.283 22.732-2.382l4.798-1.124 1.424-4.715c7.497-24.807 2.99-52.771-10.713-66.482l-79.302-79.303 38.951-222.004L389.211 34.9l-85.866 175.115-78.769-78.786c-8.28-8.28-25.964-24.574-32.529-30.589l-6.889-86.807-39.184-21.259zM49.037 127.063l90.073-19.901 18.81-88.699 10.962 5.948 6.689 84.284 2.482 2.266c.25.225 24.674 22.541 34.453 32.321l95.655 95.671 85.866-175.115 21.35 21.358-38.951 222.021 85.583 85.567c7.43 7.43 11.928 25.564 7.738 44.524-3.449.516-8.413 1.058-13.919 1.058-9.48 0-22.391-1.616-30.089-9.313l-85.192-85.208-222.928 39.101-21.358-21.35 175.823-86.208-101.211-101.22c-7.721-7.713-22.691-27.547-22.841-27.739l-2.391-3.165-90.748-4.964-5.856-11.237z"/><glyph unicode="" d="M426.598 343.42v68.24H25.692V104.58h59.71V36.34h400.906v307.08h-59.71zM42.752 121.64V394.6h366.786v-51.18H85.402V121.64h-42.65zM469.248 53.4H102.462v272.96h366.786V53.4z"/><glyph unicode="" d="M369.381 454.31H142.62c-12.754 0-23.1-10.355-23.1-23.108V16.789c0-12.77 10.346-23.099 23.1-23.099h226.761c12.754 0 23.099 10.329 23.099 23.099v414.413c0 12.753-10.345 23.108-23.099 23.108zm6.039-437.521a6.043 6.043 0 0 0-6.039-6.039H142.62a6.043 6.043 0 0 0-6.04 6.039v79.202h238.84V16.789zm0 96.262H136.58V385.72h238.84V113.051zm0 289.729H136.58v28.422c0 3.332 2.707 6.048 6.04 6.048h226.761c3.333 0 6.039-2.716 6.039-6.048V402.78zM230.41 61.93h51.18V44.87h-51.18v17.06z"/><glyph unicode="" d="M492.341 387.17l-68.023 68.015-16.644-16.651-23.291 23.274a8.526 8.526 0 0 1-12.061 0L234.108 323.586a8.527 8.527 0 0 1 0-12.062 8.506 8.506 0 0 1 6.032-2.499c2.182 0 4.365.833 6.031 2.499l132.182 132.19 17.26-17.243L102.51 133.377l19.759-19.767c-8.313 4.115-17.376 6.214-26.44 6.214-15.31 0-30.621-5.84-42.3-17.527a49.049 49.049 0 0 1-3.449-3.807 39.256 39.256 0 0 1-1.566-1.974c-.6-.75-1.166-1.541-1.715-2.333-.417-.583-.833-1.15-1.216-1.732C20.776 55.157 19.66-16.173 19.66-16.173s2.599-.133 7.097-.133c20.492 0 80.152 2.807 111.373 34.02 18.593 18.601 22.341 46.398 11.295 68.748l21.108-21.1L492.341 387.17zM126.067 29.776C107.025 10.742 73.621 4.17 49.797 1.92l38.836 38.835L76.57 52.817 39.368 15.615c3.032 22.757 9.063 50.33 20.476 67.465l.483.682.416.592c.367.533.75 1.082 1.416 1.924.283.374.566.749 1.066 1.349.75.899 1.517 1.766 2.366 2.607 8.08 8.08 18.81 12.529 30.238 12.529 11.412 0 22.158-4.448 30.238-12.529 16.661-16.667 16.661-43.79 0-60.458zM468.218 387.17L367.04 285.992l-43.9 43.891 101.178 101.178 43.9-43.891zm-157.139-69.348l43.9-43.891L170.533 89.486l-43.899 43.891 184.445 184.445z"/><glyph unicode="" d="M198.064 164.206L274.326 10.75l194.899 426.5-426.45-204.67 155.289-68.374zm4.532 16.628L83.551 233.247l326.938 156.905-207.893-209.318zm71.097-130.683l-59.002 118.738 209.743 211.166L273.693 50.151z"/><glyph unicode="" d="M447.925 394.6v26.456c0 23.075-18.71 41.784-41.784 41.784H131.465c-23.074 0-41.767-18.71-41.767-41.784V394.6h-7.831c-19.259 0-34.853-15.611-34.853-34.862v-58.385c0-19.251 15.594-34.861 34.853-34.861l160.588.05c9.813 0 17.81-7.989 17.81-17.802v-58.86h-34.104V-14.84h85.3v204.72h-34.136v58.86c0 19.251-15.611 34.862-34.87 34.862H221.33v-.05H81.868c-9.813 0-17.793 7.988-17.793 17.801v58.385c0 9.813 7.98 17.802 17.793 17.802h7.831v-26.465c0-23.075 18.693-41.775 41.767-41.775h274.675c23.075 0 41.784 18.7 41.784 41.775v26.465h17.06v17.06h-17.06zM294.401 2.22h-51.18v170.6h51.18V2.22zm136.464 348.855c0-13.628-11.096-24.715-24.724-24.715H131.465c-13.628 0-24.707 11.087-24.707 24.715v69.981c0 13.636 11.079 24.724 24.707 24.724H406.14c13.628 0 24.724-11.088 24.724-24.724v-69.981z"/><glyph unicode="" d="M256 428.72H119.52c-40.818 0-68.24-27.422-68.24-68.24V76.749c0-13.477 5.022-57.469 69.705-57.469H460.72v409.44H256zm-17.06-17.06V248.466l-41.784 38.051-46.39-39.034V411.66h88.174zm-119.42 0h14.186V210.831l63 53.012L256 209.856V411.66h187.66V130.17H119.52c-21.709 0-39.318-6.48-51.18-17.81v248.12c0 31.088 20.092 51.18 51.18 51.18zm1.465-375.32c-39.109 0-50.413 17.743-52.304 34.721.033 26.331 19.026 42.049 50.839 42.049h324.14V36.34H120.985z"/><glyph unicode="" d="M444.473 412.837a25.55 25.55 0 0 1-18.102 7.488c-6.555 0-13.103-2.498-18.093-7.488l-75.295-75.287v14.261H60.023V27.675h324.14v272.956H368.47l76.003 76.013c10.005 9.978 10.005 26.196 0 36.193zm-77.37-368.102H77.083v290.016h253.11L196.503 201.07v-36.919h35.503l135.097 135.114V44.735zm65.308 343.969L224.942 181.211h-11.379v12.795l206.786 206.777c2.166 2.166 4.698 2.482 6.022 2.482s3.866-.324 6.039-2.498c2.183-2.174 2.508-4.715 2.508-6.039a8.468 8.468 0 0 0-2.507-6.024z"/><glyph unicode="" d="M17.16 360.48V87.52L256 224.009 17.16 360.48zm17.06-29.397l187.394-107.075L34.22 116.917v214.166zM256 360.48V87.52l238.84 136.489L256 360.48zm17.06-29.397l187.394-107.075L273.06 116.917v214.166z"/><glyph unicode="" d="M145.11 437.25V198.41H42.75V58.915c0-34.078 31.721-48.165 55.228-48.165H418.07c25.857 0 51.18 25.149 51.18 51.18v375.32H145.11zM97.978 27.81c-10.621 0-38.168 5.59-38.168 31.105V181.35h85.3V66.27c0-11.42-14.927-38.46-38.459-38.46h-8.673zM452.19 61.93c0-16.576-17.534-34.12-34.12-34.12H144.269c11.487 11.971 17.901 27.689 17.901 38.46v353.92h290.02V61.93zm-255.9 324.14h221.78v-17.06H196.29v17.06zm0-230.31h221.78V138.7H196.29v17.06zm0-59.71h221.78V78.99H196.29v17.06zm221.78 230.31H196.29V198.41h221.78v127.95zm-17.06-110.89H213.35v93.83h187.66v-93.83z"/><glyph unicode="" d="M42.75 343.408h221.78v-17.06H42.75v17.06zm0-76.77h221.78v-17.06H42.75v17.06zm0-76.77h221.78v-17.06H42.75v17.06zm307.08 143.344l119.42-15.394c0 85.3-68.24 102.36-136.48 119.445V113.098h-52.563c-50.138 0-66.857-26.531-66.857-50.764 0-20.558 15.386-51.596 68.24-51.596 75.571 0 68.24 60.676 68.24 102.36v220.114zm100.827 4.207L349.83 350.413v64.809c56.695-15.353 93.106-32.213 100.827-77.803zM320.275 39.535c-7.68-7.789-20.701-11.737-38.685-11.737-48.714 0-51.18 28.773-51.18 34.536 0 21.417 18.152 33.704 49.797 33.704h52.563V82.935h.042c-.509-17.186-2.949-33.687-12.537-43.4z"/><glyph unicode="" d="M460.72 456.721l-281.49-99.578V110.464c-13.303 15.786-33.195 25.84-55.445 25.84-40.035 0-72.505-32.47-72.505-72.521 0-40.035 32.47-72.505 72.505-72.505 39.618 0 71.771 31.804 72.438 71.264h.067v282.54l247.37 87.516V204.287c-13.303 15.786-33.195 25.831-55.454 25.831-40.042 0-72.496-32.454-72.496-72.505 0-40.042 32.454-72.505 72.496-72.505s72.514 32.463 72.514 72.505c0 1.374-.133 2.715-.208 4.065h.208v295.043zM123.785 8.339c-30.572 0-55.445 24.873-55.445 55.445 0 30.579 24.873 55.461 55.445 55.461s55.445-24.882 55.445-55.461c0-30.572-24.873-55.445-55.445-55.445zm264.421 93.83c-30.572 0-55.436 24.873-55.436 55.445s24.865 55.445 55.436 55.445c30.58 0 55.454-24.873 55.454-55.445s-24.873-55.445-55.454-55.445z"/><glyph unicode="" d="M264.53 343.004v26.356c0 7.789 16.46 18.093 29.688 26.382 18.951 11.862 38.552 24.141 38.552 42.026V479.9h-17.06v-42.133c0-8.439-16.935-19.042-30.547-27.572-18.534-11.596-37.693-23.599-37.693-40.835v-26.356c-66.666-4.282-119.42-58.011-119.42-123.827V92.344C128.05 23.729 185.336-31.9 256-31.9S383.95 23.728 383.95 92.344v126.833c0 65.816-52.755 119.545-119.42 123.827zm102.36-123.827V206.94H264.53v119.004c57.16-4.241 102.36-50.448 102.36-106.767zm-221.78 0c0 56.319 45.199 102.526 102.36 106.767V206.94H145.11v12.237zM256-14.84c-61.143 0-110.89 48.081-110.89 107.184v97.536h221.78V92.344C366.89 33.241 317.142-14.84 256-14.84z"/><glyph unicode="" d="M51.28 275.18C23.008 275.18.1 252.264.1 224s22.908-51.18 51.18-51.18c28.255 0 51.18 22.916 51.18 51.18s-22.925 51.18-51.18 51.18zm0-85.3c-18.826 0-34.12 15.302-34.12 34.12s15.294 34.12 34.12 34.12c18.809 0 34.12-15.303 34.12-34.12s-15.311-34.12-34.12-34.12zm409.44 85.3c-28.272 0-51.18-22.916-51.18-51.18s22.908-51.18 51.18-51.18c28.255 0 51.18 22.916 51.18 51.18s-22.925 51.18-51.18 51.18zm0-85.3c-18.809 0-34.12 15.302-34.12 34.12s15.311 34.12 34.12 34.12c18.809 0 34.12-15.303 34.12-34.12s-15.311-34.12-34.12-34.12zM256 275.18c-28.272 0-51.18-22.916-51.18-51.18s22.908-51.18 51.18-51.18c28.255 0 51.18 22.916 51.18 51.18s-22.925 51.18-51.18 51.18zm0-85.3c-18.809 0-34.12 15.302-34.12 34.12s15.311 34.12 34.12 34.12c18.809 0 34.12-15.303 34.12-34.12s-15.311-34.12-34.12-34.12z"/><glyph unicode="" d="M158.105 399.169c-13.545-27.473-20.717-57.819-20.717-89.023 0-111.631 90.822-202.446 202.454-202.446 32.838 0 64.567 7.83 92.989 22.591C398.436 68.39 332.862 28.373 259.032 28.373c-109.848 0-199.222 89.365-199.222 199.214 0 71.854 38.552 136.521 98.295 171.582zm46.54 37.518C111.573 412.548 42.75 328.213 42.75 227.586c0-119.437 96.846-216.274 216.282-216.274 102.194 0 187.611 70.964 210.218 166.218-33.395-32.62-79.019-52.771-129.408-52.771-102.385 0-185.394 83-185.394 185.386.001 48.982 19.143 93.406 50.197 126.542z"/><glyph unicode="" d="M477.78 113.11v307.08H34.22V113.11h213.25V44.87h-59.71V27.81h136.48v17.06h-59.71v68.24h213.25zM51.28 403.13h409.44V130.17H51.28v272.96z"/><glyph unicode="" d="M256.042 121.971c51.691 0 93.61 41.91 93.61 93.61v170.217c0 51.7-41.919 93.602-93.61 93.602s-93.61-41.902-93.61-93.602V215.582c0-51.7 41.918-93.611 93.61-93.611zm-76.59 263.827c0 42.227 34.356 76.582 76.59 76.582s76.59-34.356 76.59-76.582V215.582c0-42.234-34.356-76.59-76.59-76.59s-76.59 34.356-76.59 76.59v170.216zM383.65 300.69v-85.109c0-70.382-57.26-127.65-127.65-127.65s-127.65 57.268-127.65 127.65v85.109h-17.02v-85.109c0-77.28 60.958-140.415 137.291-144.296h-1.089V-14.38H170.9V-31.4h170.2v17.02h-76.548v85.665h-1.172c76.333 3.881 137.29 67.016 137.29 144.296v85.109h-17.02z"/><glyph unicode="" d="M51.28 369.01v-68.24h409.44v68.24H51.28zm392.38-51.18H68.34v34.12h375.32v-34.12zM51.28 189.88h409.44v68.24H51.28v-68.24zm17.06 51.18h375.32v-34.12H68.34v34.12zM51.28 78.99h409.44v68.24H51.28V78.99zm17.06 51.18h375.32V96.05H68.34v34.12z"/><glyph unicode="" d="M368.872 425.596l-10.512 5.256-8.53-4.256v-.009L256 379.673l-102.36 51.18-110.89-55.445V17.148l110.89 55.445L256 21.413l102.36 51.18 110.89-55.445v358.26l-100.378 50.188zM145.11 87.404l-85.3-42.65v320.108l85.3 42.65V87.404zm102.36-42.65l-85.3 42.65v320.108l85.3-42.65V44.754zm102.36 42.65l-85.3-42.65v320.108l85.3 42.65V87.404zm102.36-42.65l-85.3 42.65v320.108l85.3-42.65V44.754z"/><glyph unicode="" d="M256.009 462.848c84.659 0 153.531-68.881 153.531-153.548 0-26.923-7.13-53.463-20.633-76.779L256 2.22 123.077 232.538A153.41 153.41 0 0 0 102.46 309.3c0 84.667 68.881 153.548 153.549 153.548zm0-213.25c32.921 0 59.701 26.782 59.701 59.702 0 32.911-26.781 59.693-59.701 59.693-32.929 0-59.719-26.782-59.719-59.693 0-32.92 26.789-59.702 59.719-59.702zm0 230.31C161.787 479.908 85.4 403.505 85.4 309.3c0-31.113 8.371-60.194 22.916-85.309L256-31.908l147.684 255.9c14.545 25.115 22.916 54.195 22.916 85.309 0 94.204-76.387 170.607-170.591 170.607zm0-213.25c-23.557 0-42.659 19.084-42.659 42.642 0 23.532 19.101 42.633 42.659 42.633 23.549 0 42.641-19.101 42.641-42.633 0-23.558-19.093-42.642-42.641-42.642z"/><glyph unicode="" d="M451.898 360.482H42.75V87.519h426.5v272.963h-17.352zm-17.06-17.06L270.069 178.653c-7.513-7.513-20.626-7.513-28.139 0L77.136 343.422h357.702zM59.81 336.625l110.773-110.757L59.81 115.095v221.53zm13.611-232.043l109.233 109.216 47.214-47.207c6.972-6.981 16.261-10.83 26.132-10.83s19.159 3.849 26.132 10.83l47.214 47.214L438.57 104.582H73.421zm378.769 10.504L341.417 225.868 452.19 336.65V115.086z"/><glyph unicode="" d="M467.659 266.529L282.131 452.057c-6.972 6.981-16.26 10.829-26.132 10.829-9.871 0-19.158-3.848-26.131-10.829L42.75 264.963V-14.886h426.5v279.824l-1.591 1.591zm-397.586 1.633l171.858 171.833c7.514 7.514 20.626 7.514 28.14 0l179.938-179.946-122.62-122.62-45.257 45.266c-6.972 6.98-16.26 10.829-26.132 10.829-9.871 0-19.158-3.849-26.131-10.829l-45.932-45.924L61.31 259.399l8.763 8.763zm101.794-143.444l-1.267-1.283-.016.017L59.81 12.687v224.087l112.057-112.056zM73.421 2.174l9.171 9.171h.026L241.93 170.633c7.514 7.514 20.626 7.514 28.14 0L438.571 2.174H73.421zM452.19 230.885V12.678l-112.739 112.69L452.19 238.107v-7.222z"/><glyph unicode="" d="M467.659 266.529L282.132 452.056c-6.972 6.981-16.261 10.829-26.132 10.829s-19.159-3.848-26.132-10.829l-40.451-40.442h-61.359v-61.351l-85.308-85.3V-14.886h426.5v279.824l-1.591 1.591zm-17.652-6.481l-66.057-66.057v132.115l66.057-66.058zM241.931 439.995c7.514 7.514 20.626 7.514 28.139 0l28.381-28.38h-84.908l28.388 28.38zm73.579-45.441l51.38-51.388V176.931l-39.502-39.502-45.257 45.266c-6.972 6.98-16.261 10.829-26.132 10.829s-19.159-3.849-26.132-10.829l-45.931-45.924-38.818 38.818v218.965H315.51zM70.072 268.162l57.986 57.978V192.65L61.31 259.399l8.762 8.763zm-10.262-45.09v13.702l112.056-112.056-1.266-1.283-.017.017L59.81 12.687v210.385zM73.421 2.174l9.171 9.171h.025L241.93 170.633c7.514 7.514 20.626 7.514 28.139 0L438.57 2.174H73.421zM452.19 234.242V12.678l-112.739 112.69L452.19 238.107v-3.865zm-255.9 109.132h119.42v-17.06H196.29v17.06zm0-102.36h119.42v-17.06H196.29v17.06zm0 51.18h85.3v-17.06h-85.3v17.06z"/><glyph unicode="" d="M341.517 437.25V198.627c0-47.231-38.285-85.517-85.517-85.517-47.249 0-85.517 38.285-85.517 85.517V437.25H68.34V198.41C68.34 94.767 152.357 10.75 256 10.75s187.66 84.017 187.66 187.66v238.84H341.517zm85.083-17.06v-51.18h-68.023v51.18H426.6zm-273.177 0v-51.18H85.4v51.18h68.023zM256 27.81c-94.08 0-170.6 76.528-170.6 170.6v153.54h68.023V198.627c0-56.562 46.015-102.577 102.577-102.577 56.561 0 102.577 46.015 102.577 102.577V351.95H426.6V198.41c0-94.072-76.537-170.6-170.6-170.6z"/><glyph unicode="" d="M327.388 306.818L179.146 159.675l12.046-12.094 148.242 147.142zM110.99 130.17c-51.738 0-93.83 42.092-93.83 93.83 0 51.739 42.092 93.83 93.83 93.83 25.057 0 47.789-9.929 64.634-25.982l.008.092.867-.758 33.212-33.062H179.23v-17.06h59.71v59.71h-17.06v-30.696l-33.337 33.187-.075-.075c-20.009 19.584-47.34 31.704-77.478 31.704C49.847 334.89.1 285.143.1 224s49.747-110.89 110.89-110.89c31.529 0 59.96 13.295 80.177 34.495l-12.054 12.062c-17.118-18.118-41.292-29.497-68.123-29.497zm290.02 204.72c-28.239 0-53.962-10.696-73.554-28.139l12.053-12.054c16.486 14.361 37.969 23.133 61.501 23.133 51.738 0 93.83-42.091 93.83-93.83s-42.092-93.83-93.83-93.83c-24.966 0-47.623 9.863-64.45 25.815l-.025-.158-56.494 56.286-12.113-12.02 56.562-56.345.1.101c19.918-18.993 46.798-30.739 76.42-30.739 61.143 0 110.89 49.748 110.89 110.89s-49.747 110.89-110.89 110.89z"/><glyph unicode="" d="M256 377.538c-93.547 0-166.468-58.552-255.9-153.481C77.153 142.888 141.811 70.462 256 70.462s198.114 91.686 255.9 151.878C452.748 292.855 368.814 377.538 256 377.538zm0-290.016c-101.369 0-162.561 62.871-232.376 136.518C106.692 310.656 172.741 360.478 256 360.478c98.57 0 175.606-71.08 232.925-137.454C432.556 164.247 356.236 87.522 256 87.522zm0 238.828c-56.445 0-102.36-45.916-102.36-102.352S199.555 121.646 256 121.646s102.36 45.915 102.36 102.351S312.445 326.35 256 326.35zm0-187.644c-47.032 0-85.3 38.26-85.3 85.291s38.268 85.292 85.3 85.292 85.3-38.26 85.3-85.292c0-47.03-38.268-85.291-85.3-85.291zm0 145.002c-32.921 0-59.71-26.789-59.71-59.71s26.789-59.71 59.71-59.71 59.71 26.79 59.71 59.71c0 32.921-26.789 59.71-59.71 59.71zm0-102.36c-23.516 0-42.65 19.134-42.65 42.65s19.134 42.65 42.65 42.65 42.65-19.134 42.65-42.65-19.134-42.65-42.65-42.65z"/><glyph unicode="" d="M366.89 232.53v102.36c0 61.234-49.647 110.89-110.874 110.89-61.251 0-110.906-49.656-110.906-110.89V232.53H85.4V2.22h341.2v230.31h-59.71zM162.17 334.89c0 51.738 42.1 93.83 93.846 93.83 51.73 0 93.814-42.092 93.814-93.83V232.53H162.17v102.36zM409.54 19.28H102.46v196.19h307.08V19.28z"/><glyph unicode="" d="M136.58 479.9v-51.18l59.71-102.36V-31.9h119.42v358.26l59.71 102.36v51.18H136.58zm17.06-17.06h204.72v-29.505l-2.69-4.615H156.33l-2.69 4.615v29.505zm59.71-477.68v34.195h85.3V-14.84h-85.3zm87.624 349.797l-2.324-3.982V36.415h-85.3v294.56l-47.065 80.685h179.43l-44.741-76.703zM256 241.06c-14.128 0-25.59-11.462-25.59-25.59v-34.153c0-14.12 11.462-25.59 25.59-25.59 14.127 0 25.59 11.47 25.59 25.59v34.153c0 14.128-11.463 25.59-25.59 25.59zm8.53-59.743c0-4.706-3.823-8.53-8.53-8.53s-8.53 3.824-8.53 8.53v34.153c0 4.707 3.823 8.53 8.53 8.53s8.53-3.823 8.53-8.53v-34.153z"/><glyph unicode="" d="M280.536 147.318c-20.812 0-41.63 7.914-57.473 23.766l12.062 12.061c25.048-25.048 65.787-25.04 90.844 0l107.446 107.45c25.04 25.041 25.04 65.783 0 90.831l-20.009 20.001c-25.041 25.04-65.791 25.04-90.836 0l-75.824-75.821-12.062 12.062 75.825 75.82c31.687 31.688 83.255 31.704 114.959 0l20.009-20c31.688-31.696 31.688-83.267 0-114.955L338.03 171.085c-15.844-15.845-36.669-23.767-57.494-23.767zM144.01 10.739c-21.708 0-42.125 8.455-57.477 23.807L66.524 54.547c-31.688 31.704-31.688 83.267 0 114.955L173.973 276.96c31.688 31.687 83.276 31.687 114.96 0l20.009-20.009-12.062-12.062-20.009 20.009c-25.036 25.041-65.795 25.032-90.835 0L78.586 157.44c-25.032-25.032-25.032-65.783 0-90.832l20.009-20c12.129-12.129 28.264-18.81 45.415-18.81 17.161 0 33.287 6.681 45.416 18.81l71.505 71.505 12.061-12.062-71.505-71.505c-15.343-15.353-35.76-23.807-57.477-23.807z"/><glyph unicode="" d="M350.171 398.161c56.336 0 102.019-45.674 102.019-102.019 0-28.938-12.07-55.019-31.43-73.596L256 56.961 88.258 225.529C70.656 243.863 59.81 268.72 59.81 296.142c0 56.345 45.682 102.019 102.019 102.019 42.425 0 78.794-25.915 94.171-62.776 15.377 36.861 51.746 62.776 94.171 62.776zm0 17.06c-37.527 0-71.988-17.427-94.171-46.148-22.183 28.721-56.644 46.148-94.171 46.148-65.658 0-119.079-53.421-119.079-119.079 0-30.854 11.787-60.126 33.204-82.425L256 32.779 432.856 210.51c23.366 22.425 36.394 52.93 36.394 85.633 0 65.657-53.421 119.078-119.079 119.078z"/><glyph unicode="" d="M426.6 300.907c0 94.213-76.37 170.6-170.6 170.6S85.4 395.12 85.4 300.907c0-55.487 26.573-104.667 67.607-135.797l-.075-.042a47.001 47.001 0 0 0 2.424-1.791c.083-.058.158-.125.233-.183 13.204-10.42 32.171-34.761 32.171-66.891V-23.508h136.48V96.204c0 34.12 19.709 58.603 34.12 68.332l-.042.049c41.426 31.105 68.282 80.528 68.282 136.322zM204.82-6.447v51.471h102.36V-6.447H204.82zM256 283.856c-9.404 0-17.06 7.647-17.06 17.051 0 9.413 7.656 17.069 17.06 17.069s17.06-7.656 17.06-17.069c0-9.404-7.656-17.051-17.06-17.051zm92.072-105.625a24.653 24.653 0 0 1-.666-.533c-18.876-13.429-40.226-42.342-40.226-81.494v-34.12h-42.65v205.92c14.686 3.807 25.59 17.034 25.59 32.904 0 18.843-15.277 34.129-34.12 34.129s-34.12-15.286-34.12-34.129c0-15.869 10.904-29.097 25.59-32.904V62.084h-42.65v34.12c0 36.736-20.825 66.208-38.51 80.161-.133.117-.299.234-.458.367-.558.433-1.107.85-1.64 1.25-.292.25-.583.491-.891.716-38.677 29.347-60.86 73.889-60.86 122.211 0 84.659 68.881 153.54 153.54 153.54s153.54-68.881 153.54-153.54c-.001-48.641-22.401-93.349-61.469-122.678z"/><glyph unicode="" d="M256 437.25c-117.787 0-213.25-95.464-213.25-213.25 0-117.787 95.463-213.25 213.25-213.25S469.25 106.213 469.25 224c0 117.786-95.463 213.25-213.25 213.25zm0-409.44C147.826 27.81 59.81 115.825 59.81 224c0 108.174 88.016 196.19 196.19 196.19S452.19 332.174 452.19 224c0-108.175-88.016-196.19-196.19-196.19zM145.677 232.53H366.89v-17.06H145.677v17.06z"/><glyph unicode="" d="M110.99 130.166c-28.264 0-51.18-22.907-51.18-51.171s22.916-51.18 51.18-51.18c28.256 0 51.18 22.916 51.18 51.18s-22.924 51.171-51.18 51.171zm0-85.292c-18.817 0-34.12 15.303-34.12 34.12 0 18.81 15.303 34.111 34.12 34.111 18.818 0 34.12-15.302 34.12-34.111 0-18.817-15.302-34.12-34.12-34.12zm0 375.312c-28.264 0-51.18-22.907-51.18-51.171s22.916-51.18 51.18-51.18c28.256 0 51.18 22.916 51.18 51.18s-22.924 51.171-51.18 51.171zm0-85.292c-18.817 0-34.12 15.303-34.12 34.12 0 18.81 15.303 34.111 34.12 34.111 18.818 0 34.12-15.302 34.12-34.111 0-18.817-15.302-34.12-34.12-34.12zm0-59.36c-28.264 0-51.18-22.907-51.18-51.171s22.916-51.18 51.18-51.18c28.256 0 51.18 22.916 51.18 51.18s-22.924 51.171-51.18 51.171zm0-85.291c-18.817 0-34.12 15.31-34.12 34.12s15.303 34.111 34.12 34.111c18.818 0 34.12-15.302 34.12-34.111s-15.302-34.12-34.12-34.12zM256 130.166c-28.264 0-51.18-22.907-51.18-51.171s22.916-51.18 51.18-51.18c28.256 0 51.18 22.916 51.18 51.18s-22.924 51.171-51.18 51.171zm0-85.292c-18.817 0-34.12 15.303-34.12 34.12 0 18.81 15.303 34.111 34.12 34.111s34.12-15.302 34.12-34.111c0-18.817-15.302-34.12-34.12-34.12zm0 375.312c-28.264 0-51.18-22.907-51.18-51.171s22.916-51.18 51.18-51.18c28.256 0 51.18 22.916 51.18 51.18s-22.924 51.171-51.18 51.171zm0-85.292c-18.817 0-34.12 15.303-34.12 34.12 0 18.81 15.303 34.111 34.12 34.111s34.12-15.302 34.12-34.111c0-18.817-15.302-34.12-34.12-34.12zm0-59.36c-28.264 0-51.18-22.907-51.18-51.171s22.916-51.18 51.18-51.18c28.256 0 51.18 22.916 51.18 51.18s-22.924 51.171-51.18 51.171zm0-85.291c-18.817 0-34.12 15.31-34.12 34.12s15.303 34.111 34.12 34.111c18.818 0 34.12-15.302 34.12-34.111s-15.302-34.12-34.12-34.12zm145.01-60.077c-28.264 0-51.18-22.907-51.18-51.171s22.916-51.18 51.18-51.18c28.256 0 51.18 22.916 51.18 51.18s-22.924 51.171-51.18 51.171zm0-85.292c-18.817 0-34.12 15.303-34.12 34.12 0 18.81 15.303 34.111 34.12 34.111s34.12-15.302 34.12-34.111c0-18.817-15.302-34.12-34.12-34.12zm0 272.96c28.256 0 51.18 22.916 51.18 51.18s-22.924 51.171-51.18 51.171c-28.264 0-51.18-22.907-51.18-51.171s22.916-51.18 51.18-51.18zm0 85.292c18.818 0 34.12-15.302 34.12-34.111 0-18.817-15.302-34.12-34.12-34.12s-34.12 15.303-34.12 34.12c0 18.809 15.303 34.111 34.12 34.111zm0-127.592c-28.264 0-51.18-22.907-51.18-51.171s22.916-51.18 51.18-51.18c28.256 0 51.18 22.916 51.18 51.18s-22.924 51.171-51.18 51.171zm0-85.291c-18.817 0-34.12 15.31-34.12 34.12s15.303 34.111 34.12 34.111c18.818 0 34.12-15.302 34.12-34.111s-15.302-34.12-34.12-34.12z"/><glyph unicode="" d="M319.375 241.377l-12.062 12.061-51.304-51.313-51.314 51.313-12.062-12.061 51.305-51.314-51.472-51.463 12.062-12.062 51.481 51.464 51.47-51.464 12.063 12.062-51.472 51.463zM469.25 368.993H42.75v-17.06h12.537l4.523-34.12c0-13.611 8.022-25.256 19.542-30.738l30.088-175.498c3.149-17.86 14.586-32.571 32.571-32.571h227.978c17.976 0 28.889 14.445 32.57 32.571l30.089 175.498c11.521 5.481 19.542 17.127 19.542 30.738l4.523 34.12h12.537v17.06zm-83.459-254.267c-1.474-7.081-5.464-18.659-15.802-18.659H142.011c-11.612 0-15.003 14.144-15.76 18.393L97.237 283.693h317.526l-28.972-168.967zm49.489 205.32l-.15-1.116v-1.117c0-9.413-7.656-17.06-17.06-17.06H93.93c-9.404 0-17.06 7.647-17.06 17.06v1.117l-.15 1.116-4.223 31.888h367.007l-4.224-31.888z"/><glyph unicode="" d="M257.066 301.503c14.127 0 25.59 11.463 25.59 25.59 0 14.144-11.463 25.574-25.59 25.574-14.128 0-25.59-11.429-25.59-25.574 0-14.128 11.462-25.59 25.59-25.59zm17.377-34.12v17.06h-51.18v-17.06h17.06v-145.01h-17.06v-17.06h68.24v17.06h-17.06zM256 437.25c-117.77 0-213.25-95.48-213.25-213.25 0-117.787 95.48-213.25 213.25-213.25S469.25 106.213 469.25 224c0 117.77-95.48 213.25-213.25 213.25zm0-409.44C147.817 27.81 59.81 115.826 59.81 224S147.817 420.19 256 420.19c108.183 0 196.19-88.016 196.19-196.19S364.183 27.81 256 27.81z"/><glyph unicode="" d="M256 437.25l-85.3-85.3v34.12h-68.24V283.71l-60.077-60.077 12.062-12.062L256 413.125 457.555 211.57l12.062 12.062L256 437.25zm-136.48-68.24h34.12v-34.12l-34.12-34.12v68.24zm-17.06-153.54V10.75h119.42v119.42h68.24V10.75h119.42v204.72L256 369.01 102.46 215.47zM392.48 27.81h-85.3v119.42H204.82V27.81h-85.3v180.595L256 344.885l136.48-136.48V27.81z"/><glyph unicode="" d="M256 428.72c-113.056 0-204.72-91.647-204.72-204.72 0-113.063 91.656-204.711 204.72-204.72 113.073.009 204.72 91.664 204.72 204.72-.008 113.064-91.656 204.72-204.72 204.72zm-.016-298.55c-51.73 0-93.814 42.092-93.814 93.83 0 51.739 42.092 93.83 93.83 93.83h.017c51.729 0 93.813-42.091 93.813-93.83 0-51.729-42.091-93.821-93.846-93.83zm102.343 136.597l64.45 43.092C436.088 284.11 443.66 254.93 443.66 224c0-30.537-7.38-59.368-20.375-84.875l-64.567 43.183c5.232 12.879 8.172 26.932 8.172 41.692 0 15.161-3.057 29.605-8.563 42.767zm55.911 57.902l-63.842-42.683a111.142 111.142 0 0 1-37.193 36.885l42.708 63.858a188.852 188.852 0 0 0 58.327-58.06zm-73.188 66.524l-43.166-64.541a110.35 110.35 0 0 1-41.867 8.238H256c-14.828 0-28.939-2.956-41.867-8.238l-43.174 64.55c25.548 13.053 54.436 20.458 85.041 20.458s59.502-7.413 85.05-20.467zm-184.953-8.446l42.717-63.867a111.313 111.313 0 0 1-37.26-36.978l-63.85 42.7a189.186 189.186 0 0 0 58.393 58.145zm-66.915-72.963l64.458-43.108A110.6 110.6 0 0 1 145.11 224c0-14.719 2.933-28.747 8.138-41.591l-64.583-43.192C75.704 164.699 68.34 193.504 68.34 224c0 30.897 7.556 60.052 20.842 85.784zm7.922-185.445l63.867 42.709a111.236 111.236 0 0 1 37.302-37.602l-42.699-63.842a188.984 188.984 0 0 0-58.47 58.735zm73.297-67.248l43.117 64.475a110.471 110.471 0 0 1 42.467-8.456h.016c15.061 0 29.406 3.032 42.5 8.472l43.117-64.483c-25.69-13.236-54.778-20.759-85.616-20.759-30.831 0-59.912 7.523-85.601 20.751zm186.043 8.521l-42.699 63.85a111.271 111.271 0 0 1 37.227 37.502l63.867-42.717a189.15 189.15 0 0 0-58.395-58.635z"/><glyph unicode="" d="M256 437.25c-117.779 0-213.25-95.471-213.25-213.25 0-117.771 95.471-213.25 213.25-213.25S469.25 106.229 469.25 224c0 117.779-95.471 213.25-213.25 213.25zm0-409.44C147.817 27.81 59.81 115.817 59.81 224S147.817 420.19 256 420.19 452.19 332.183 452.19 224c0-108.183-88.007-196.19-196.19-196.19zm-.724 307.988c-43.3 0-67.474-26.756-67.782-69.148h18.809c-.591 30.754 15.528 53.32 48.073 53.32 23.283 0 42.692-16.419 42.692-40.301 0-15.527-8.364-28.064-19.409-38.518-22.683-21.059-29.047-30.955-30.189-59.801h19.051c1.125 26.156.542 25.631 23.375 48.456 15.227 14.328 25.973 28.672 25.973 50.764 0 34.628-27.465 55.228-60.593 55.228zM256 147.221c-9.413 0-17.06-7.639-17.06-17.051 0-9.43 7.647-17.06 17.06-17.06 9.421 0 17.06 7.63 17.06 17.06 0 9.413-7.639 17.051-17.06 17.051z"/><glyph unicode="" d="M452.19 249.59V44.87h-85.3v375.32h-17.06V44.87h-85.3v255.9h-17.06V44.87h-85.3v102.36h-17.06V44.87H59.885v153.54h-17.06V44.87h-.075V27.81h426.5v221.78z"/><glyph unicode="" d="M51.28 428.72V19.28h409.44v409.44H51.28zm392.38-17.06v-73.497L331.296 176.06l-77.037 60.877-85.7-119.986-50.596 33.728L68.34 92.834V411.66h375.32zM68.34 36.34v30.296l52.738 61.468 51.763-34.512 84.9 118.854 77.237-61.026L443.66 308.217V36.34H68.34z"/><glyph unicode="" d="M447.925 462.84c-23.516 0-42.65-19.126-42.65-42.634 0-14.819 7.614-27.88 19.118-35.527l-80.644-212.551c-2.232.367-4.481.692-6.805.692-10.221 0-19.484-3.765-26.84-9.78l-80.693 66.649c3.182 5.972 5.156 12.678 5.156 19.9 0 23.516-19.134 42.65-42.65 42.65s-42.65-19.135-42.65-42.65c0-12.704 5.698-24.008 14.544-31.83L77.828 67.994c-4.339 1.491-8.904 2.474-13.744 2.474-23.524 0-42.659-19.126-42.659-42.633 0-23.533 19.134-42.675 42.659-42.675 23.516 0 42.641 19.142 42.641 42.675 0 12.537-5.539 23.707-14.185 31.521l86.075 149.925c4.215-1.4 8.63-2.341 13.303-2.341 10.122 0 19.301 3.69 26.623 9.596l80.777-66.716c-3.099-5.915-5.023-12.529-5.023-19.651 0-23.516 19.135-42.65 42.65-42.65 23.516 0 42.65 19.134 42.65 42.65 0 15.136-7.98 28.364-19.892 35.944l80.518 212.201c2.508-.458 5.065-.775 7.705-.775 23.516 0 42.65 19.142 42.65 42.666-.001 23.509-19.135 42.635-42.651 42.635zM64.084 2.22c-14.111 0-25.599 11.487-25.599 25.615 0 14.103 11.487 25.573 25.599 25.573 14.103 0 25.581-11.47 25.581-25.573 0-14.128-11.479-25.615-25.581-25.615zM191.917 224c-14.111 0-25.59 11.479-25.59 25.59s11.479 25.59 25.59 25.59 25.59-11.479 25.59-25.59S206.028 224 191.917 224zm145.027-119.42c-14.111 0-25.59 11.479-25.59 25.59s11.479 25.59 25.59 25.59 25.59-11.479 25.59-25.59-11.479-25.59-25.59-25.59zM447.925 394.6c-14.111 0-25.59 11.486-25.59 25.606 0 14.103 11.479 25.574 25.59 25.574s25.59-11.471 25.59-25.574c0-14.12-11.479-25.606-25.59-25.606z"/><glyph unicode="" d="M469.254 224c0 114.897-90.915 208.552-204.728 213.033v.217h-17.06v-.217C133.652 432.552 42.746 338.897 42.746 224c0-117.787 95.479-213.25 213.25-213.25 41.371 0 79.956 11.82 112.664 32.203l.117-.166 6.347 4.315c.084.049.15.091.217.142l7.547 5.123-.116.166C435.234 91.376 469.254 153.702 469.254 224zm-33.77 79.094l-170.958-66.616v183.495c76.391-3.291 141.57-50.455 170.958-116.879zM255.996 27.81c-108.183 0-196.19 88.007-196.19 196.19 0 105.316 83.425 191.483 187.66 195.973V221.375L359.031 57.132C329.055 38.564 293.769 27.81 255.996 27.81zm117.146 38.901L269.066 219.943 441.681 287.2a195.06 195.06 0 0 0 10.512-63.2c.001-64.309-31.103-121.486-79.051-157.289z"/><glyph unicode="" d="M256 437.25h-.266c-.084 0-.167-.017-.25-.017C137.938 436.967 42.75 341.604 42.75 224c0-117.571 95.188-212.951 212.734-213.234.083 0 .166-.016.25-.016H256c117.754 0 213.25 95.496 213.25 213.25 0 117.77-95.496 213.25-213.25 213.25zm8.53-127.617c22.608.617 44.608 3.599 65.791 8.764 6.389-25.14 10.346-54.113 10.97-85.866H264.53v77.102zm0 17.06v92.148c22.999-6.364 46.291-37.019 61.143-84.034-19.701-4.749-40.143-7.515-61.143-8.114zm-17.06 92.347v-92.347c-21.175.6-41.783 3.415-61.634 8.247 14.969 47.297 38.484 78.069 61.634 84.1zm0-109.39v-77.12h-77.295c.624 31.804 4.598 60.81 10.988 85.966a313.903 313.903 0 0 1 66.307-8.846zm-94.463-77.12h-92.98c1.883 43.849 18.218 84.033 44.374 115.854 18.993-10.463 39.143-19.026 60.252-25.424-6.89-27.205-11.022-57.876-11.646-90.43zm0-17.06c.624-32.538 4.756-63.209 11.645-90.415a314.238 314.238 0 0 1-60.252-25.44C78.244 131.436 61.909 171.62 60.027 215.47h92.98zm17.168 0h77.295v-77.02a312.968 312.968 0 0 1-66.316-8.881c-6.389 25.141-10.354 54.129-10.979 85.901zm77.295-94.064V28.959c-23.166 6.048-46.698 36.852-61.659 84.201 19.859 4.831 40.476 7.647 61.659 8.246zm17.06-92.247v92.247a297.011 297.011 0 0 0 61.159-8.13c-14.844-47.048-38.151-77.752-61.159-84.117zm0 109.291v77.02h76.761c-.624-31.721-4.581-60.66-10.946-85.784-21.199 5.165-43.199 8.164-65.815 8.764zm93.93 77.02h93.514c-1.883-43.85-18.209-84.018-44.366-115.838-19.151 10.529-39.467 19.159-60.759 25.59 6.872 27.172 10.986 57.777 11.611 90.248zm0 17.06c-.624 32.521-4.748 63.142-11.629 90.331a314.95 314.95 0 0 1 60.727 25.573c26.181-31.82 42.525-72.021 44.416-115.904H358.46zm37.344 128.933c-16.969-9.03-34.887-16.494-53.596-22.158-9.972 32.088-23.974 58.278-40.526 75.471 36.319-8.714 68.748-27.507 94.122-53.313zm-186.161 53.146c-16.468-17.161-30.404-43.233-40.343-75.154a297.106 297.106 0 0 0-53.104 22.008c25.207 25.639 57.395 44.382 93.447 53.146zM116.138 86.603a296.285 296.285 0 0 0 53.146 22.025c9.937-31.954 23.874-58.061 40.359-75.237-36.078 8.779-68.281 27.539-93.505 53.212zm185.536-53.362c16.577 17.193 30.58 43.4 40.559 75.537a296.828 296.828 0 0 0 53.62-22.191c-25.373-25.824-57.827-44.65-94.179-53.346z"/><glyph unicode="" d="M299.616 419.624L277.608 241.06h97.411L212.384 28.376l22.009 178.563h-97.412l162.635 212.685zM324.24 479.9L102.46 189.88h112.639L187.76-31.9l221.78 290.02H296.901L324.24 479.9z"/><glyph unicode="" d="M499.105 236.786h-5.107c-6.322 52.847-51.238 93.83-105.783 93.83-50.68 0-93.014-35.386-103.851-82.776l-24.416 12.754a8.586 8.586 0 0 1-7.896 0l-24.415-12.754c-10.837 47.399-53.171 82.785-103.851 82.785-54.554 0-99.453-40.984-105.784-93.83h-5.106c-7.065 0-12.795-5.731-12.795-12.804 0-7.055 5.73-12.786 12.795-12.786h5.106c6.331-52.846 51.23-93.83 105.784-93.83 58.885 0 106.625 47.731 106.625 106.625 0 1.982-.192 3.924-.3 5.881L256 243.409l25.889-13.528c-.108-1.958-.299-3.899-.299-5.881 0-58.885 47.739-106.625 106.625-106.625 54.545 0 99.444 40.984 105.783 93.821h5.107c7.064 0 12.795 5.731 12.795 12.795s-5.731 12.795-12.795 12.795zm-375.32-102.351c-49.39 0-89.565 40.176-89.565 89.565s40.175 89.565 89.565 89.565c49.389 0 89.565-40.175 89.565-89.565s-40.176-89.565-89.565-89.565zm264.43 0c-49.39 0-89.565 40.176-89.565 89.565 0 49.381 40.175 89.556 89.565 89.556S477.78 273.381 477.78 224c0-49.389-40.176-89.565-89.565-89.565z"/><glyph unicode="" d="M360.7 326.368c14.22 12.512 23.25 30.788 23.25 51.164 0 37.627-30.613 68.24-68.24 68.24-25.673 0-48.064-14.27-59.71-35.278-11.645 21.009-34.037 35.278-59.71 35.278-37.627 0-68.24-30.613-68.24-68.24 0-20.376 9.03-38.652 23.249-51.164H51.28V2.228h409.44v324.14H360.7zm82.96-17.06v-136.48H264.53v136.48h10.896l41.409-72.472 14.811 8.463-36.578 64.008H443.66zM256 343.295l9.671-16.927h-19.343L256 343.295zm59.71 85.417c28.222 0 51.18-22.958 51.18-51.18 0-28.214-22.958-51.164-51.18-51.164s-51.18 22.95-51.18 51.164c0 28.222 22.957 51.18 51.18 51.18zm-170.6-51.18c0 28.222 22.957 51.18 51.18 51.18 28.222 0 51.18-22.958 51.18-51.18 0-28.214-22.958-51.164-51.18-51.164-28.223 0-51.18 22.95-51.18 51.164zm71.822-68.224L180.355 245.3l14.811-8.463 41.409 72.472h10.896v-136.48H68.34v136.48h148.592zM68.34 155.768h179.13V19.288H68.34v136.48zm196.19-136.48v136.48h179.13V19.288H264.53z"/><glyph unicode="" d="M426.6 356.215H204.82v8.53c0 18.843-15.277 34.12-34.12 34.12H85.4c-18.843 0-34.12-15.277-34.12-34.12V83.255c0-18.842 15.277-34.12 34.12-34.12h341.2c18.843 0 34.12 15.278 34.12 34.12v238.84c0 18.843-15.277 34.12-34.12 34.12zm-358.26 8.53c0 9.405 7.656 17.06 17.06 17.06h85.3c9.404 0 17.06-7.655 17.06-17.06v-25.59H426.6c9.404 0 17.06-7.655 17.06-17.06v-17.06H68.34v59.71zM426.6 66.195H85.4c-9.404 0-17.06 7.656-17.06 17.06v204.72h375.32V83.255c0-9.404-7.656-17.06-17.06-17.06z"/><glyph unicode="" d="M409.531 406.372l-11.346-3.956c-.299-.101-31.03-10.629-79.618-10.629-24.757 0-48.332 5.022-71.122 9.879-23.05 4.914-46.89 9.995-72.131 9.995-50.33 0-67.399-10.804-69.181-12.037l-3.674-2.54V36.337h17.06V199.47c6.789 2.649 23.433 7.372 55.795 7.372 23.441 0 45.366-4.673 68.574-9.621 23.657-5.048 48.123-10.262 74.679-10.262 51.729 0 83.925 11.112 85.274 11.587l5.698 2.007-.008 205.819zM392.48 212.948c-11.037-3.007-37.443-8.929-73.912-8.929-24.757 0-48.332 5.022-71.122 9.888-23.05 4.914-46.89 9.995-72.131 9.995-27.63 0-45.241-3.257-55.795-6.406v169.75c6.831 2.649 23.516 7.355 55.795 7.355 23.441 0 45.366-4.673 68.574-9.621 23.657-5.04 48.123-10.254 74.679-10.254 34.361 0 60.102 4.906 73.912 8.338V212.948z"/><glyph unicode="" d="M307.18 27.81H204.728v166.361L34.153 420.19h443.693L307.18 194.171V27.81zm-85.392 17.06h68.332v155.015L443.593 403.13H68.407l153.381-203.245V44.87z"/><glyph unicode="" d="M405.208 283.777L260.265 428.72h-153.54V19.28h298.55v264.471l-.067.026zM260.265 404.595L372.621 292.24H260.265v112.355zM123.785 36.34v375.32h119.42V275.18h145.01V36.34h-264.43z"/><glyph unicode="" d="M179.23 411.66v17.06H51.28V300.77h17.06v98.829l121.411-121.411 12.062 12.061L80.402 411.66zm153.54 17.06v-17.06h98.828L310.187 290.249l12.062-12.061L443.66 399.599V300.77h17.06v127.95zM189.751 169.813L68.34 48.402v98.828H51.28V19.28h127.95v17.06H80.402l121.411 121.411zM443.66 48.402L322.249 169.813l-12.062-12.062L431.598 36.34H332.77V19.28h127.95v127.95h-17.06z"/><glyph unicode="" d="M51.28 19.28h170.6v170.617H51.28V19.28zm17.06 153.557h136.48V36.34H68.34v136.497zM375.42 224h17.06v136.48H256v-17.06h108.191L238.115 217.345l12.062-12.062L375.42 330.525zM51.28 428.72V224h17.06v187.66h375.32V36.34H256V19.28h204.72v409.44z"/><glyph unicode="" d="M452.19 386.078c0 23.558-19.1 42.642-42.65 42.642-23.557 0-42.65-19.084-42.65-42.642 0-20.625 14.653-37.835 34.12-41.792V53.4h17.06v290.886c19.467 3.957 34.12 21.167 34.12 41.792zm-42.65-25.59c-14.111 0-25.59 11.479-25.59 25.59 0 14.104 11.479 25.582 25.59 25.582s25.59-11.479 25.59-25.582c0-14.112-11.479-25.59-25.59-25.59zM110.99 103.722V394.6H93.93V103.722C74.463 99.765 59.81 82.563 59.81 61.93c0-23.55 19.101-42.65 42.65-42.65 23.55 0 42.65 19.1 42.65 42.65 0 20.633-14.653 37.835-34.12 41.792zm-8.53-67.382c-14.111 0-25.59 11.479-25.59 25.59s11.479 25.59 25.59 25.59 25.59-11.479 25.59-25.59-11.479-25.59-25.59-25.59zm162.07 229.452V394.6h-17.06V265.792c-19.467-3.957-34.12-21.167-34.12-41.792s14.653-37.836 34.12-41.793V53.4h17.06v128.807c19.467 3.957 34.12 21.167 34.12 41.793s-14.653 37.835-34.12 41.792zM256 198.41c-14.111 0-25.59 11.479-25.59 25.59s11.479 25.59 25.59 25.59 25.59-11.479 25.59-25.59-11.479-25.59-25.59-25.59z"/><glyph unicode="" d="M397.428 226.362a8.555 8.555 0 0 1-1.883 3.524L256 462.619l-19.934-33.237h.025L115.688 228.61a8.274 8.274 0 0 1-.725-1.549c-13.761-24.324-21.033-51.813-21.033-79.61 0-89.365 72.705-162.07 162.079-162.07 89.365 0 162.061 72.705 162.061 162.07 0 27.531-7.13 54.753-20.642 78.911zM256.009 2.441c-79.96 0-145.019 65.05-145.019 145.01 0 25.34 6.764 50.413 19.559 72.496.242.409.433.833.6 1.267L256 429.416l124.835-208.177c.167-.442.374-.875.617-1.291 12.795-22.083 19.558-47.156 19.558-72.496 0-79.961-65.049-145.011-145.001-145.011z"/><glyph unicode="" d="M376.086 369.01H136.58L42.75 266.65V78.99h426.5v187.66l-93.164 102.36zm-232-17.06h224.462l77.637-85.3H315.71c0-31.946-27.764-57.752-59.71-57.752s-59.71 25.807-59.71 57.752H65.9l78.186 85.3zM452.19 96.05H59.81v153.54h121.528c8.163-32.654 39.051-57.752 74.662-57.752s66.499 25.099 74.662 57.752H452.19V96.05z"/><glyph unicode="" d="M181.362 266.966L169.3 254.904l86.7-86.7 86.7 86.7-12.062 12.062-66.108-66.108v270.036h-17.06V200.858zM298.65 385.594v-17.06h110.89V78.514H102.46v290.02h110.89v17.06H85.4V61.454h341.2v324.14z"/><glyph unicode="" d="M486.31 415.925H25.69v-17.06h34.12V91.785h187.66v-42.65H110.99v-17.06h290.02v17.06H264.53v42.65h187.66v307.08h34.12v17.06zm-51.18-307.08H76.87v290.02h358.26v-290.02zm-204.72 238.84H128.05v-102.36h102.36v102.36zm-17.06-85.3h-68.24v68.24h68.24v-68.24zm51.18 0h119.42v-17.06H264.53v17.06zm0 85.3h119.42v-17.06H264.53v17.06zm0-42.65h119.42v-17.06H264.53v17.06zm-136.48-93.83h255.9v-17.06h-255.9v17.06zm0-51.18h255.9v-17.06h-255.9v17.06z"/><glyph unicode="" d="M477.78 116.825v307.08H34.22v-307.08h213.25V83.829l-80.901-44.807 8.263-14.927L256 69.061l81.169-44.966 8.263 14.927-80.902 44.807v32.996h213.25zm-426.5 290.02h409.44v-272.96H51.28v272.96zm193.425-173.674l-50.589 70.556-33.853-65.641-53.229 107.408-38.86-143.435 16.46-4.466 27.097 100.003 48.231-97.312 36.536 70.84 54.621-76.171 47.173 158.272-16.344 4.881zm130.724 88.374c-28.222 0-51.189-22.958-51.189-51.18s22.966-51.18 51.189-51.18c28.214 0 51.171 22.958 51.171 51.18s-22.958 51.18-51.171 51.18zm0-85.3c-18.818 0-34.129 15.302-34.129 34.12s15.311 34.12 34.129 34.12c18.81 0 34.111-15.302 34.111-34.12s-15.302-34.12-34.111-34.12z"/><glyph unicode="" d="M375.42 428.72H51.28V19.28h409.44v324.14l-85.3 85.3zm-34.12-17.06V292.24H170.7v119.42h170.6zM443.66 36.34H68.34v375.32h85.3V275.18h204.72v136.48h9.996l75.304-75.304V36.34zm-153.206 341.2h17.06v-51.18h-17.06v51.18zM170.7 155.76h170.6V138.7H170.7v17.06zm0-51.18h170.6V87.52H170.7v17.06z"/><glyph unicode="" d="M51.28 428.72V19.28h409.44v409.44H51.28zm392.38-17.06v-76.77H68.34v76.77h375.32zM68.34 36.34v281.49h375.32V36.34H68.34zm110.882 349.73h25.598v-25.59h-25.598v25.59zm127.958 0h25.59v-25.59h-25.59v25.59zM197.564 257.136c-3.057-20.759-12.928-21.117-32.795-21.833l-3.082-.117v-14.469h33.662v-94.622h17.859v133.774h-15.244l-.4-2.733zm100.703-40.208c-7.93 0-16.077-2.591-22.533-6.931l6.073 31.279h56.237v16.953h-69.548l-13.57-72.447h15.435l.942 1.474c5.398 8.405 15.235 13.628 25.69 13.628 17.018 0 29.372-12.587 29.372-29.922 0-15.677-9.839-31.554-28.639-31.554-16.069 0-27.622 10.845-28.097 26.381l-.1 3.099h-17.843l.075-3.274c.574-25.274 18.676-42.25 45.049-42.25 26.59 0 47.415 20.35 47.415 46.324-.001 28.255-18.468 47.24-45.958 47.24z"/><glyph unicode="" d="M452.19 437.208c-.624 0-1.199-.15-1.816-.183H401.01v.183l-339.384-.183c-.617.033-1.192.183-1.816.183-18.843 0-34.12-15.277-34.12-34.12 0-9.479 3.873-18.043 10.112-24.223l75.188-75.188v5.573c0-77.203 60.385-140.145 136.48-144.577V27.852h-68.24v-17.06h153.54v17.06h-68.24v136.821c76.095 4.431 136.48 67.373 136.48 144.577v-5.573l75.187 75.188c6.24 6.181 10.113 14.744 10.113 24.223 0 18.843-15.277 34.12-34.12 34.12zm-341.2-109.407l-63.183 63.184c-3.258 3.232-5.057 7.53-5.057 12.103 0 9.171 7.272 16.677 16.361 17.043a20.09 20.09 0 0 1 1.591-.142l.467-.025h49.822v-92.163zm272.96-18.551c0-70.556-57.403-127.95-127.95-127.95s-127.95 57.394-127.95 127.95v110.898h255.9V309.25zm80.243 81.735l-63.183-63.184v92.164l50.289.025a20.09 20.09 0 0 1 1.591.142c9.089-.366 16.361-7.871 16.361-17.043-.001-4.574-1.8-8.872-5.058-12.104z"/><glyph unicode="" d="M431.923 287.267h68.123L252.735 433.693 11.954 287.267h61.709v-255.9h-34.12v-17.06h426.5v17.06h-34.12v255.9zm-359.076 17.06l180.004 109.474 184.903-109.474H72.847zm17.876-272.96v255.9h51.18v-255.9h-51.18zm68.24 0v255.9h51.18v-255.9h-51.18zm68.24 0v255.9h51.18v-255.9h-51.18zm68.24 0v255.9h51.18v-255.9h-51.18zm68.24 0v255.9h51.18v-255.9h-51.18z"/><glyph unicode="" d="M401.01 87.587V364.52l31.055 30.946-12.045 12.078-30.105-30.004H111.091v51.18h-17.06v-51.18H42.75v-17.06h51.281V70.527H383.95V19.28h17.06v51.247h68.24v17.06h-68.24zM372.805 360.48L111.091 99.606V360.48h261.714zM123.203 87.587L383.95 347.509V87.586H123.203z"/><glyph unicode="" d="M460.72 377.54H51.28c-14.127 0-25.59-11.463-25.59-25.59V96.05c0-14.144 11.463-25.59 25.59-25.59h409.44c14.128 0 25.59 11.446 25.59 25.59v255.9c0 14.127-11.462 25.59-25.59 25.59zM42.75 309.3h426.5v-34.12H42.75v34.12zm426.5-213.25c0-4.707-3.823-8.53-8.53-8.53H51.28c-4.706 0-8.53 3.823-8.53 8.53v162.07h426.5V96.05zM42.75 326.36v25.59c0 4.706 3.824 8.53 8.53 8.53h409.44c4.707 0 8.53-3.824 8.53-8.53v-25.59H42.75zM76.87 138.7h170.6v-17.06H76.87v17.06zm0 51.18h102.36v-17.06H76.87v17.06zm306.83-68.24h34.637c9.271 0 16.793 7.397 16.793 16.543v1.024c0 9.138-7.522 16.552-16.793 16.552H383.7c-9.287 0-16.81-7.414-16.81-16.552v-1.024c0-9.146 7.523-16.543 16.81-16.543z"/><glyph unicode="" d="M445.523 361.835l-86.147 86.147H169.853v-68.918H66.477V.017h275.67v68.918h103.376v292.9zm-86.147 61.783l61.784-61.783h-61.784v61.783zM83.706 17.247v344.588h155.065v-86.147h86.147V17.247H83.706zM256 354.7l61.784-61.783H256V354.7zm86.147-268.535v206.753L256 379.065h-68.918v51.688h155.065v-86.147h86.147V86.165h-86.147z"/><glyph unicode="" d="M281.59 420.19v-41.576l12.795-3.307a152.576 152.576 0 0 0 41.051-17.301l11.446-6.947 29.755 29.754 36.186-36.185-30.213-30.205 6.506-11.329c7.214-12.561 12.612-26.165 16.027-40.425l3.14-13.078h43.909v-51.18h-44.891l-3.457-12.52a152.404 152.404 0 0 0-16.643-38.502l-6.948-11.454 32.571-32.562-36.186-36.185-33.029 33.021-11.32-6.506c-11.746-6.756-24.499-11.921-37.894-15.378l-12.804-3.299V27.811h-51.18v47.215l-12.804 3.299c-13.395 3.457-26.148 8.622-37.894 15.378l-11.329 6.506-33.02-33.029-36.186 36.194 32.571 32.562-6.948 11.454a152.404 152.404 0 0 0-16.643 38.502l-3.457 12.52H59.81v51.18h43.909l3.14 13.078c3.415 14.26 8.813 27.864 16.027 40.425l6.506 11.329-30.213 30.205 36.186 36.185 29.755-29.754 11.446 6.947a152.544 152.544 0 0 0 41.051 17.301l12.795 3.307v41.575h51.178zM256 147.213c42.334 0 76.77 34.445 76.77 76.787 0 42.333-34.436 76.778-76.77 76.778S179.23 266.333 179.23 224c0-42.342 34.436-76.787 76.77-76.787zm42.65 290.037h-85.3v-45.424a169.494 169.494 0 0 1-45.632-19.234l-32.354 32.353-60.31-60.317 33.038-33.038c-7.972-13.877-13.995-28.964-17.827-44.94H42.75v-85.3h48.964a169.41 169.41 0 0 1 18.502-42.817l-35.162-35.161 60.31-60.326 35.852 35.861c13.062-7.506 27.198-13.253 42.134-17.102V10.75h85.3v51.055c14.936 3.849 29.072 9.596 42.134 17.102l35.853-35.852 60.31 60.317-35.162 35.161a169.462 169.462 0 0 1 18.502 42.817h48.964v85.3h-47.515c-3.832 15.977-9.855 31.063-17.827 44.94l33.038 33.038-60.31 60.317-32.354-32.353a169.508 169.508 0 0 1-45.632 19.234v45.424h-.001zM256 164.273c-32.987 0-59.71 26.74-59.71 59.727 0 32.986 26.723 59.718 59.71 59.718s59.71-26.731 59.71-59.718-26.723-59.727-59.71-59.727z"/><glyph unicode="" d="M287.871 392.118c6.631 7.513 10.779 17.277 10.779 28.081 0 23.549-19.084 42.641-42.65 42.641-23.557 0-42.65-19.093-42.65-42.641 0-10.804 4.148-20.568 10.779-28.081C126.209 376.807 51.28 292.107 51.28 189.88 51.28 76.807 142.944-14.84 256-14.84s204.72 91.647 204.72 204.72c0 102.218-74.929 186.927-172.849 202.238zM256 445.78c14.111 0 25.59-11.479 25.59-25.581s-11.479-25.582-25.59-25.582-25.59 11.479-25.59 25.581S241.889 445.78 256 445.78zm0-443.56c-103.477 0-187.66 84.183-187.66 187.66S152.523 377.54 256 377.54s187.66-84.183 187.66-187.66S359.477 2.22 256 2.22zM153.682 87.387l138.804 65.741 65.75 138.812-139.263-65.299-65.291-139.254zm74.271 118.212l43.542-43.541-82.21-38.935 38.668 82.476zm55.603-31.48l-43.541 43.541 82.484 38.677-38.943-82.218z"/><glyph unicode="" d="M426.625 402.876H85.375c-18.843 0-34.12-15.277-34.12-34.12V146.86c0-18.843 15.277-34.12 34.12-34.12h239.49l67.615-67.616v67.616h34.146c18.842 0 34.12 15.277 34.12 34.12v221.896c-.001 18.843-15.279 34.12-34.121 34.12zm17.06-256.016c0-9.405-7.656-17.06-17.06-17.06H375.42V86.308L331.929 129.8H85.375c-9.404 0-17.06 7.655-17.06 17.06v221.896c0 9.405 7.656 17.06 17.06 17.06h341.25c9.404 0 17.06-7.655 17.06-17.06V146.86zM256 274.81c-9.421 0-17.06-7.647-17.06-17.06 0-9.421 7.639-17.06 17.06-17.06s17.06 7.639 17.06 17.06c0 9.413-7.639 17.06-17.06 17.06zm68.24 0c-9.421 0-17.06-7.647-17.06-17.06 0-9.421 7.639-17.06 17.06-17.06s17.06 7.639 17.06 17.06c0 9.413-7.639 17.06-17.06 17.06zm-134.873 0c-9.421 0-17.06-7.647-17.06-17.06 0-9.421 7.639-17.06 17.06-17.06s17.06 7.639 17.06 17.06c0 9.413-7.638 17.06-17.06 17.06z"/><glyph unicode="" d="M383.517 164.29h68.673v136.48H59.81V172.82c0-89.507 72.563-162.07 162.07-162.07 86.625 0 157.181 68.023 161.637 153.54zm.433 119.42h51.18V181.35h-51.18v102.36zM221.88 27.81c-79.96 0-145.01 65.049-145.01 145.01v110.89h290.02V172.82c0-79.961-65.05-145.01-145.01-145.01zM59.81-6.31h324.14v17.06H59.81zm85.3 435.03h17.06v-76.77h-17.06v76.77zm136.48 0h17.06v-76.77h-17.06v76.77zm-68.24 25.59h17.06V351.95h-17.06v102.36z"/><glyph unicode="" d="M286.301 368.885c63.5 0 115.155-51.647 115.155-115.155 0-.35-.042-.717-.067-1.066-.049-.85-.108-1.699-.125-2.566l-.433-17.41 17.435-.067c42.2-.117 76.528-34.553 76.528-76.754 0-42.084-34.262-76.52-76.37-76.737l-3.723-.016h-312.27c-46.99.049-85.225 38.301-85.225 85.283 0 36.403 23.174 68.806 57.653 80.636l9.596 3.281 1.691 9.996c4.181 24.674 25.373 42.583 50.388 42.583 7.972 0 15.677-1.849 22.9-5.481l15.553-7.813 7.505 15.693c19.067 39.853 59.817 65.593 103.809 65.593zm0 17.06c-52.613 0-97.912-30.804-119.196-75.287-9.205 4.632-19.567 7.297-30.572 7.297-33.769 0-61.742-24.574-67.207-56.794C29.11 247.366.146 209.314.146 164.398c0-56.494 45.79-102.293 102.268-102.343l316.102.016c51.596.267 93.338 42.15 93.338 93.797 0 51.73-41.841 93.664-93.538 93.814.033 1.366.2 2.682.2 4.048 0 73.021-59.194 132.215-132.215 132.215z"/><glyph unicode="" d="M256 428.72c-113.056 0-204.72-91.664-204.72-204.72 0-113.057 91.664-204.72 204.72-204.72S460.72 110.943 460.72 224c0 113.056-91.664 204.72-204.72 204.72zm0-392.38C152.523 36.34 68.34 120.523 68.34 224c0 103.476 84.183 187.66 187.66 187.66S443.66 327.476 443.66 224c0-103.477-84.183-187.66-187.66-187.66zm0 170.6H153.64v-17.06h119.42v169.9H256z"/><glyph unicode="" d="M256 437.25c-117.77 0-213.25-95.471-213.25-213.25S138.23 10.75 256 10.75c117.771 0 213.25 95.471 213.25 213.25S373.771 437.25 256 437.25zm0-409.44C147.817 27.81 59.81 115.825 59.81 224c0 108.174 88.007 196.19 196.19 196.19S452.19 332.174 452.19 224c0-108.175-88.007-196.19-196.19-196.19zm106.675 272.327l-136.938-132.79-47.973 47.964c-4.999 4.999-13.095 4.999-18.093 0-4.999-4.998-4.999-13.094 0-18.093l56.877-56.877a12.755 12.755 0 0 1 9.047-3.749c3.207 0 6.422 1.199 8.904 3.607L380.484 281.76c5.073 4.923 5.198 13.019.283 18.093-4.938 5.082-13.027 5.198-18.092.284z"/><glyph unicode="" d="M341.3 309.296v127.95H42.75v-230.31H170.7V78.986h177.015l68.24-68.231H426.6v68.231h42.65v230.31H341.3zm-281.49-85.3v196.19h264.43v-110.89H170.7v-85.3H59.81zm392.38-127.95h-42.65V41.292l-54.762 54.754H187.76v196.19h264.43V96.046z"/><glyph unicode="" d="M489.946 326.36H131.427l-28.946 119.42H22.054v-17.06h67.015l83.176-343.091c-17.735-5.165-30.771-21.351-30.771-40.759 0-23.55 19.092-42.65 42.65-42.65 23.557 0 42.65 19.1 42.65 42.65 0 9.646-3.324 18.45-8.722 25.59h119.794c-5.398-7.14-8.713-15.944-8.713-25.59 0-23.55 19.084-42.65 42.641-42.65 23.566 0 42.659 19.1 42.659 42.65 0 23.565-19.093 42.641-42.65 42.65H189.33l-8.272 34.12h239.489l69.399 204.72zM209.714 44.87c0-14.111-11.48-25.59-25.59-25.59s-25.59 11.479-25.59 25.59c0 14.11 11.479 25.59 25.59 25.59 14.11 0 25.59-11.48 25.59-25.59zm187.66 0c0-14.111-11.48-25.59-25.599-25.59-14.103 0-25.581 11.479-25.581 25.59s11.479 25.59 25.581 25.59c14.119 0 25.599-11.48 25.599-25.59zM176.926 138.7l-41.359 170.6h330.587L408.32 138.7H176.926z"/><glyph unicode="" d="M435.126 334.89H364.57l-41.017 41.117c-.049.049-.091.083-.133.133l-.075.067c-6.164 6.097-14.627 9.863-23.982 9.863h-85.3c-9.913 0-18.751-4.282-24.99-11.029l-.033.1-40.168-40.251H76.866c-18.843 0-34.12-15.278-34.12-34.12V96.05c0-18.843 15.277-34.12 34.12-34.12h358.26c18.851 0 34.129 15.277 34.129 34.12v204.72c-.001 18.842-15.278 34.12-34.129 34.12zm17.068-238.84c0-9.397-7.664-17.06-17.069-17.06H76.866c-9.404 0-17.06 7.663-17.06 17.06v204.72c0 9.413 7.656 17.06 17.06 17.06h79.077l25.656 25.706.417-1.25 19.584 21.176c3.315 3.582 7.738 5.548 12.461 5.548h85.3c4.506 0 8.771-1.75 12.112-5.048l46.015-46.132h77.637c9.404 0 17.069-7.647 17.069-17.06V96.05zM255.996 317.83c-61.243 0-110.89-49.631-110.89-110.874S194.753 96.05 255.996 96.05s110.89 49.663 110.89 110.906-49.647 110.874-110.89 110.874zm0-204.72c-51.738 0-93.83 42.1-93.83 93.846 0 51.73 42.092 93.814 93.83 93.814s93.83-42.084 93.83-93.814c0-51.746-42.092-93.846-93.83-93.846zm0 170.6c-42.409 0-76.77-34.354-76.77-76.754s34.361-76.786 76.77-76.786 76.77 34.386 76.77 76.786-34.362 76.754-76.77 76.754zm0-136.48c-32.921 0-59.71 26.806-59.71 59.726s26.789 59.694 59.71 59.694 59.71-26.773 59.71-59.694-26.79-59.726-59.71-59.726z"/><glyph unicode="" d="M374.511-6.31c-38.902 0-133.448 49.748-212.85 156.523C87.398 250.082 51.296 322.229 51.296 370.777c0 38.226 26.398 56.469 40.576 66.265l3.499 2.441c15.669 11.203 40.034 14.827 49.372 14.827 16.377 0 23.283-9.588 27.464-17.943 3.548-7.064 32.97-70.247 35.952-78.102 4.574-12.078 3.066-29.68-11.079-39.801l-2.482-1.733c-7.023-4.865-20.084-13.911-21.891-24.907-.883-5.347.908-10.937 5.473-17.093 22.774-30.688 95.488-120.794 108.599-133.031 10.271-9.596 23.283-10.962 32.146-3.49 9.171 7.731 13.245 12.295 13.286 12.345l.941.908c.775.65 7.939 6.331 19.651 6.331 8.446 0 17.043-2.916 25.531-8.655 22.05-14.894 71.797-48.173 71.797-48.173l.808-.608c6.364-5.456 15.561-21.166 4.84-41.617C444.667 37.515 410.172-6.31 374.511-6.31zM144.743 437.25c-8.08 0-27.939-3.415-39.46-11.645l-3.707-2.591c-13.228-9.147-33.22-22.958-33.22-52.238 0-44.749 35.003-113.564 106.999-210.385C253.983 54.641 343.864 10.749 374.511 10.749c26.064 0 55.945 36.411 66.157 55.904 6.273 11.97 1.141 18.717-.633 20.542-5.756 3.856-50.621 33.87-71.247 47.806-5.623 3.806-11.005 5.73-15.985 5.73-4.523 0-7.497-1.607-8.505-2.241-1.666-1.783-6.247-6.473-14.378-13.328-15.218-12.811-38.368-11.271-54.786 4.065-14.77 13.786-89.365 106.658-110.649 135.339-7.364 9.921-10.262 20.026-8.614 30.03 2.991 18.135 19.918 29.855 29.014 36.153l2.266 1.591c8.122 5.806 6.406 16.319 5.057 19.876-2.516 6.623-31.563 69.156-35.244 76.503-3.016 6.016-5.382 8.531-12.221 8.531z"/><glyph unicode="" d="M136.58 317.83h238.84v68.24H136.58v-68.24zm17.06 51.18h204.72v-34.12H153.64v34.12zm221.78 59.71H136.58c-18.843 0-34.12-15.277-34.12-34.12V53.4c0-18.843 15.277-34.12 34.12-34.12h238.84c18.843 0 34.12 15.277 34.12 34.12v341.2c0 18.843-15.277 34.12-34.12 34.12zM392.48 53.4c0-9.413-7.655-17.06-17.06-17.06H136.58c-9.404 0-17.06 7.647-17.06 17.06v341.2c0 9.397 7.656 17.06 17.06 17.06h238.84c9.405 0 17.06-7.663 17.06-17.06V53.4zM153.64 241.06v51.18h-17.06V224h68.24v17.06h-17.06zm0-85.3v51.18h-17.06V138.7h68.24v17.06h-17.06zm0-85.3v51.18h-17.06V53.4h68.24v17.06h-17.06zm85.3 170.6v51.18h-17.06V224h68.24v17.06h-17.06zm85.3 0v51.18h-17.06V224h68.24v17.06h-17.06zm-85.3-85.3v51.18h-17.06V138.7h68.24v17.06h-17.06zm0-85.3v51.18h-17.06V53.4h68.24v17.06h-17.06zm85.3 0v136.48h-17.06V53.4h68.24v17.06h-17.06z"/><glyph unicode="" d="M42.746 437.25V10.75h426.508v426.5H42.746zm409.448-17.06v-68.24H59.806v68.24h392.388zM59.806 27.81v307.08h392.388V27.81H59.806zm93.83 366.79h264.438v-17.06H153.636v17.06zm-68.24 0h17.06v-17.06h-17.06v17.06zm34.12 0h17.06v-17.06h-17.06v17.06z"/><glyph unicode="" d="M477.93 383.592L256 465.185 25.69 380.652V66.374L256-17.185l230.31 83.559v314.144l-8.38 3.074zM247.47 4.065L42.75 78.337v283.947l204.72-74.272V4.065zM256 303.074L58.778 374.628 256 447.009l197.04-72.447L256 303.074zM469.25 78.337L264.53 4.065v283.948l204.72 73.971V78.337z"/><glyph unicode="" d="M460.72 415.925H51.28v-110.89h17.069V32.075H443.66v272.96h17.06v110.89zM426.6 49.135H85.409v255.9H426.6v-255.9zm17.06 272.96H68.34v76.77h375.32v-76.77zM194.299 194.071h123.818c17.627 0 31.93 13.886 31.93 31.03v6.181c0 17.143-14.303 31.03-31.93 31.03H194.299c-17.635 0-31.913-13.887-31.913-31.03v-6.181c.001-17.144 14.278-31.03 31.913-31.03zm-14.852 37.21c0 7.705 6.664 13.97 14.853 13.97h123.818c8.197 0 14.87-6.264 14.87-13.97V225.1c0-7.706-6.672-13.97-14.87-13.97H194.299c-8.189 0-14.853 6.264-14.853 13.97v6.181z"/><glyph unicode="" d="M435.155 420.248h-153.54c-10.262 0-19.359-4.623-25.606-11.804-6.264 7.181-15.361 11.804-25.623 11.804H76.845c-18.843 0-34.12-15.277-34.12-34.12V95.991c0-18.843 15.277-34.12 34.12-34.12h153.54c.166 0 .333.05.5.05 9.079-.217 16.393-7.539 16.61-16.602V27.751h17.06v9.463h.167v7.689c0 9.221 7.363 16.718 16.527 17.01.116 0 .25-.042.366-.042h153.54c18.843 0 34.12 15.277 34.12 34.12v290.137c0 18.843-15.278 34.12-34.12 34.12zM59.785 95.992v290.136c0 9.404 7.663 17.06 17.06 17.06h153.54c9.413 0 17.06-7.656 17.06-17.06V95.991c0-9.404-7.647-17.06-17.06-17.06H76.845c-9.396.001-17.06 7.656-17.06 17.061zm392.43 0c0-9.404-7.647-17.06-17.06-17.06h-153.54c-9.396 0-17.06 7.656-17.06 17.06v290.136c0 9.404 7.664 17.06 17.06 17.06h153.54c9.413 0 17.06-7.656 17.06-17.06V95.992z"/><glyph unicode="" d="M418.07 270.927c-11.795 0-23.04-2.283-33.445-6.264l-41.983 83.026h32.778v17.06h-60.518l17.252-34.12H184.379l-8.614 17.06h29.055v17.06h-56.777l19.184-37.993c-.1-.142-.233-.258-.316-.408l-36.169-62.959a93.351 93.351 0 0 1-36.811 7.539c-51.738 0-93.83-42.092-93.83-93.839 0-51.738 42.092-93.83 93.83-93.83 48.856 0 89.074 37.552 93.398 85.3h69.831a8.537 8.537 0 0 1 7.38 4.249l78.769 135.755 26.015-51.446c-26.981-16.494-45.083-46.149-45.083-80.028 0-51.746 42.092-93.838 93.83-93.838s93.83 42.091 93.83 93.838-42.092 93.838-93.831 93.838zm-241.68 37.677l62.101-122.986h-51.163c-2.632 29.047-18.526 54.296-41.584 69.631l30.646 53.355zm-6.19-122.985h-64.466l31.496 54.821c17.968-12.329 30.438-32.088 32.97-54.821zm-76.27-85.3c-42.334 0-76.77 34.436-76.77 76.77s34.436 76.779 76.77 76.779c9.972 0 19.468-1.966 28.215-5.44l-38.544-67.09c-1.516-2.641-1.508-5.889.017-8.521s4.339-4.257 7.38-4.257H170.2c-4.265-38.327-36.826-68.241-76.27-68.241zm161.179 90.24l-62.117 123.01H326.49l-71.381-123.01zm162.961-90.248c-42.334 0-76.77 34.444-76.77 76.778 0 27.231 14.295 51.139 35.737 64.775l36.119-71.439 15.227 7.697-36.011 71.222c8.047 2.875 16.677 4.523 25.698 4.523 42.334 0 76.77-34.445 76.77-76.779s-34.436-76.777-76.77-76.777z"/><glyph unicode="" d="M401.177 138.004v137.089c0 71.388-51.664 130.599-119.587 142.644v10.896c0 9.421-7.647 17.06-17.06 17.06h-17.06c-9.429 0-17.06-7.639-17.06-17.06v-10.946c-67.79-12.178-119.253-71.322-119.253-142.594V138.005L51.28 89.54V61.884h409.44V89.54l-59.543 48.464zm42.483-59.06H68.34v2.457l59.877 48.464v145.228c0 70.556 57.394 127.95 127.95 127.95 70.539 0 127.95-57.394 127.95-127.95V129.891l59.543-48.464v-2.483zM255.984 2.307c23.573 0 42.699 19.076 42.699 42.65h-85.366c.017-23.574 19.126-42.65 42.667-42.65z"/><glyph unicode="" d="M.325 309.616V138.391c0-13.961 11.321-25.281 25.274-25.281h213.566v221.78H25.598c-13.952 0-25.273-11.312-25.273-25.274zm221.78-179.446H25.598c-4.531 0-8.214 3.69-8.214 8.221v171.225c0 4.531 3.682 8.214 8.214 8.214h196.506V130.17zM511.675 224c0 28.114-22.675 50.922-50.731 51.154v34.462c0 13.961-11.312 25.274-25.274 25.274H256.225v-17.06h179.446c4.532 0 8.214-3.682 8.214-8.214V138.391c0-4.531-3.682-8.221-8.214-8.221H256.225v-17.06h179.446c13.962 0 25.274 11.32 25.274 25.281v34.454c28.056.233 50.73 23.032 50.73 51.155zm-50.73-34.079v68.157c18.601-.25 33.671-15.411 33.671-34.078-.001-18.668-15.07-33.829-33.671-34.079z"/><glyph unicode="" d="M255.983 437.25c-117.77 0-213.233-95.488-213.233-213.267 0-117.77 95.462-213.233 213.233-213.233S469.25 106.213 469.25 223.983c0 117.779-95.496 213.267-213.267 213.267zm195.99-204.737h-152.99c1.633 58.61 19.975 114.305 53.396 162.27 57.194-32.413 96.595-92.681 99.594-162.27zM255.983 420.19c28.822 0 56.162-6.298 80.835-17.493-34.57-50.397-53.462-108.824-55.062-170.184h-51.513c-1.616 61.36-20.492 119.795-55.079 170.184 24.674 11.204 52.014 17.493 80.819 17.493zm-96.362-25.407c33.42-47.948 51.763-103.651 53.395-162.27H60.027c2.982 69.589 42.4 129.866 99.594 162.27zm-99.594-179.33h153.157c-1.633-58.652-19.942-114.405-53.38-162.353-57.295 32.379-96.779 92.697-99.777 162.353zM255.983 27.81c-28.805 0-56.144 6.289-80.818 17.493 34.587 50.38 53.463 108.774 55.079 170.15h51.513c1.6-61.392 20.492-119.77 55.062-170.15-24.675-11.195-52.014-17.493-80.836-17.493zm96.163 25.274c-33.421 47.948-51.713 103.701-53.33 162.369h153.157c-2.999-69.665-42.5-129.99-99.827-162.369z"/><glyph unicode="" d="M230.231 352.708v-69.99l16.894-.166c117.354-1.133 183.462-53.33 200.68-159.105-64.467 74.571-138.805 74.605-200.506 74.622H230.23v-69.39L72.085 240.702l158.146 112.006zm17.06 33.004l-204.72-145.01 204.72-145.01v85.317c81.935-.033 157.897-4.165 222.138-118.721 0 72.755-12.02 235.292-222.138 237.324v86.1z"/><glyph unicode="" d="M255.992 424.455L25.69 23.545h460.62l-230.318 400.91zm0-34.253L456.838 40.605H55.162l200.83 349.597zm-8.53-127.817h17.06v-119.42h-17.06v119.42zm8.513-145.01c-7.064 0-12.77-5.73-12.77-12.795 0-7.047 5.707-12.778 12.77-12.778 7.089 0 12.82 5.731 12.82 12.778 0 7.065-5.73 12.795-12.82 12.795z"/><glyph unicode="" d="M480.383 87.57l-34.744 70.564-75.329-30.738 6.448-15.794 50.422 20.567c-23.216-67.906-85.958-117.52-160.762-121.061v307.323c33.646 4.206 59.71 32.853 59.71 67.648 0 37.686-30.563 68.231-68.248 68.231-37.677 0-68.232-30.546-68.232-68.231 0-34.795 26.065-63.45 59.71-67.648V11.109c-74.154 3.515-136.471 52.28-160.162 119.278l46.048-18.784 6.448 15.794-75.329 30.738L31.617 87.57l15.31-7.53 24.415 49.581C96.842 50.86 170.746-6.31 257.886-6.31c85.417 0 158.222 54.879 185.095 131.216l22.091-44.866 15.311 7.53zM206.706 386.079c0 28.214 22.958 51.171 51.172 51.171 28.222 0 51.188-22.958 51.188-51.171 0-28.222-22.965-51.18-51.188-51.18-28.213 0-51.172 22.957-51.172 51.18z"/><glyph unicode="" d="M25.69 360.48V19.28h460.62v341.2H25.69zM469.25 36.34H42.75v307.08h426.5V36.34zM59.81 394.6h392.38v-17.06H59.81v17.06zm34.12 34.12h324.14v-17.06H93.93v17.06z"/><glyph unicode="" d="M255.875 386.053c-103.66 0-187.66-84.017-187.66-187.66 0-47.032 17.351-89.998 45.949-122.935l-43.9-53.812 13.211-10.779 42.542 52.13c33.712-32.338 79.444-52.246 129.858-52.246 50.53 0 96.362 20.009 130.107 52.496L428.499 10.8l13.261 10.746-43.932 54.195c28.455 32.904 45.707 75.754 45.707 122.652 0 103.643-84.034 187.66-187.66 187.66zm0-358.243c-94.072 0-170.6 76.52-170.6 170.583 0 94.08 76.528 170.6 170.6 170.6s170.6-76.52 170.6-170.6c0-94.063-76.528-170.583-170.6-170.583zM178.73 437.25h-50.68c-47.115 0-85.3-38.185-85.3-85.3v-51.33h24.257L178.73 412.976v24.274zm-17.06-17.243L59.81 317.68v34.27c0 37.618 30.613 68.24 68.24 68.24h33.62v-.183zm222.28 17.243h-50.713v-24.274l111.74-112.356h24.274v51.33c-.001 47.115-38.203 85.3-85.301 85.3zm68.24-119.57h-.117L350.297 420.007v.183h33.653c37.627 0 68.24-30.622 68.24-68.24v-34.27zM247.47 198.41h-94.047v-17.06H264.53v153.54h-17.06z"/><glyph unicode="" d="M460.72 403.13H51.28v-255.9h138.913L102.46 44.87h307.08L321.8 147.23h138.92v255.9zM139.554 61.93l116.438 135.856L372.446 61.93H139.554zM443.66 164.29H307.171L255.991 224l-51.18-59.71H68.34v221.78h375.32V164.29z"/><glyph unicode="" d="M171.559 320.504l-12.063-12.063 84.442-84.442-84.042-84.043 12.063-12.063 84.042 84.042 84.043-84.042 12.063 12.063-84.042 84.043 84.442 84.442-12.063 12.063-84.443-84.442z"/><glyph unicode="" d="M105.211 374.789c-83.288-83.288-83.288-218.293 0-301.581s218.29-83.285 301.578.003c83.288 83.288 83.291 218.29.003 301.578s-218.293 83.288-301.581 0zM394.726 85.274C318.235 8.783 193.765 8.78 117.274 85.271s-76.491 200.964 0 277.455c76.491 76.491 200.963 76.491 277.455 0 76.49-76.491 76.487-200.961-.003-277.452zm-223.167 235.23l-12.063-12.063 84.442-84.442-84.042-84.043 12.063-12.063 84.042 84.042 84.043-84.042 12.063 12.063-84.042 84.043 84.442 84.442-12.063 12.063-84.443-84.442z"/><glyph unicode="" d="M268.271 275.051L256.2 287.122l-96.565-96.566 12.069-12.069 84.496 84.495 84.096-84.096 12.069 12.071-48.203 48.203z"/><glyph unicode="" d="M255.608 10.736c117.862 0 213.386 95.523 213.386 213.386s-95.523 213.386-213.386 213.386S42.223 341.984 42.223 224.122 137.746 10.736 255.608 10.736zm0 409.701c108.243 0 196.315-88.07 196.315-196.315 0-108.243-88.072-196.315-196.315-196.315S59.293 115.879 59.293 224.122c0 108.245 88.072 196.315 196.315 196.315zm12.187-145.386l-12.071 12.071-96.564-96.566 12.069-12.069 84.495 84.495 84.097-84.096 12.069 12.071-48.203 48.203z"/><glyph unicode="" d="M306.538 211.729l12.07 12.071-96.566 96.565-12.069-12.069 84.496-84.496-84.097-84.096 12.071-12.069 48.203 48.203z"/><glyph unicode="" d="M42.223 224.122c0-117.862 95.523-213.386 213.386-213.386s213.386 95.523 213.386 213.386-95.524 213.386-213.387 213.386S42.223 341.984 42.223 224.122zm409.7 0c0-108.243-88.07-196.315-196.315-196.315-108.243 0-196.315 88.072-196.315 196.315s88.072 196.315 196.315 196.315c108.245 0 196.315-88.072 196.315-196.315zm-145.385-12.187l12.07 12.071-96.566 96.565-12.069-12.069 84.496-84.496-84.097-84.096 12.071-12.069 48.203 48.203z"/><glyph unicode="" d="M204.679 236.271L192.608 224.2l96.567-96.565 12.069 12.069-84.496 84.496 84.096 84.096-12.07 12.069-48.203-48.203z"/><glyph unicode="" d="M468.994 224.122c0 117.862-95.523 213.386-213.386 213.386S42.223 341.984 42.223 224.122 137.746 10.736 255.609 10.736s213.385 95.524 213.385 213.386zm-409.701 0c0 108.243 88.07 196.315 196.315 196.315 108.243 0 196.315-88.072 196.315-196.315S363.851 27.807 255.608 27.807c-108.244 0-196.315 88.072-196.315 196.315zm145.386 12.187l-12.071-12.071 96.567-96.565 12.069 12.07-84.496 84.495 84.096 84.096-12.07 12.069-48.203-48.203z"/><glyph unicode="" d="M243.729 173.193l12.071-12.071 96.565 96.567-12.069 12.069-84.496-84.496-84.096 84.096-12.069-12.071 48.203-48.203z"/><glyph unicode="" d="M255.608 437.508c-117.862 0-213.386-95.523-213.386-213.386S137.745 10.736 255.608 10.736s213.386 95.523 213.386 213.386-95.523 213.386-213.386 213.386zm0-409.701c-108.243 0-196.315 88.07-196.315 196.315 0 108.243 88.072 196.315 196.315 196.315s196.315-88.072 196.315-196.315c0-108.245-88.072-196.315-196.315-196.315zm-12.187 145.386l12.071-12.071 96.565 96.567-12.069 12.069-84.496-84.496-84.096 84.096-12.069-12.071 48.203-48.203z"/><glyph unicode="" d="M192.4 221.5l-12.1 12.1 76.4 76.4 76.4-76.4-12.1-12.1-55.8 55.8V54h-17.1v223.3l-55.7-55.8zm226.7 105.4c0 1.4.2 2.7.2 4 0 73.1-59.2 132.3-132.3 132.3-52.6 0-97.9-30.8-119.2-75.3-9.2 4.6-19.6 7.3-30.6 7.3-33.8 0-61.8-24.6-67.2-56.8C29.8 324.6.8 286.5.8 241.6c0-56.5 45.8-102.3 102.3-102.3h111v17.1h-111c-47 0-85.2 38.3-85.2 85.3 0 36.4 23.2 68.8 57.7 80.7l9.6 3.3 1.7 10c4.2 24.7 25.4 42.6 50.4 42.6 8 0 15.7-1.9 22.9-5.5l15.6-7.8 7.5 15.7c19 39.7 59.7 65.4 103.7 65.4 63.5 0 115.2-51.7 115.2-115.2 0-.3 0-.7-.1-1.1-.1-.8-.1-1.7-.1-2.6l-.4-17.4 17.4-.1c42.2-.1 76.6-34.6 76.6-76.8 0-42.1-34.3-76.5-76.4-76.7H299.4v-17.1h119.9c51.6.3 93.4 42.2 93.4 93.8-.1 51.9-41.9 93.9-93.6 94z"/><glyph unicode="" d="M320.8 74.2l12.1-12.1-76.4-76.4-76.4 76.4 12.1 12.1L248 18.4v223.3h17V18.4l55.8 55.8zm98 252.7c0 1.4.2 2.7.2 4 0 73.1-59.2 132.3-132.2 132.3-52.6 0-97.9-30.8-119.2-75.3-9.2 4.6-19.6 7.3-30.6 7.3-33.8 0-61.8-24.6-67.2-56.8C29.6 324.6.6 286.5.6 241.6c0-56.5 45.8-102.3 102.3-102.3h111v17.1h-111c-47 0-85.2 38.3-85.2 85.3 0 36.4 23.2 68.8 57.7 80.7l9.6 3.3 1.7 10c4.2 24.7 25.4 42.6 50.4 42.6 8 0 15.7-1.9 22.9-5.5l15.6-7.8 7.5 15.7c19.1 39.9 59.8 65.6 103.8 65.6C350.3 446.1 402 394.5 402 331c0-.3 0-.7-.1-1.1-.1-.8-.1-1.7-.1-2.6l-.4-17.4 17.4-.1c42.2-.1 76.6-34.6 76.6-76.8 0-42.1-34.3-76.5-76.4-76.7H299.1v-17.1H419c51.6.3 93.4 42.2 93.4 93.8 0 51.8-41.9 93.8-93.6 93.9z"/><glyph unicode="" d="M268.548 307.922c-27.797 0-50.351-22.542-50.351-50.346 0-27.811 22.554-50.362 50.351-50.362 27.818 0 50.354 22.55 50.354 50.362 0 27.803-22.538 50.345-50.354 50.345zm0-83.922c-18.504 0-33.567 15.064-33.567 33.577 0 18.505 15.064 33.56 33.567 33.56 18.522 0 33.57-15.055 33.57-33.56 0-18.514-15.048-33.577-33.57-33.577zM67.136 383.452V131.687H469.96v251.765H67.136zm386.042-56.784V148.47H83.922v218.197h369.256v-39.998zm-73.236-211.766H50.353v234.98H33.568V98.117h402.825v16.786h-16.784zm-33.569-33.57H16.784v234.981H0V64.547h402.825v16.784h-16.786zM109.098 349.358h50.354v-16.784h-50.353v16.784zm0-167.319h50.354v-16.784h-50.353v16.784zm268.551 167.319h50.353v-16.784h-50.353v16.784zm0-167.319h50.353v-16.784h-50.353v16.784z" horiz-adv-x="470"/><glyph unicode="" d="M118.982-31.232v233.236L17.195 100.273 5.328 112.148l107.804 107.736L.002 332.92l11.867 11.875 107.115-107.037v241.476l138.684-138.611-120.8-120.74 116.704-116.618L118.986-31.231zm16.784 228.482V9.27l94.067 93.994-94.067 93.986zm0 241.48V242.513l98.165 98.109-98.166 98.108z" horiz-adv-x="258"/><glyph unicode="" d="M184.708 299.464h117.475l50.353 59.175-50.353 58.315H184.707v33.63h-16.784v-33.63H16.781v-117.49h151.142v-16.723H50.35L-.002 224.426l50.352-59.171h117.573V-2.589h16.784v167.844H335.75v117.486H184.708v16.722zM33.569 316.249v83.921h260.928l35.93-41.608-35.995-42.313H33.568zm285.398-50.292v-83.918H58.121L22.11 224.344l35.929 41.613h260.926zM50.23 383.452h83.922v-16.784H50.23v16.784zm167.884-134.365h83.922v-16.785h-83.922v16.785z" horiz-adv-x="353"/><glyph unicode="" d="M268.567 282.745h117.476v-16.784H268.567v16.784zm-.017-100.706h117.492v-16.784H268.55v16.784zm0 50.354h83.792v-16.785H268.55v16.785zm-16.784 151.059v50.353h-67.138v-50.353H0V14.195h436.394v369.257H251.767zm167.844-16.786v-33.568H251.766v33.569H419.61zM201.412 417.02h33.57v-83.922h-33.57v83.922zM16.785 366.666H184.63v-33.568H16.785v33.569zm0-335.687v285.334H419.61V30.979H16.785zm230.621 74.596c-12.113 5.046-40.716 14.981-58.435 20.209-1.508.474-1.736.558-1.736 6.851 0 5.18 2.129 10.408 4.21 14.834 2.244 4.812 4.934 12.89 5.884 20.144 2.689 3.13 6.343 9.277 8.72 21.005 2.049 10.327 1.097 14.088-.279 17.628-.148.37-.296.729-.41 1.098-.524 2.428.196 15.012 1.968 24.786 1.212 6.696-.311 20.952-9.54 32.743-5.82 7.452-16.964 16.6-37.341 17.87l-11.178-.008c-20.014-1.262-31.177-10.413-36.995-17.862-9.228-11.792-10.767-26.048-9.555-32.743 1.787-9.774 2.49-22.358 1.984-24.736-.097-.42-.263-.779-.408-1.149-1.361-3.541-2.328-7.301-.264-17.628 2.344-11.728 6-17.874 8.704-21.005.933-7.254 3.623-15.334 5.884-20.144 1.654-3.516 2.442-8.303 2.442-15.065 0-6.293-.246-6.37-1.656-6.82-18.308-5.409-47.468-15.94-58.334-20.694-8.622-3.697-10.72-10.334-10.72-16.318v-7.245h16.785v7.248c0 .269.016.476.032.639.147.082.344.18.624.293 10.326 4.524 38.928 14.834 56.696 20.079 13.357 4.245 13.357 16.784 13.357 22.817 0 9.293-1.279 16.358-4.031 22.228-1.688 3.582-3.754 9.93-4.428 15.137l-.654 5.007-3.293 3.82c-.508.574-3.066 3.902-4.951 13.326-1.278 6.358-.82 7.54-.558 8.228.442 1.082.82 2.163 1.163 3.688 1.476 6.786-.475 23.73-1.85 31.282-.459 2.475.197 11.677 6.245 19.419 5.31 6.794 13.506 10.634 24.357 11.412l10.064.008c11.048-.786 19.341-4.625 24.653-11.424 6.065-7.738 6.704-16.94 6.262-19.403-1.377-7.548-3.328-24.486-1.869-31.313l.146-.652.18-.64c.231-.73.476-1.442.838-2.377.279-.697.736-1.87-.524-8.209-1.903-9.433-4.476-12.793-4.986-13.375l-3.262-3.788-.656-4.966c-.689-5.22-2.752-11.603-4.426-15.178-2.72-5.753-5.82-13.459-5.82-21.996 0-6.033 0-18.589 13.769-22.948 16.768-4.952 44.879-14.654 56.564-19.541 1.77-.754 2.41-1.686 2.593-2.033v-6.786h16.785v7.245c0 5.988-4.149 13.298-12.754 17.002z" horiz-adv-x="437"/><glyph unicode="" d="M210.149 306.852h-16.786v-95.784l52.813-52.812 11.868 11.868-47.896 47.894zm228.981 18.023L320.444 443.562l-89.397-89.405a142.542 142.542 0 0 1-29.291 3.049c-78.66 0-142.667-63.999-142.667-142.664 0-10.033 1.082-19.832 3.048-29.291L-.001 123.113l24.718-95.928 93.969-22.75 68.22 68.219c4.884-.491 9.834-.77 14.85-.77 78.676 0 142.667 64 142.667 142.658 0 5.015-.264 9.97-.771 14.855l95.478 95.48zm-118.685 94.949l94.952-94.949-75.463-75.456c-11.688 46.288-45.978 83.562-90.48 99.411l70.99 70.993zM113.474 22.957L38.47 41.118l-19.834 76.9 48.828 48.827c15.867-44.502 53.139-78.784 99.429-90.469l-53.422-53.418zm88.282 65.711c-69.4 0-125.882 56.459-125.882 125.875 0 69.412 56.483 125.877 125.882 125.877 69.415 0 125.883-56.466 125.883-125.877 0-69.416-56.467-125.875-125.882-125.875z" horiz-adv-x="439"/><glyph unicode="" d="M50.434 253.398c0-88.061 71.382-159.444 159.434-159.444 88.089 0 159.468 71.382 159.468 159.444 0 88.076-71.379 159.458-159.468 159.458-88.05-.002-159.434-71.38-159.434-159.458zm159.437 142.67c78.677 0 142.682-64.002 142.682-142.671 0-78.659-64.007-142.657-142.682-142.657-78.66 0-142.653 63.998-142.653 142.657.001 78.669 63.99 142.672 142.653 142.672zM304.94 66.204l8.079-16.324 15.048 7.442-22.818 46.074-15.046-7.458 7.277-14.67c-26.995-13.752-57.058-21.046-87.611-21.046-106.474 0-193.084 86.658-193.084 193.176 0 72.563 41.109 139.118 105.312 171.99l7.802-15.752 15.031 7.45-22.818 46.063-15.03-7.451 7.573-15.28C44.764 404.726.001 332.336.001 253.396c0-112.959 89.642-205.32 201.494-209.747V18.111c-38.75-1.507-74.841-13.457-105.46-33.257h35.109a192.04 192.04 0 0 0 78.628 16.784c27.506 0 54.139-5.966 78.447-16.784h35.258c-30.995 19.964-67.219 31.7-105.197 33.257v25.603c30.224 1.214 59.826 8.868 86.659 22.49z" horiz-adv-x="370"/></font>
</defs>
</svg>
