<svg xmlns="http://www.w3.org/2000/svg"><defs><font id="Linearicons-Free" horiz-adv-x="1024"><font-face units-per-em="1024" ascent="972.8" descent="-51.2"/><glyph horiz-adv-x="409.6"/><glyph unicode="" d="M1017.382 349.974l-452.05 499.634c-14.051 15.533-32.992 24.086-53.333 24.086-.002 0 0 0 0 0-20.339 0-39.282-8.555-53.334-24.086L6.615 349.974C-2.87 339.489-2.06 323.3 8.423 313.816a25.507 25.507 0 0 1 17.168-6.616c6.982 0 13.938 2.838 18.992 8.426l109.016 120.491V25.6c0-42.347 34.453-76.8 76.8-76.8h563.2c42.347 0 76.8 34.453 76.8 76.8v410.517l109.018-120.493c9.485-10.483 25.674-11.296 36.158-1.808 10.483 9.485 11.293 25.675 1.806 36.158zM614.4 0H409.6v230.4c0 14.115 11.485 25.6 25.6 25.6h153.6c14.115 0 25.6-11.485 25.6-25.6V0zm204.8 25.6c0-14.115-11.485-25.6-25.6-25.6h-128v230.4c0 42.349-34.451 76.8-76.8 76.8H435.2c-42.347 0-76.8-34.451-76.8-76.8V0h-128c-14.115 0-25.6 11.485-25.6 25.6v467.106l291.832 322.552c4.222 4.667 9.68 7.237 15.368 7.237s11.146-2.57 15.366-7.235L819.2 492.708V25.601z" data-tags="home, building, house"/><glyph unicode="" d="M716.8 665.6H768v-51.2h-51.2v51.2zm0-102.4H768V512h-51.2v51.2zm0-102.4H768v-51.2h-51.2v51.2zm0-102.4H768v-51.2h-51.2v51.2zm0-204.8H768v-51.2h-51.2v51.2zm0 102.4H768v-51.2h-51.2V256zM307.2 665.6h51.2v-51.2h-51.2v51.2zm0-102.4h51.2V512h-51.2v51.2zm0-102.4h51.2v-51.2h-51.2v51.2zm0-102.4h51.2v-51.2h-51.2v51.2zm0-204.8h51.2v-51.2h-51.2v51.2zm0 102.4h51.2v-51.2h-51.2V256zM204.8 665.6H256v-51.2h-51.2v51.2zm0-102.4H256V512h-51.2v51.2zm0-102.4H256v-51.2h-51.2v51.2zm0-102.4H256v-51.2h-51.2v51.2zm0-204.8H256v-51.2h-51.2v51.2zm0 102.4H256v-51.2h-51.2V256zm204.8 409.6h51.2v-51.2h-51.2v51.2zm0-102.4h51.2V512h-51.2v51.2zm0-102.4h51.2v-51.2h-51.2v51.2zm0-102.4h51.2v-51.2h-51.2v51.2zm0-204.8h51.2v-51.2h-51.2v51.2zm0 102.4h51.2v-51.2h-51.2V256zM947.2 0h-25.6v691.2c0 39.058-29.024 79.326-66.077 91.677L614.4 863.251V947.2a25.602 25.602 0 0 1-10.318 20.539 25.606 25.606 0 0 1-22.637 3.981l-462.96-138.886C80.755 821.514 51.2 781.791 51.2 742.4V0H25.6C11.462 0 0-11.461 0-25.6s11.462-25.6 25.6-25.6h921.6c14.139 0 25.6 11.461 25.6 25.6S961.339 0 947.2 0zM839.333 734.304c16.259-5.419 31.067-25.965 31.067-43.104V0h-256v809.282l224.933-74.978zM102.4 742.4c0 16.827 14.678 36.557 30.797 41.392L563.2 912.794V0H102.4v742.4z" data-tags="apartment, building, city, business, work, office"/><glyph unicode="" d="M978.101 926.902c-28.77 28.768-67.018 44.611-107.701 44.611-40.685 0-78.933-15.843-107.701-44.611l-652.8-652.8a25.6 25.6 0 0 1-5.957-9.354l-102.4-281.6a25.595 25.595 0 0 1 5.957-26.85 25.586 25.586 0 0 1 26.848-5.958l281.6 102.4a25.619 25.619 0 0 1 9.354 5.958l652.8 652.8c28.768 28.768 44.613 67.018 44.613 107.702s-15.843 78.933-44.613 107.701zM293.114 98.917L68.405 17.207l81.712 224.707L716.8 808.597 859.797 665.6 293.114 98.917zm648.785 648.785L896 701.803 753.003 844.8l45.899 45.899c19.098 19.098 44.49 29.614 71.498 29.614s52.4-10.518 71.499-29.616c19.098-19.098 29.616-44.49 29.616-71.498s-10.52-52.4-29.616-71.498z" data-tags="pencil, write, edit"/><glyph unicode="" d="M588.8 614.4c-14.139 0-25.6 11.462-25.6 25.6 0 70.579-57.421 128-128 128-14.138 0-25.6 11.462-25.6 25.6s11.462 25.6 25.6 25.6c70.579 0 128 57.421 128 128 0 14.138 11.461 25.6 25.6 25.6s25.6-11.462 25.6-25.6c0-70.579 57.421-128 128-128 14.139 0 25.6-11.462 25.6-25.6S756.539 768 742.4 768c-70.579 0-128-57.421-128-128 0-14.138-11.461-25.6-25.6-25.6zm-61.374 179.2a180.663 180.663 0 0 0 61.374-61.376 180.651 180.651 0 0 0 61.376 61.376 180.651 180.651 0 0 0-61.376 61.376 180.663 180.663 0 0 0-61.374-61.376zM76.8 460.8c-14.138 0-25.6 11.462-25.6 25.6 0 14.115-11.485 25.6-25.6 25.6C11.462 512 0 523.462 0 537.6s11.462 25.6 25.6 25.6c14.115 0 25.6 11.485 25.6 25.6 0 14.138 11.462 25.6 25.6 25.6s25.6-11.462 25.6-25.6c0-14.115 11.485-25.6 25.6-25.6 14.138 0 25.6-11.462 25.6-25.6S142.138 512 128 512c-14.115 0-25.6-11.485-25.6-25.6 0-14.138-11.462-25.6-25.6-25.6zm852.301-304.096L387.106 698.698c-14.466 14.466-33.752 22.432-54.306 22.432s-39.84-7.966-54.306-22.432l-29.992-29.992c-14.466-14.466-22.432-33.752-22.432-54.306s7.966-39.84 22.432-54.306L790.496 18.102C804.96 3.636 824.246-4.332 844.8-4.332s39.84 7.965 54.306 22.434L929.1 48.094c14.466 14.464 22.432 33.752 22.432 54.304s-7.965 39.842-22.43 54.306zM284.706 632.502l29.992 29.992c4.795 4.795 11.224 7.435 18.102 7.435s13.307-2.64 18.102-7.435l73.691-73.693-66.197-66.197-73.691 73.691c-9.982 9.984-9.982 26.224 0 36.206zM892.894 84.298L862.9 54.306c-4.794-4.794-11.224-7.434-18.099-7.434s-13.306 2.64-18.099 7.434L394.6 486.405l66.197 66.195 432.098-432.099c9.981-9.981 9.981-26.222 0-36.203zM179.2 716.8c-14.138 0-25.6 11.462-25.6 25.6 0 42.347-34.453 76.8-76.8 76.8-14.138 0-25.6 11.462-25.6 25.6s11.462 25.6 25.6 25.6c42.347 0 76.8 34.453 76.8 76.8 0 14.138 11.462 25.6 25.6 25.6s25.6-11.462 25.6-25.6c0-42.347 34.453-76.8 76.8-76.8 14.138 0 25.6-11.462 25.6-25.6s-11.462-25.6-25.6-25.6c-42.347 0-76.8-34.453-76.8-76.8 0-14.138-11.462-25.6-25.6-25.6zm-25.68 128a129.102 129.102 0 0 0 25.68-25.68 129.102 129.102 0 0 0 25.68 25.68 129.102 129.102 0 0 0-25.68 25.68 129.155 129.155 0 0 0-25.68-25.68zm25.68-640c-14.138 0-25.6 11.461-25.6 25.6 0 42.347-34.453 76.8-76.8 76.8-14.138 0-25.6 11.461-25.6 25.6s11.462 25.6 25.6 25.6c42.347 0 76.8 34.453 76.8 76.8 0 14.139 11.462 25.6 25.6 25.6s25.6-11.461 25.6-25.6c0-42.347 34.453-76.8 76.8-76.8 14.138 0 25.6-11.461 25.6-25.6s-11.462-25.6-25.6-25.6c-42.347 0-76.8-34.453-76.8-76.8 0-14.139-11.462-25.6-25.6-25.6zm-25.68 128a129.05 129.05 0 0 0 25.68-25.68 129.208 129.208 0 0 0 25.68 25.68 129.05 129.05 0 0 0-25.68 25.68 129.102 129.102 0 0 0-25.68-25.68z" data-tags="magic-wand, tool, wizard"/><glyph unicode="" d="M512-51.2c-82.619 0-159.64 33.55-216.877 94.472-58.013 61.747-89.962 146.387-89.963 238.328 0 150.678 66.979 258.499 137.893 372.653 54.789 88.197 111.443 179.397 144.248 299.683a25.601 25.601 0 0 0 49.398 0c32.813-120.317 89.56-211.536 144.438-299.752 71-114.131 138.062-221.933 138.062-372.584 0-92.131-31.749-176.763-89.395-238.301C672.719-17.639 595.367-51.2 511.999-51.2zm.003 915.792c-34.509-90.949-80.589-165.125-125.459-237.355C316.688 514.786 256.36 417.671 256.36 281.602 256.36 121.063 366.262.002 512 .002c145.944 0 256 121.061 256 281.6 0 136.027-60.4 233.117-130.338 345.539-44.95 72.254-91.112 146.461-125.659 237.451z" data-tags="drop, droplet, water, color, liquid"/><glyph unicode="" d="M896 512h-35.328l-43.786 88.186a25.604 25.604 0 0 1-22.93 14.214H588.799c-14.139 0-25.6-11.462-25.6-25.6V512h-62.021l-197.41 341.922c-7.069 12.243-22.725 16.443-34.97 9.37l-177.362-102.4c-12.245-7.069-16.44-22.726-9.37-34.97l204.8-354.723c4.742-8.213 13.346-12.805 22.194-12.805 4.342 0 8.746 1.107 12.776 3.434l138.962 80.23V25.6c0-14.139 11.462-25.6 25.6-25.6h409.6c14.139 0 25.6 11.461 25.6 25.6v460.8c0 14.139-11.461 25.6-25.6 25.6zm-25.6-307.2h-51.2v153.6h51.2V204.8zm-256 358.4h163.686l25.422-51.2H614.399v51.2zM318.408 418.968l-179.2 310.382 133.021 76.8 179.2-310.382-133.021-76.8zM512 51.2v409.6h332.638c.061 0 .12-.006.181-.006.035 0 .074.006.11.006h25.47v-51.2h-76.8c-14.139 0-25.6-11.461-25.6-25.6V179.2c0-14.139 11.461-25.6 25.6-25.6h76.8V51.2h-358.4zm281.6 614.4c-38.41 0-57.083 18.142-65.984 33.363-16.923 28.938-14.094 72.59 8.654 133.448 15.293 40.915 34.219 74.72 35.018 76.139a25.6 25.6 0 0 0 44.624 0c.798-1.419 19.725-35.224 35.018-76.139 22.749-60.859 25.578-104.51 8.654-133.448-8.901-15.221-27.574-33.363-65.984-33.363zm.002 172.056a488.255 488.255 0 0 1-9.581-23.73c-23.218-62.379-15.211-83.984-12.205-89.12 1.282-2.19 4.685-8.006 21.784-8.006 17.101 0 20.506 5.821 21.787 8.011 3.021 5.165 11.05 26.891-12.418 89.674a488.455 488.455 0 0 1-9.368 23.171z" data-tags="lighter, fire"/><glyph unicode="" d="M873.333 291.693a363.065 363.065 0 0 1-12.222 6.6c48.915 38.344 60.49 80.262 60.49 111.307 0 72.674-61.078 135.928-162.541 174.525 5.875 17.965 8.941 36.88 8.941 55.875 0 98.811-80.389 179.2-179.2 179.2-35.035 0-76.8 8.883-76.8 51.2 0 23.198 29.574 48.541 39.872 55.547a25.602 25.602 0 0 1-14.272 46.853c-80.245 0-162.696-26.368-226.211-72.346-32.41-23.461-58.131-50.595-76.45-80.65-19.998-32.814-30.139-67.47-30.139-103.005 0-14.744 1.243-29.392 3.608-43.797-43.469-20.992-80.192-48.712-107.018-80.933-32.835-39.437-50.19-84.83-50.19-131.27 0-27.966 6.277-56.472 18.206-84.035C23.917 333.054.001 282.785.001 230.399c0-78.094 52.608-150.328 148.133-203.397 90.773-50.43 210.906-78.203 338.267-78.203 130.957 0 249.787 17.029 334.603 47.949C946.465 42.486 972.801 107.29 972.801 153.599c0 37.291-17.256 91.518-99.467 138.093zM803.466 44.851C724.13 15.928 611.527 0 486.4 0 367.594 0 256.293 25.485 172.998 71.76 94.456 115.394 51.2 171.734 51.2 230.4c0 40.826 21.002 74.779 44.366 99.936a290.934 290.934 0 0 1 19.277-24.526c40.771-46.536 97.469-82.053 159.65-100.005a25.597 25.597 0 0 1 7.112-1.011c11.114 0 21.347 7.294 24.584 18.504 3.922 13.584-3.91 27.774-17.494 31.698-106.206 30.662-186.294 119.141-186.294 205.805 0 62.675 45.037 122.826 119.269 161.555 26.826-73.859 83.443-135.219 153.798-160.091a25.546 25.546 0 0 1 8.533-1.47c10.544 0 20.421 6.566 24.136 17.074 4.712 13.33-2.274 27.957-15.603 32.669-77.837 27.517-136.533 116.192-136.533 206.264 0 51.818 30.333 102.312 85.411 142.179 38.09 27.571 84.11 46.995 131.971 56.328-7.397-13.192-12.582-28.349-12.582-44.907 0-49.502 33.626-102.4 128-102.4 70.579 0 128-57.421 128-128 0-13.867-2.157-27.296-6.403-40.131-20.886 5.683-43.034 10.453-66.326 14.205-13.955 2.246-27.098-7.245-29.346-21.203-2.246-13.958 7.245-27.098 21.205-29.346 71.034-11.442 131.246-33.152 174.128-62.787 27.528-19.022 60.342-50.277 60.342-91.138 0-33.022-21.93-62.36-65.202-87.318-46.827 16.661-101.688 28.875-162.229 35.946-14.043 1.654-26.758-8.413-28.397-22.456s8.414-26.758 22.456-28.397c86.328-10.085 159.312-30.91 211.066-60.23 33.534-18.995 73.506-50.645 73.506-93.544 0-54.286-64.242-89.101-118.134-108.749z" data-tags="poop, toilet, feces, crap"/><glyph unicode="" d="M486.4 205.178c-126.834 0-230.022 103.187-230.022 230.022S359.567 665.222 486.4 665.222 716.422 562.033 716.422 435.2 613.233 205.178 486.4 205.178zm0 408.844c-98.603 0-178.822-80.219-178.822-178.822S387.797 256.378 486.4 256.378 665.222 336.597 665.222 435.2 585.003 614.022 486.4 614.022zm0 102.778c-14.138 0-25.6 11.462-25.6 25.6V896c0 14.138 11.462 25.6 25.6 25.6S512 910.138 512 896V742.4c0-14.138-11.462-25.6-25.6-25.6zm0-768c-14.138 0-25.6 11.461-25.6 25.6V128c0 14.139 11.462 25.6 25.6 25.6S512 142.139 512 128V-25.6c0-14.139-11.462-25.6-25.6-25.6zM179.2 409.6H25.6C11.462 409.6 0 421.061 0 435.2s11.462 25.6 25.6 25.6h153.6c14.138 0 25.6-11.461 25.6-25.6s-11.462-25.6-25.6-25.6zm768 0H793.6c-14.139 0-25.6 11.461-25.6 25.6s11.461 25.6 25.6 25.6h153.6c14.139 0 25.6-11.461 25.6-25.6s-11.461-25.6-25.6-25.6zm-716.8 256a25.516 25.516 0 0 0-18.101 7.498l-102.4 102.4c-9.998 9.998-9.998 26.206 0 36.203s26.206 9.998 36.203 0l102.4-102.4c9.998-9.998 9.998-26.206 0-36.203A25.521 25.521 0 0 0 230.4 665.6zM128 51.2a25.513 25.513 0 0 0-18.101 7.499c-9.998 9.997-9.998 26.206 0 36.203l102.4 102.4c9.997 9.997 26.206 9.997 36.203 0s9.998-26.206 0-36.203l-102.4-102.4c-5-5-11.55-7.499-18.102-7.499zm716.8 0a25.513 25.513 0 0 0-18.101 7.499l-102.4 102.4c-9.998 9.997-9.998 26.206 0 36.203 9.997 9.997 26.206 9.997 36.203 0l102.4-102.4c9.998-9.997 9.998-26.206 0-36.203-5-5-11.55-7.499-18.102-7.499zM742.4 665.6a25.513 25.513 0 0 0-18.101 7.499c-9.998 9.997-9.998 26.206 0 36.203l102.4 102.4c9.997 9.998 26.206 9.998 36.203 0 9.998-9.997 9.998-26.206 0-36.203l-102.4-102.4c-5-5-11.55-7.499-18.102-7.499z" data-tags="sun, brightness, weather"/><glyph unicode="" d="M524.8-51.2c-140.179 0-271.968 54.589-371.09 153.71S0 333.42 0 473.6c0 115.242 37 224.01 106.997 314.546 33.528 43.365 73.674 81.155 119.325 112.323 46.05 31.44 96.664 55.424 150.437 71.285 9.819 2.901 20.424-.336 26.957-8.222s7.738-18.906 3.064-28.016c-33.006-64.339-48.379-125.702-48.379-193.115 0-239.97 195.23-435.2 435.2-435.2 67.414 0 128.776 15.371 193.115 48.378a25.601 25.601 0 0 0 36.24-30.021c-15.861-53.773-39.845-104.387-71.286-150.435-31.166-45.65-68.958-85.797-112.323-119.325C748.811-14.2 640.041-51.199 524.801-51.199zM336.397 902.904C163.656 828.922 51.2 662.845 51.2 473.6 51.2 212.456 263.656 0 524.8 0c189.234 0 355.314 112.475 429.304 285.197C901.698 265.599 848.731 256 793.6 256c-129.922 0-252.067 50.594-343.936 142.462C357.795 490.332 307.2 612.478 307.2 742.4c0 55.131 9.6 108.098 29.197 160.504z" data-tags="moon, night"/><glyph unicode="" d="M819.52 153.6H307.2C137.81 153.6 0 291.41 0 460.8S137.81 768 307.2 768c82.034 0 160.589-32.917 218.104-90.866a155.185 155.185 0 0 0 16.643 28.403c28.87 39.112 75.093 62.462 123.653 62.462 84.696 0 153.6-68.904 153.6-153.6 0-17.957-3.118-35.523-9.096-52.051 3.126.142 6.267.211 9.416.211 112.75 0 204.48-91.73 204.48-204.48s-91.73-204.48-204.48-204.48zM307.2 716.8c-141.158 0-256-114.84-256-256s114.842-256 256-256h512.32c84.518 0 153.28 68.762 153.28 153.28s-68.762 153.28-153.28 153.28c-18.128 0-35.794-3.101-52.507-9.222-11.166-4.088-23.677.05-30.202 9.989s-5.349 23.064 2.842 31.685C757.933 563.047 768 588.119 768 614.401c0 56.464-45.936 102.4-102.4 102.4-32.858 0-62.912-15.187-82.456-41.667-11.798-15.986-18.669-34.707-19.867-54.138a25.595 25.595 0 0 0-18.574-23.054 25.594 25.594 0 0 0-27.906 9.891 260.34 260.34 0 0 1-18.126 22.902c-48.587 54.696-118.374 86.066-191.47 86.066z" data-tags="cloud, weather"/><glyph unicode="" d="M819.52 153.6H640c-14.139 0-25.6 11.461-25.6 25.6s11.461 25.6 25.6 25.6h179.52c84.518 0 153.28 68.762 153.28 153.28s-68.762 153.28-153.28 153.28c-18.005 0-35.626-3.086-52.368-9.173-11.168-4.056-23.654.099-30.163 10.035-6.507 9.938-5.323 23.048 2.859 31.659C758.002 562.987 768 588.031 768 614.399c0 56.464-45.936 102.4-102.4 102.4-32.858 0-62.912-15.187-82.456-41.667a101.816 101.816 0 0 1-19.746-54.307 25.6 25.6 0 0 0-46.537-13.085l-.238.342a258.315 258.315 0 0 1-17.952 22.653c-48.587 54.694-118.374 86.064-191.47 86.064-141.158 0-256-114.842-256-256 0-141.16 114.842-256 256-256h128c14.138 0 25.6-11.461 25.6-25.6s-11.462-25.6-25.6-25.6h-128c-169.39 0-307.2 137.81-307.2 307.2s137.81 307.2 307.2 307.2c82.05 0 160.621-32.933 218.142-90.901a153.375 153.375 0 0 0 16.608 28.438c28.867 39.112 75.09 62.462 123.65 62.462 84.696 0 153.6-68.904 153.6-153.6 0-17.976-3.099-35.542-9.035-52.05 3.11.139 6.23.21 9.357.21 112.75 0 204.48-91.73 204.48-204.48-.002-112.75-91.731-204.48-204.482-204.48zM658.101 350.901l-102.4 102.4c-9.997 9.997-26.206 9.997-36.203 0l-102.4-102.4c-9.997-9.997-9.997-26.206 0-36.203s26.206-9.997 36.205 0l58.698 58.698V179.201c0-14.139 11.461-25.6 25.6-25.6s25.6 11.461 25.6 25.6v194.195l58.699-58.698c4.998-4.998 11.549-7.498 18.101-7.498s13.102 2.499 18.101 7.499c9.998 9.997 9.998 26.205 0 36.202z" data-tags="cloud-upload, cloud"/><glyph unicode="" d="M819.52 153.6H691.2c-14.139 0-25.6 11.461-25.6 25.6s11.461 25.6 25.6 25.6h128.32c84.518 0 153.28 68.762 153.28 153.28s-68.762 153.28-153.28 153.28c-18.005 0-35.626-3.086-52.368-9.173-11.168-4.056-23.654.099-30.163 10.035-6.507 9.938-5.323 23.048 2.859 31.659C758.002 562.987 768 588.031 768 614.399c0 56.464-45.936 102.4-102.4 102.4-32.858 0-62.912-15.187-82.456-41.667a101.816 101.816 0 0 1-19.746-54.307 25.6 25.6 0 0 0-46.537-13.085l-.238.342a258.315 258.315 0 0 1-17.952 22.653c-48.587 54.694-118.374 86.064-191.47 86.064-141.158 0-256-114.842-256-256 0-141.16 114.842-256 256-256h76.8c14.138 0 25.6-11.461 25.6-25.6s-11.462-25.6-25.6-25.6h-76.8c-169.39 0-307.2 137.81-307.2 307.2s137.81 307.2 307.2 307.2c82.05 0 160.621-32.933 218.142-90.901a153.375 153.375 0 0 0 16.608 28.438c28.867 39.112 75.09 62.462 123.65 62.462 84.696 0 153.6-68.904 153.6-153.6 0-17.976-3.099-35.542-9.035-52.05 3.11.139 6.23.21 9.357.21 112.75 0 204.48-91.73 204.48-204.48-.002-112.75-91.731-204.48-204.482-204.48zM658.101 299.701c-9.997 9.997-26.206 9.997-36.203 0L563.2 241.005V435.2c0 14.139-11.461 25.6-25.6 25.6S512 449.339 512 435.2V241.005l-58.698 58.698c-9.998 9.997-26.206 9.997-36.205 0-9.997-9.997-9.997-26.206 0-36.203l102.4-102.4c5-5 11.55-7.499 18.102-7.499s13.102 2.499 18.101 7.499l102.4 102.4c9.998 9.997 9.998 26.205 0 36.202z" data-tags="cloud-download, cloud"/><glyph unicode="" d="M819.52 562.56c-3.126 0-6.245-.07-9.357-.21 5.938 16.507 9.037 34.074 9.037 52.05 0 84.696-68.904 153.6-153.6 153.6-48.56 0-94.782-23.35-123.65-62.462a153.39 153.39 0 0 1-16.608-28.44C467.82 735.068 389.249 768 307.2 768 137.81 768 0 630.19 0 460.8s137.81-307.2 307.2-307.2h512.32c112.75 0 204.48 91.73 204.48 204.48s-91.73 204.48-204.48 204.48zm0-357.76H307.2c-141.158 0-256 114.84-256 256 0 141.158 114.842 256 256 256 73.096 0 142.883-31.37 191.469-86.066a258.315 258.315 0 0 0 17.952-22.653l.238-.342a25.6 25.6 0 0 1 46.537 13.085 101.8 101.8 0 0 0 19.746 54.307c19.546 26.482 49.6 41.669 82.458 41.669 56.464 0 102.4-45.936 102.4-102.4 0-26.368-9.998-51.413-28.152-70.518-8.182-8.611-9.366-21.722-2.859-31.659s18.994-14.093 30.163-10.035c16.746 6.086 34.365 9.173 52.368 9.173 84.518 0 153.28-68.762 153.28-153.28s-68.762-153.28-153.28-153.28zM327.867 360.482A103.306 103.306 0 0 0 307.2 358.4c-56.464 0-102.4 45.936-102.4 102.4v14.997l7.499-7.499c4.998-4.998 11.549-7.498 18.101-7.498s13.102 2.499 18.101 7.499c9.998 9.997 9.998 26.206 0 36.203l-51.2 51.2c-9.997 9.998-26.206 9.998-36.203 0l-51.2-51.2c-9.998-9.997-9.998-26.206 0-36.203 9.997-9.998 26.206-9.998 36.203 0l7.499 7.498V460.8c0-84.696 68.904-153.6 153.6-153.6 10.405 0 20.81 1.05 30.928 3.118 13.853 2.834 22.784 16.362 19.95 30.213s-16.352 22.773-30.211 19.95zm140.432 92.819l-7.499-7.498V460.8c0 84.696-68.904 153.6-153.6 153.6-10.403 0-20.81-1.05-30.928-3.12-13.851-2.834-22.782-16.36-19.949-30.211s16.36-22.784 30.211-19.949a103.297 103.297 0 0 0 20.667 2.08c56.464 0 102.4-45.936 102.4-102.4v-14.997l-7.499 7.499c-9.997 9.997-26.206 9.997-36.203 0-9.998-9.997-9.998-26.206 0-36.203l51.2-51.2c4.998-5 11.549-7.499 18.101-7.499s13.102 2.499 18.101 7.499l51.2 51.2c9.998 9.997 9.998 26.206 0 36.203-9.997 9.997-26.205 9.997-36.202-.002z" data-tags="cloud-sync, cloud"/><glyph unicode="" d="M819.2 153.6H332.8c-14.138 0-25.6 11.461-25.6 25.6s11.462 25.6 25.6 25.6h486.4c84.696 0 153.6 68.904 153.6 153.6S903.896 512 819.2 512c-17.576 0-34.797-2.936-51.181-8.726-11.101-3.922-23.451.234-29.922 10.075-6.469 9.84-5.389 22.827 2.616 31.464 17.595 18.986 27.286 43.699 27.286 69.587 0 56.464-45.936 102.4-102.4 102.4-53.997 0-98.888-42.162-102.198-95.986a25.598 25.598 0 0 0-18.594-23.064 25.593 25.593 0 0 0-27.912 9.93C468.938 676.006 390.548 716.8 307.199 716.8c-141.158 0-256-114.84-256-256 0-7.77.352-15.611 1.045-23.301 1.269-14.082-9.117-26.525-23.198-27.795-14.08-1.278-26.525 9.117-27.795 23.198A312.168 312.168 0 0 0 0 460.8C0 630.19 137.81 768 307.2 768c82.483 0 160.917-33.286 218.149-90.933C549.442 730.813 603.509 768 665.6 768c84.696 0 153.6-68.904 153.6-153.6 0-17.71-3.024-35.056-8.818-51.386 2.931.123 5.87.186 8.818.186 112.926 0 204.8-91.874 204.8-204.8s-91.874-204.8-204.8-204.8zm-640 25.6a25.517 25.517 0 0 0-18.102 7.499l-102.4 102.4c-9.997 9.997-9.997 26.206 0 36.203s26.206 9.997 36.205 0l84.298-84.298 237.898 237.898c9.998 9.997 26.206 9.997 36.205 0 9.997-9.997 9.997-26.206 0-36.203l-256-256c-5-5-11.55-7.499-18.102-7.499z" data-tags="cloud-check, cloud"/><glyph unicode="" d="M925.04 890.421c-25.429 16.701-61.077 31.488-105.955 43.955-89.2 24.778-207.35 38.424-332.685 38.424s-243.485-13.646-332.686-38.424c-44.877-12.467-80.526-27.254-105.955-43.955C16.069 869.608.001 845.647.001 819.2V204.8c0-26.446 16.069-50.41 47.758-71.222 25.429-16.701 61.077-31.488 105.955-43.954C242.916 64.845 361.066 51.2 486.4 51.2s243.485 13.645 332.686 38.426c44.878 12.466 80.526 27.253 105.955 43.954 31.69 20.811 47.758 44.774 47.758 71.221v614.4c0 26.446-16.069 50.408-47.76 71.221zm-757.622-5.378C252.282 908.617 365.567 921.6 486.4 921.6s234.117-12.982 318.982-36.557C897.31 859.507 921.6 830.808 921.6 819.2s-24.29-40.307-116.218-65.843C720.516 729.783 607.233 716.8 486.4 716.8s-234.118 12.982-318.982 36.557C75.49 778.893 51.2 807.592 51.2 819.2s24.29 40.307 116.218 65.843zm637.964-746.086C720.516 115.383 607.233 102.4 486.4 102.4s-234.117 12.982-318.982 36.557C75.49 164.493 51.2 193.192 51.2 204.8v131.389c25.168-15.803 59.611-29.846 102.514-41.765C242.916 269.645 361.066 256 486.4 256s243.485 13.645 332.686 38.426c42.902 11.917 77.347 25.962 102.514 41.765v-131.39c0-11.608-24.29-40.307-116.218-65.843zm0 204.8C720.516 320.183 607.233 307.2 486.4 307.2s-234.117 12.982-318.982 36.557C75.49 369.293 51.2 397.992 51.2 409.6v131.39c25.168-15.803 59.611-29.848 102.514-41.766C242.916 474.446 361.066 460.8 486.4 460.8s243.485 13.646 332.686 38.424c42.902 11.918 77.347 25.963 102.514 41.766V409.6c0-11.608-24.29-40.307-116.218-65.843zm0 204.8C720.516 524.983 607.233 512 486.4 512s-234.117 12.982-318.982 36.557C75.49 574.093 51.2 602.792 51.2 614.4v131.39c25.168-15.803 59.611-29.848 102.514-41.766C242.916 679.246 361.066 665.6 486.4 665.6s243.485 13.646 332.686 38.424c42.902 11.918 77.347 25.963 102.514 41.766V614.4c0-11.608-24.29-40.307-116.218-65.843z" data-tags="database, storage"/><glyph unicode="" d="M742.4 563.2h-25.6V640c0 127.043-103.357 230.4-230.4 230.4S256 767.043 256 640v-76.8h-25.6c-42.347 0-76.8-34.453-76.8-76.8V76.8c0-42.347 34.453-76.8 76.8-76.8h512c42.347 0 76.8 34.453 76.8 76.8v409.6c0 42.347-34.453 76.8-76.8 76.8zM307.2 640c0 98.811 80.389 179.2 179.2 179.2S665.6 738.811 665.6 640v-76.8H307.2V640zM768 76.8c0-14.115-11.485-25.6-25.6-25.6h-512c-14.115 0-25.6 11.485-25.6 25.6v409.6c0 14.115 11.485 25.6 25.6 25.6h512c14.115 0 25.6-11.485 25.6-25.6V76.8z" data-tags="lock, privacy, encryption, security"/><glyph unicode="" d="M390.71-35.955c-2.109 0-4.248.262-6.378.81-45.976 11.803-90.149 30.042-131.291 54.21-11.923 7.003-16.13 22.21-9.501 34.344 8.15 14.925 12.459 31.866 12.459 48.992 0 56.464-45.936 102.4-102.4 102.4-17.125 0-34.066-4.309-48.992-12.459-12.133-6.627-27.339-2.421-34.342 9.501-24.17 41.142-42.408 85.315-54.211 131.293-3.333 12.989 3.92 26.349 16.629 30.629 41.699 14.037 69.717 53.034 69.717 97.037s-28.018 83-69.718 97.04c-12.707 4.278-19.962 17.638-16.627 30.627 11.803 45.976 30.042 90.149 54.211 131.291 7.003 11.923 22.21 16.13 34.344 9.501 14.923-8.15 31.864-12.459 48.99-12.459 56.464 0 102.4 45.936 102.4 102.4 0 17.126-4.309 34.067-12.459 48.99-6.629 12.134-2.422 27.341 9.501 34.344 41.141 24.168 85.314 42.408 131.291 54.211 12.994 3.334 26.349-3.92 30.627-16.627 14.04-41.701 53.037-69.718 97.04-69.718s83 28.018 97.038 69.717c4.28 12.71 17.645 19.965 30.629 16.629 45.976-11.802 90.15-30.042 131.293-54.211 11.922-7.003 16.128-22.208 9.501-34.342C772.309 853.269 768 836.328 768 819.203c0-56.464 45.936-102.4 102.4-102.4 17.126 0 34.067 4.309 48.992 12.459 12.138 6.629 27.341 2.421 34.344-9.501 24.166-41.141 42.406-85.314 54.21-131.291 3.334-12.989-3.918-26.349-16.627-30.627-41.701-14.04-69.718-53.037-69.718-97.04s28.018-83 69.718-97.038c12.707-4.28 19.962-17.638 16.627-30.629-11.803-45.976-30.042-90.15-54.21-131.291-7.005-11.925-22.208-16.128-34.344-9.502-14.926 8.152-31.867 12.461-48.992 12.461-56.464 0-102.4-45.936-102.4-102.4 0-17.125 4.309-34.066 12.461-48.992 6.627-12.136 2.421-27.341-9.502-34.344-41.141-24.166-85.314-42.406-131.291-54.21-12.992-3.336-26.349 3.918-30.629 16.627-14.038 41.701-53.035 69.718-97.038 69.718s-83-28.018-97.04-69.718c-3.578-10.624-13.502-17.437-24.25-17.437zM512 102.4c57.715 0 109.693-32.138 135.917-82.029a458 458 0 0 1 77.299 31.846 154.209 154.209 0 0 0-8.416 50.182c0 84.696 68.904 153.6 153.6 153.6 17.107 0 34.106-2.875 50.181-8.418a457.835 457.835 0 0 1 31.846 77.299c-49.89 26.226-82.027 78.203-82.027 135.918s32.138 109.691 82.029 135.918a458.034 458.034 0 0 1-31.846 77.299 154.18 154.18 0 0 0-50.182-8.418c-84.696 0-153.6 68.904-153.6 153.6 0 17.107 2.875 34.106 8.418 50.181a457.835 457.835 0 0 1-77.299 31.846c-26.226-49.89-78.203-82.027-135.918-82.027s-109.691 32.138-135.917 82.027a457.752 457.752 0 0 1-77.299-31.846 154.158 154.158 0 0 0 8.416-50.181c0-84.696-68.904-153.6-153.6-153.6a154.107 154.107 0 0 0-50.181 8.418 457.738 457.738 0 0 1-31.846-77.299c49.89-26.227 82.027-78.203 82.027-135.918s-32.138-109.693-82.027-135.917a457.835 457.835 0 0 1 31.846-77.299 154.194 154.194 0 0 0 50.181 8.416c84.696 0 153.6-68.904 153.6-153.6 0-17.109-2.875-34.106-8.418-50.181a457.903 457.903 0 0 1 77.299-31.846c26.227 49.89 78.203 82.027 135.918 82.027zm0 204.8c-84.696 0-153.6 68.904-153.6 153.6S427.304 614.4 512 614.4s153.6-68.904 153.6-153.6S596.696 307.2 512 307.2zm0 256c-56.464 0-102.4-45.936-102.4-102.4S455.536 358.4 512 358.4c56.464 0 102.4 45.936 102.4 102.4S568.464 563.2 512 563.2z" data-tags="cog, gear, preferences, settings, generate, control, options"/><glyph unicode="" d="M793.6 870.4H614.4V896c0 42.347-34.453 76.8-76.8 76.8H435.2c-42.347 0-76.8-34.453-76.8-76.8v-25.6H179.2c-42.347 0-76.8-34.453-76.8-76.8v-51.2c0-33.373 21.403-61.829 51.2-72.397V25.6c0-42.349 34.453-76.8 76.8-76.8h512c42.349 0 76.8 34.451 76.8 76.8v644.403c29.797 10.568 51.2 39.024 51.2 72.397v51.2c0 42.347-34.451 76.8-76.8 76.8zm-384 25.6c0 14.115 11.485 25.6 25.6 25.6h102.4c14.115 0 25.6-11.485 25.6-25.6v-25.6H409.6V896zM742.4 0h-512c-14.115 0-25.6 11.485-25.6 25.6v640H768v-640C768 11.485 756.515 0 742.4 0zm76.8 742.4c0-14.115-11.485-25.6-25.6-25.6H179.2c-14.115 0-25.6 11.485-25.6 25.6v51.2c0 14.115 11.485 25.6 25.6 25.6h614.4c14.115 0 25.6-11.485 25.6-25.6v-51.2zM640 614.4c-14.139 0-25.6-11.462-25.6-25.6v-512c0-14.139 11.461-25.6 25.6-25.6s25.6 11.461 25.6 25.6v512c0 14.138-11.461 25.6-25.6 25.6zm-153.6 0c-14.138 0-25.6-11.462-25.6-25.6v-512c0-14.139 11.462-25.6 25.6-25.6S512 62.661 512 76.8v512c0 14.138-11.462 25.6-25.6 25.6zm-153.6 0c-14.138 0-25.6-11.462-25.6-25.6v-512c0-14.139 11.462-25.6 25.6-25.6s25.6 11.461 25.6 25.6v512c0 14.138-11.462 25.6-25.6 25.6z" data-tags="trash, bin, remove, waste"/><glyph unicode="" d="M281.6 153.6c-42.347 0-76.8 34.451-76.8 76.8s34.453 76.8 76.8 76.8 76.8-34.451 76.8-76.8-34.453-76.8-76.8-76.8zm0 102.4c-14.115 0-25.6-11.485-25.6-25.6s11.485-25.6 25.6-25.6 25.6 11.485 25.6 25.6-11.485 25.6-25.6 25.6zm0 102.4c-42.347 0-76.8 34.451-76.8 76.8s34.453 76.8 76.8 76.8 76.8-34.451 76.8-76.8-34.453-76.8-76.8-76.8zm0 102.4c-14.115 0-25.6-11.485-25.6-25.6s11.485-25.6 25.6-25.6 25.6 11.485 25.6 25.6-11.485 25.6-25.6 25.6zm0 102.4c-42.347 0-76.8 34.453-76.8 76.8s34.453 76.8 76.8 76.8 76.8-34.453 76.8-76.8-34.453-76.8-76.8-76.8zm0 102.4c-14.115 0-25.6-11.485-25.6-25.6s11.485-25.6 25.6-25.6 25.6 11.485 25.6 25.6-11.485 25.6-25.6 25.6zm409.6-102.4c-42.349 0-76.8 34.453-76.8 76.8s34.451 76.8 76.8 76.8S768 682.347 768 640s-34.451-76.8-76.8-76.8zm0 102.4c-14.115 0-25.6-11.485-25.6-25.6s11.485-25.6 25.6-25.6 25.6 11.485 25.6 25.6-11.485 25.6-25.6 25.6zm0-307.2c-42.349 0-76.8 34.451-76.8 76.8s34.451 76.8 76.8 76.8 76.8-34.451 76.8-76.8-34.451-76.8-76.8-76.8zm0 102.4c-14.115 0-25.6-11.485-25.6-25.6s11.485-25.6 25.6-25.6 25.6 11.485 25.6 25.6-11.485 25.6-25.6 25.6zm0-307.2c-42.349 0-76.8 34.451-76.8 76.8s34.451 76.8 76.8 76.8 76.8-34.451 76.8-76.8-34.451-76.8-76.8-76.8zm0 102.4c-14.115 0-25.6-11.485-25.6-25.6s11.485-25.6 25.6-25.6 25.6 11.485 25.6 25.6-11.485 25.6-25.6 25.6zM793.6 0H179.2c-70.579 0-128 57.421-128 128v614.4c0 70.579 57.421 128 128 128h614.4c70.579 0 128-57.421 128-128V128c0-70.579-57.421-128-128-128zM179.2 819.2c-42.347 0-76.8-34.453-76.8-76.8V128c0-42.349 34.453-76.8 76.8-76.8h614.4c42.349 0 76.8 34.451 76.8 76.8v614.4c0 42.347-34.451 76.8-76.8 76.8H179.2z" data-tags="dice, game, random, board-game"/><glyph unicode="" d="M486.4 0a25.595 25.595 0 0 0-12.434 3.222c-4.808 2.67-119.088 66.624-235.122 171.376-68.643 61.97-123.467 125.363-162.944 188.418C25.535 443.459-.001 523.731-.001 601.6c0 148.218 120.582 268.8 268.8 268.8 50.173 0 103.462-18.805 150.051-52.952 27.251-19.973 50.442-44.043 67.549-69.606 17.107 25.565 40.299 49.634 67.55 69.606 46.589 34.147 99.878 52.952 150.05 52.952 148.218 0 268.8-120.582 268.8-268.8 0-77.869-25.538-158.141-75.901-238.584-39.478-63.054-94.301-126.446-162.944-188.418C617.92 69.844 503.64 5.892 498.832 3.222A25.579 25.579 0 0 0 486.398 0zM268.8 819.2c-119.986 0-217.6-97.614-217.6-217.6 0-155.624 120.302-297.077 221.224-388.338C362.555 131.758 453.864 74.604 486.4 55.22c32.536 19.384 123.845 76.538 213.976 158.042C801.298 304.523 921.6 445.976 921.6 601.6c0 119.986-97.616 217.6-217.6 217.6-87.187 0-171.856-71.725-193.314-136.096a25.6 25.6 0 0 0-48.572 0C440.658 747.475 355.989 819.2 268.8 819.2z" data-tags="heart, love, like, favorite"/><glyph unicode="" d="M793.598 0a25.577 25.577 0 0 0-12.258 3.126L511.999 150.038 242.658 3.126a25.602 25.602 0 0 0-37.511 26.682l49.034 294.206L58.698 519.499a25.6 25.6 0 0 0 13.893 43.352l294.341 49.058 122.17 244.339c4.336 8.674 13.2 14.152 22.898 14.152s18.562-5.478 22.898-14.152l122.17-244.339 294.341-49.058a25.6 25.6 0 0 0 13.893-43.352L769.819 324.014l49.034-294.206A25.604 25.604 0 0 0 793.6 0zM512 204.8c4.219 0 8.437-1.042 12.259-3.126L759.704 73.248l-42.557 255.344a25.588 25.588 0 0 0 7.15 22.309l169.626 169.626-258.131 43.022a25.599 25.599 0 0 0-18.69 13.803L512 787.557 406.898 577.352a25.598 25.598 0 0 0-18.69-13.803l-258.131-43.022 169.624-169.626a25.598 25.598 0 0 0 7.15-22.309L264.294 73.248 499.74 201.674a25.577 25.577 0 0 0 12.259 3.126z" data-tags="star, rating, favorite"/><glyph unicode="" d="M793.598 0a25.564 25.564 0 0 0-12.256 3.126L627.747 86.904c-12.413 6.768-16.986 22.32-10.218 34.731 6.77 12.414 22.322 16.992 34.733 10.216l107.442-58.603-8.424 50.542c-2.325 13.947 7.098 27.136 21.042 29.461 13.941 2.33 27.136-7.096 29.461-21.042l17.067-102.4A25.601 25.601 0 0 0 793.599 0zm-34.164 204.795c-12.29 0-23.134 8.875-25.221 21.397l-17.066 102.4a25.588 25.588 0 0 0 7.15 22.309l51.2 51.2c9.997 9.997 26.206 9.997 36.203 0 9.998-9.997 9.998-26.206 0-36.203l-41.885-41.885 14.899-89.406c2.325-13.946-7.098-27.136-21.043-29.459a25.984 25.984 0 0 0-4.238-.352zM896 460.8a25.513 25.513 0 0 0-18.101 7.499c-9.998 9.997-9.998 26.206 0 36.203l16.024 16.026-104.53 17.422c-13.947 2.325-23.368 15.514-21.043 29.461s15.533 23.368 29.459 21.043l153.6-25.6a25.6 25.6 0 0 0 13.893-43.352l-51.2-51.2A25.508 25.508 0 0 0 896 460.8zm-204.768 93.864a25.8 25.8 0 0 0-4.238.352l-51.2 8.533a25.6 25.6 0 0 0-18.69 13.802l-51.2 102.395c-6.323 12.646-1.198 28.024 11.448 34.346 12.643 6.323 28.024 1.197 34.346-11.448l45.37-90.736 38.341-6.39c13.947-2.325 23.368-15.514 21.043-29.461-2.085-12.518-12.933-21.392-25.219-21.392zM230.402 0a25.602 25.602 0 0 0-25.255 29.808l49.034 294.206L58.699 519.499a25.6 25.6 0 0 0 13.893 43.352l294.341 49.058 122.17 244.339a25.6 25.6 0 0 0 22.898 14.152 25.597 25.597 0 0 0 22.898-14.152l25.6-51.2c6.322-12.646 1.195-28.024-11.45-34.346-12.646-6.325-28.024-1.198-34.347 11.45l-2.701 5.403L406.9 577.352a25.598 25.598 0 0 0-18.69-13.803l-258.133-43.022 169.626-169.626a25.594 25.594 0 0 0 7.149-22.309L264.295 73.248l235.446 128.426a25.6 25.6 0 0 0 24.518 0l25.603-13.966c12.411-6.77 16.984-22.32 10.214-34.733-6.77-12.411-22.318-16.984-34.733-10.214l-13.344 7.278L242.658 3.127A25.563 25.563 0 0 0 230.4.001z" data-tags="star-half, rating"/><glyph unicode="" d="M281.57 546.13c-12.29 0-23.134 8.874-25.221 21.395-2.325 13.946 7.098 27.136 21.043 29.461l89.541 14.923 19.77 39.539c6.323 12.646 21.701 17.773 34.346 11.45 12.646-6.323 17.771-21.701 11.45-34.346l-25.6-51.2a25.598 25.598 0 0 0-18.69-13.803l-102.4-17.067a25.818 25.818 0 0 0-4.238-.352zM128 460.8a25.513 25.513 0 0 0-18.101 7.499l-51.2 51.2a25.6 25.6 0 0 0 13.893 43.352l102.4 17.067c13.957 2.326 27.136-7.099 29.461-21.043 2.325-13.946-7.098-27.136-21.043-29.461l-53.331-8.89 16.024-16.026c9.998-9.997 9.998-26.206 0-36.203a25.527 25.527 0 0 0-18.102-7.496zm631.434-256.005c-12.29 0-23.134 8.875-25.221 21.397l-17.066 102.4a25.588 25.588 0 0 0 7.15 22.309l51.2 51.2c9.997 9.997 26.206 9.997 36.203 0 9.998-9.997 9.998-26.206 0-36.203l-41.885-41.885 14.899-89.406c2.325-13.946-7.098-27.136-21.043-29.459a25.764 25.764 0 0 0-4.238-.352zM793.598 0a25.564 25.564 0 0 0-12.256 3.126L627.736 86.91c-12.413 6.768-16.986 22.32-10.216 34.731 6.766 12.414 22.32 16.99 34.731 10.216l107.453-58.61-8.424 50.542c-2.325 13.947 7.098 27.136 21.042 29.461 13.955 2.322 27.136-7.096 29.461-21.042l17.067-102.4A25.603 25.603 0 0 0 793.599-.001zm-520.5 255.995c-1.398 0-2.814.115-4.238.354-13.946 2.325-23.366 15.514-21.043 29.461l6.368 38.205L212.3 365.9c-9.998 9.997-9.998 26.206 0 36.203s26.206 9.997 36.203 0l51.2-51.2a25.599 25.599 0 0 0 7.15-22.31l-8.533-51.2c-2.088-12.522-12.934-21.397-25.222-21.397zM230.402 0a25.602 25.602 0 0 0-25.255 29.808l25.6 153.598c2.325 13.947 15.514 23.368 29.461 21.043 13.946-2.323 23.366-15.514 21.043-29.459L264.294 73.248l56.246 30.68c12.41 6.771 27.963 2.197 34.733-10.214 6.77-12.413 2.197-27.963-10.216-34.733l-102.4-55.854A25.552 25.552 0 0 0 230.401.001zm204.82 111.704c-9.067 0-17.85 4.827-22.498 13.347-6.77 12.411-2.197 27.963 10.216 34.731l76.8 41.891a25.599 25.599 0 0 0 24.517 0l25.595-13.962c12.413-6.768 16.986-22.32 10.216-34.731-6.766-12.414-22.32-16.99-34.731-10.216l-13.338 7.274-64.541-35.203a25.492 25.492 0 0 0-12.237-3.131zM896 460.8a25.513 25.513 0 0 0-18.101 7.499c-9.998 9.997-9.998 26.206 0 36.203l16.024 16.026-104.53 17.422c-13.947 2.325-23.368 15.514-21.043 29.461s15.533 23.368 29.459 21.043l153.6-25.6a25.6 25.6 0 0 0 13.893-43.352l-51.2-51.2A25.508 25.508 0 0 0 896 460.8zm-204.766 93.862c-1.398 0-2.816.115-4.24.352l-51.202 8.533a25.598 25.598 0 0 0-18.688 13.802l-51.2 102.395c-6.323 12.646-1.198 28.024 11.448 34.346 12.643 6.323 28.024 1.197 34.346-11.448l45.37-90.736 38.344-6.39c13.946-2.325 23.366-15.514 21.042-29.461-2.086-12.518-12.933-21.392-25.219-21.392zM460.779 716.795c-3.846 0-7.754.87-11.429 2.707-12.646 6.323-17.771 21.701-11.45 34.346l51.2 102.4a25.603 25.603 0 0 0 22.899 14.152 25.597 25.597 0 0 0 22.898-14.152l25.598-51.2c6.323-12.646 1.197-28.024-11.448-34.346-12.646-6.325-28.024-1.198-34.346 11.45l-2.702 5.403-28.301-56.603c-4.486-8.971-13.53-14.157-22.92-14.157z" data-tags="star-empty, rating"/><glyph unicode="" d="M76.8 0C62.662 0 51.2 11.461 51.2 25.6v768c0 14.138 11.462 25.6 25.6 25.6s25.6-11.462 25.6-25.6v-768C102.4 11.461 90.938 0 76.8 0zm102.381 460.798a25.484 25.484 0 0 0-15.341 5.122c-11.31 8.483-13.603 24.53-5.12 35.838 3.45 4.6 85.789 112.64 199.68 112.64 86.715 0 144.038-30.666 194.614-57.722 44.813-23.973 83.515-44.677 138.186-44.677 112.246 0 192.389 106.49 238.093 190.344-35.736-20.317-81.411-36.744-135.693-36.744-113.005 0-171.389 58.386-222.901 109.899-50.925 50.922-94.902 94.901-186.699 94.901-113.883 0-183.629-91.238-184.32-92.16-8.483-11.31-24.53-13.603-35.84-5.12s-13.603 24.53-5.12 35.84c3.45 4.6 86.08 112.64 225.28 112.64 113.003 0 171.389-58.386 222.901-109.899 50.925-50.922 94.904-94.901 186.699-94.901 113.883 0 183.629 91.238 184.32 92.16 7.534 10.043 21.238 13.141 32.362 7.315 11.122-5.827 16.374-18.861 12.405-30.771-1.09-3.269-27.288-80.958-79.786-159.704-31.341-47.011-65.638-84.654-101.941-111.88-46.997-35.248-97.384-53.12-149.76-53.12-67.504 0-115.715 25.79-162.338 50.733-49.669 26.57-96.582 51.667-170.462 51.667-88.576 0-158.029-91.238-158.72-92.16-5.029-6.706-12.717-10.242-20.499-10.242z" data-tags="flag, report, mark"/><glyph unicode="" d="M896 665.6H76.8C34.453 665.6 0 631.147 0 588.8V128c0-42.349 34.453-76.8 76.8-76.8H896c42.349 0 76.8 34.451 76.8 76.8v460.8c0 42.347-34.451 76.8-76.8 76.8zm0-51.2c1.514 0 2.99-.158 4.434-.411l-385.632-257.09c-14.862-9.907-41.938-9.907-56.802 0L72.366 613.989a25.62 25.62 0 0 0 4.434.411H896zm0-512H76.8c-14.115 0-25.6 11.485-25.6 25.6v438.566l378.4-252.267c15.925-10.618 36.363-15.925 56.8-15.925s40.877 5.307 56.802 15.925L921.6 566.566V128c0-14.115-11.485-25.6-25.6-25.6z" data-tags="envelope, mail, letter, email"/><glyph unicode="" d="M486.4-51.2C359.357-51.2 256 52.157 256 179.2v614.4c0 98.811 80.389 179.2 179.2 179.2s179.2-80.389 179.2-179.2V230.4c0-70.579-57.421-128-128-128s-128 57.421-128 128v307.2c0 14.138 11.462 25.6 25.6 25.6s25.6-11.462 25.6-25.6V230.4c0-42.349 34.453-76.8 76.8-76.8 42.349 0 76.8 34.451 76.8 76.8v563.2c0 70.579-57.421 128-128 128s-128-57.421-128-128V179.2C307.2 80.389 387.589 0 486.4 0s179.2 80.389 179.2 179.2v358.4c0 14.138 11.461 25.6 25.6 25.6s25.6-11.462 25.6-25.6V179.2c0-127.043-103.357-230.4-230.4-230.4z" data-tags="paperclip, attachment"/><glyph unicode="" d="M1001.331 441.168L863.174 756.954C847.902 791.86 806.099 819.2 768 819.2H256c-38.099 0-79.904-27.341-95.176-62.246L22.667 441.168C9.957 412.112 0 364.51 0 332.8V128c0-42.349 34.453-76.8 76.8-76.8h870.4c42.349 0 76.8 34.451 76.8 76.8v204.8c0 31.714-9.958 79.314-22.669 108.368zM207.733 736.432C214.96 752.954 237.967 768 256 768h512c18.034 0 41.038-15.046 48.269-31.568l138.157-315.786c1.557-3.558 3.082-7.59 4.547-11.95-3.84.595-7.77.904-11.773.904H640c-14.139 0-25.6-11.461-25.6-25.6v-25.6c0-56.464-45.936-102.4-102.4-102.4s-102.4 45.936-102.4 102.4V384c0 14.139-11.462 25.6-25.6 25.6H76.8a77.05 77.05 0 0 1-11.771-.902c1.466 4.36 2.992 8.392 4.547 11.95l138.157 315.784zM972.8 128c0-14.115-11.485-25.6-25.6-25.6H76.8c-14.115 0-25.6 11.485-25.6 25.6v204.8c0 14.115 11.485 25.6 25.6 25.6h281.6c0-84.696 68.904-153.6 153.6-153.6s153.6 68.904 153.6 153.6h281.6c14.115 0 25.6-11.485 25.6-25.6V128z" data-tags="inbox, drawer"/><glyph unicode="" d="M1017.429 452.326c-2.429 2.698-60.515 66.826-151.349 131.706-53.587 38.277-107.499 68.826-160.234 90.8C639.009 702.68 573.79 716.8 512 716.8s-127.01-14.12-193.846-41.97c-52.736-21.973-106.646-52.523-160.234-90.8C67.088 519.152 9 455.024 6.571 452.326c-8.763-9.736-8.763-24.515 0-34.251C9 415.376 67.088 351.248 157.92 286.368c53.587-38.277 107.498-68.827 160.234-90.8C384.991 167.72 450.21 153.6 512 153.6s127.01 14.12 193.846 41.968c52.734 21.973 106.645 52.523 160.234 90.8 90.834 64.88 148.92 129.008 151.349 131.706 8.762 9.736 8.762 24.517 0 34.253zm-373.64 190.831C690.247 604.083 716.8 547.234 716.8 486.4c0-112.926-91.874-204.8-204.8-204.8-112.928 0-204.8 91.874-204.8 204.8 0 60.835 26.554 117.685 73.014 156.757C422.321 656.901 466.816 665.6 512 665.6c45.186 0 89.682-8.699 131.789-22.443zm191.629-315.77C756.93 271.462 637.109 204.8 512 204.8s-244.93 66.662-323.416 122.587c-59.24 42.21-104.574 84.89-127.458 107.813 22.888 22.928 68.222 65.606 127.458 107.813 27.13 19.331 59.2 39.942 94.72 58.643C265.538 566.432 256 527.136 256 486.4c0-141.16 114.842-256 256-256 141.16 0 256 114.84 256 256 0 40.734-9.538 80.032-27.301 115.256 35.517-18.701 67.589-39.312 94.718-58.643 59.238-42.21 104.573-84.89 127.456-107.813-22.888-22.928-68.222-65.606-127.456-107.813z" data-tags="eye, vision, view"/><glyph unicode="" d="M947.2 768h-76.8v128c0 42.347-34.453 76.8-76.8 76.8H230.4c-42.347 0-76.8-34.453-76.8-76.8V768H76.8C34.453 768 0 733.547 0 691.2V230.4c0-42.349 34.453-76.8 76.8-76.8h76.8v-128c0-42.347 34.453-76.8 76.8-76.8h563.2c42.347 0 76.8 34.453 76.8 76.8v128h76.8c42.349 0 76.8 34.451 76.8 76.8v460.8c0 42.347-34.451 76.8-76.8 76.8zM204.8 896c0 14.115 11.485 25.6 25.6 25.6h563.2c14.115 0 25.6-11.485 25.6-25.6V768H204.8v128zM793.6 0H230.4c-14.115 0-25.6 11.485-25.6 25.6v332.8h614.4V25.6c0-14.115-11.485-25.6-25.6-25.6zm179.2 230.4c0-14.115-11.485-25.6-25.6-25.6h-76.8v153.6H896c14.139 0 25.6 11.461 25.6 25.6s-11.461 25.6-25.6 25.6H128c-14.138 0-25.6-11.461-25.6-25.6s11.462-25.6 25.6-25.6h25.6V204.8H76.8c-14.115 0-25.6 11.485-25.6 25.6v460.8c0 14.115 11.485 25.6 25.6 25.6h870.4c14.115 0 25.6-11.485 25.6-25.6V230.4zM742.4 256H281.6c-14.138 0-25.6 11.461-25.6 25.6s11.462 25.6 25.6 25.6h460.8c14.139 0 25.6-11.461 25.6-25.6S756.539 256 742.4 256zm0-102.4H281.6c-14.138 0-25.6 11.461-25.6 25.6s11.462 25.6 25.6 25.6h460.8c14.139 0 25.6-11.461 25.6-25.6s-11.461-25.6-25.6-25.6zm0-102.4H281.6c-14.138 0-25.6 11.461-25.6 25.6s11.462 25.6 25.6 25.6h460.8c14.139 0 25.6-11.461 25.6-25.6s-11.461-25.6-25.6-25.6zM844.8 512c-42.349 0-76.8 34.453-76.8 76.8s34.451 76.8 76.8 76.8 76.8-34.453 76.8-76.8-34.451-76.8-76.8-76.8zm0 102.4c-14.115 0-25.6-11.485-25.6-25.6s11.485-25.6 25.6-25.6 25.6 11.485 25.6 25.6-11.485 25.6-25.6 25.6z" data-tags="printer, print"/><glyph unicode="" d="M914.101 683.701l-230.4 230.4A25.594 25.594 0 0 1 665.6 921.6H179.2c-42.347 0-76.8-34.453-76.8-76.8V25.6c0-42.349 34.453-76.8 76.8-76.8h665.6c42.349 0 76.8 34.451 76.8 76.8v640c0 6.79-2.698 13.301-7.499 18.101zM859.797 665.6H691.2c-14.115 0-25.6 11.485-25.6 25.6v168.597L859.797 665.6zm10.603-640c0-14.115-11.485-25.6-25.6-25.6H179.2c-14.115 0-25.6 11.485-25.6 25.6v819.2c0 14.115 11.485 25.6 25.6 25.6h435.2V691.2c0-42.347 34.451-76.8 76.8-76.8h179.2V25.6z" data-tags="file-empty, file, paper, new"/><glyph unicode="" d="M914.101 683.701l-230.4 230.4A25.594 25.594 0 0 1 665.6 921.6H179.2c-42.347 0-76.8-34.453-76.8-76.8V25.6c0-42.349 34.453-76.8 76.8-76.8h665.6c42.349 0 76.8 34.451 76.8 76.8v640c0 6.79-2.698 13.301-7.499 18.101zM859.797 665.6H691.2c-14.115 0-25.6 11.485-25.6 25.6v168.597L859.797 665.6zM844.8 0H179.2c-14.115 0-25.6 11.485-25.6 25.6v819.2c0 14.115 11.485 25.6 25.6 25.6h435.2V691.2c0-42.347 34.451-76.8 76.8-76.8h179.2V25.6c0-14.115-11.485-25.6-25.6-25.6zm-256 307.2h-128v128c0 14.139-11.462 25.6-25.6 25.6s-25.6-11.461-25.6-25.6v-128h-128c-14.138 0-25.6-11.461-25.6-25.6s11.462-25.6 25.6-25.6h128V128c0-14.139 11.462-25.6 25.6-25.6s25.6 11.461 25.6 25.6v128h128c14.139 0 25.6 11.461 25.6 25.6s-11.461 25.6-25.6 25.6z" data-tags="file-add, file"/><glyph unicode="" d="M896 870.4H435.2c-42.347 0-76.8-34.453-76.8-76.8V640c0-14.138 11.462-25.6 25.6-25.6s25.6 11.462 25.6 25.6v153.6c0 14.115 11.485 25.6 25.6 25.6h387.278l-196.702-84.301C590.688 719.861 563.2 678.176 563.2 640V153.6h-128c-14.115 0-25.6 11.485-25.6 25.6v153.6c0 14.139-11.462 25.6-25.6 25.6s-25.6-11.461-25.6-25.6V179.2c0-42.347 34.453-76.8 76.8-76.8h128V25.6c0-22.181 9.234-40.99 25.331-51.606 8.886-5.861 19.243-8.814 30.171-8.814 8.867 0 18.109 1.946 27.242 5.859L910.221 84.3c35.091 15.038 62.579 56.723 62.579 94.901v614.4c0 42.347-34.451 76.8-76.8 76.8zm25.6-691.2c0-17.963-15.035-40.765-31.546-47.838L625.777 18.101c-4.912-2.107-8.163-1.955-9.062-1.363-.894.59-2.315 3.518-2.315 8.862V640c0 17.962 15.035 40.763 31.546 47.838l273.043 117.019a25.44 25.44 0 0 0 2.611-11.258v-614.4zM427.701 504.501l-153.6 153.6c-9.997 9.998-26.206 9.998-36.203 0s-9.998-26.206 0-36.203L347.797 512H25.6C11.462 512 0 500.538 0 486.4s11.462-25.6 25.6-25.6h322.197L237.899 350.901c-9.998-9.997-9.998-26.206 0-36.203 4.998-4.998 11.549-7.498 18.101-7.498s13.102 2.499 18.101 7.499l153.6 153.6c9.998 9.997 9.998 26.205 0 36.202z" data-tags="enter, door, sign-in, log-in, login"/><glyph unicode="" d="M588.8 563.2c14.139 0 25.6 11.462 25.6 25.6v204.8c0 42.347-34.451 76.8-76.8 76.8H76.8C34.453 870.4 0 835.947 0 793.6V179.2c0-38.178 27.488-79.862 62.576-94.899L326.854-28.961c9.134-3.915 18.373-5.859 27.24-5.859 10.926.002 21.288 2.955 30.173 8.814C400.366-15.39 409.6 3.42 409.6 25.6v76.8h128c42.349 0 76.8 34.451 76.8 76.8V384c0 14.139-11.461 25.6-25.6 25.6s-25.6-11.461-25.6-25.6V179.2c0-14.115-11.485-25.6-25.6-25.6h-128V640c0 38.176-27.488 79.861-62.576 94.899L150.322 819.2H537.6c14.115 0 25.6-11.485 25.6-25.6V588.8c0-14.138 11.461-25.6 25.6-25.6zM326.854 687.838c16.51-7.075 31.546-29.877 31.546-47.838V25.6c0-5.344-1.421-8.272-2.317-8.862-.898-.589-4.15-.742-9.061 1.362L82.744 131.362C66.235 138.436 51.2 161.237 51.2 179.2v614.4c0 4.037.939 7.859 2.611 11.258l273.043-117.019zm612.847-183.337l-153.6 153.6c-9.997 9.998-26.206 9.998-36.203 0-9.998-9.997-9.998-26.206 0-36.203L859.797 512H537.6c-14.139 0-25.6-11.462-25.6-25.6s11.461-25.6 25.6-25.6h322.197L749.898 350.901c-9.998-9.997-9.998-26.206 0-36.203 5-4.998 11.55-7.498 18.102-7.498s13.102 2.499 18.101 7.499l153.6 153.6c9.998 9.997 9.998 26.205 0 36.202z" data-tags="exit, door, sign-out, log-out, logout"/><glyph unicode="" d="M955.296 613.086l-460.8 153.6a25.592 25.592 0 0 1-16.19 0l-460.8-153.6a25.6 25.6 0 0 1-.002-48.572L153.6 519.149V384a25.598 25.598 0 0 1 7.499-18.101C165.585 361.411 273.445 256 486.4 256c77.454 0 149.712 13.941 214.766 41.434 13.024 5.504 19.118 20.523 13.616 33.547-5.504 13.024-20.525 19.117-33.547 13.616C622.521 319.781 556.969 307.2 486.4 307.2c-99.586 0-172.84 25.781-216.758 47.41-32.53 16.019-54.259 32.203-64.842 40.926v106.547l273.504-91.168a25.575 25.575 0 0 1 16.192 0L768 502.083v-45.686c-29.797-10.568-51.2-39.024-51.2-72.397 0-31.269 18.792-58.213 45.666-70.181l-44.901-179.61c-1.91-7.648-.194-15.75 4.658-21.965s12.294-9.845 20.178-9.845h102.4a25.602 25.602 0 0 1 24.836 31.81l-44.901 179.61c26.874 11.968 45.666 38.912 45.666 70.181 0 33.373-21.403 61.829-51.2 72.397v62.752l136.096 45.366a25.6 25.6 0 0 1 0 48.571zM793.6 409.6c14.115 0 25.6-11.485 25.6-25.6s-11.485-25.6-25.6-25.6S768 369.885 768 384s11.485 25.6 25.6 25.6zm-18.413-256l18.413 73.648 18.413-73.648h-36.826zm16.349 410.298l-300.928 50.155c-13.952 2.322-27.136-7.099-29.461-21.042-2.325-13.947 7.098-27.138 21.043-29.461l205.533-34.256-201.323-67.11L106.554 588.8 486.4 715.416 866.245 588.8l-74.709-24.902z" data-tags="graduation-hat, education, university, college, school"/><glyph unicode="" d="M947.2 51.2H76.8C34.453 51.2 0 85.651 0 128v665.6c0 42.347 34.453 76.8 76.8 76.8h870.4c42.349 0 76.8-34.453 76.8-76.8V128c0-42.349-34.451-76.8-76.8-76.8zm-870.4 768c-14.115 0-25.6-11.485-25.6-25.6V128c0-14.115 11.485-25.6 25.6-25.6h870.4c14.115 0 25.6 11.485 25.6 25.6v665.6c0 14.115-11.485 25.6-25.6 25.6H76.8zm409.6-153.6H179.2c-14.138 0-25.6 11.462-25.6 25.6s11.462 25.6 25.6 25.6h307.2c14.138 0 25.6-11.462 25.6-25.6s-11.462-25.6-25.6-25.6zm0-153.6H179.2c-14.138 0-25.6 11.461-25.6 25.6s11.462 25.6 25.6 25.6h307.2c14.138 0 25.6-11.461 25.6-25.6S500.538 512 486.4 512zm0-102.4H179.2c-14.138 0-25.6 11.461-25.6 25.6s11.462 25.6 25.6 25.6h307.2c14.138 0 25.6-11.461 25.6-25.6s-11.462-25.6-25.6-25.6zm0-102.4H179.2c-14.138 0-25.6 11.461-25.6 25.6s11.462 25.6 25.6 25.6h307.2c14.138 0 25.6-11.461 25.6-25.6s-11.462-25.6-25.6-25.6zm-51.2-102.4h-256c-14.138 0-25.6 11.461-25.6 25.6s11.462 25.6 25.6 25.6h256c14.138 0 25.6-11.461 25.6-25.6s-11.462-25.6-25.6-25.6zm483.477 432.957l-41.646 30.258-15.909 48.957h-51.475l-41.646 30.258-41.645-30.258h-51.475l-15.909-48.957-41.646-30.258 15.909-48.957-15.909-48.957 41.646-30.259 6.752-20.774a24.942 24.942 0 0 1-.123-2.41v-256a25.597 25.597 0 0 1 15.803-23.651 25.598 25.598 0 0 1 27.899 5.55l58.698 58.698 58.699-58.699a25.578 25.578 0 0 1 18.107-7.499 25.602 25.602 0 0 1 25.593 25.602v256c0 .813-.046 1.616-.122 2.41l6.752 20.774 41.646 30.259-15.91 48.957 15.91 48.957zM677.514 618.2l25.01 18.17 9.554 29.4h30.912l25.011 18.173 25.011-18.171h30.912l9.554-29.4 25.01-18.17-9.554-29.402 9.554-29.4-25.01-18.171-9.554-29.4h-30.912l-25.011-18.173-25.011 18.171h-30.912l-9.554 29.4-25.01 18.171 9.554 29.402-9.554 29.4zm108.587-292.899c-9.997 9.997-26.206 9.997-36.203 0L716.8 292.203v168.426h9.555L768 430.371l41.645 30.256h9.555V292.201L786.101 325.3z" data-tags="license, certificate"/><glyph unicode="" d="M1014.803 915.654a25.592 25.592 0 0 1-20.982 5.533l-563.2-102.4c-12.173-2.213-21.021-12.816-21.021-25.187V209.968c-6.986 4.722-14.629 9.181-22.936 13.336C344.498 244.389 289.002 256 230.4 256s-114.098-11.611-156.264-32.696C26.33 199.402 0 165.555 0 128s26.33-71.402 74.136-95.304C116.302 11.611 171.798 0 230.4 0s114.098 11.611 156.264 32.696C434.47 56.598 460.8 90.445 460.8 128v516.294l512 94.549V312.368c-6.984 4.722-14.629 9.182-22.936 13.336C907.698 346.789 852.202 358.4 793.6 358.4s-114.098-11.611-156.264-32.696C589.528 301.802 563.2 267.955 563.2 230.4s26.328-71.402 74.136-95.304C679.502 114.011 734.998 102.4 793.6 102.4s114.098 11.611 156.264 32.696C997.672 158.998 1024 192.845 1024 230.4V896c0 7.59-3.368 14.79-9.197 19.654zM230.4 51.2C127.837 51.2 51.2 91.747 51.2 128s76.637 76.8 179.2 76.8 179.2-40.547 179.2-76.8-76.637-76.8-179.2-76.8zm230.4 645.162v75.874l512 93.091v-74.416l-512-94.549zM793.6 153.6c-102.565 0-179.2 40.547-179.2 76.8s76.635 76.8 179.2 76.8c102.566 0 179.2-40.547 179.2-76.8s-76.634-76.8-179.2-76.8z" data-tags="music-note, music, song, audio"/><glyph unicode="" d="M383.997 204.8a25.597 25.597 0 0 0-25.597 25.6v460.8a25.597 25.597 0 0 0 14.152 22.898 25.604 25.604 0 0 0 26.808-2.418l307.2-230.4a25.6 25.6 0 0 0 0-40.96l-307.2-230.4a25.594 25.594 0 0 0-15.363-5.12zM409.6 640V281.6l238.933 179.2L409.6 640zm588.8 230.4H25.6C11.462 870.4 0 858.938 0 844.8v-768c0-14.139 11.462-25.6 25.6-25.6h972.8c14.139 0 25.6 11.461 25.6 25.6v768c0 14.138-11.461 25.6-25.6 25.6zM153.6 409.6H51.2V512h102.4V409.6zm0 153.6H51.2v102.4h102.4V563.2zM51.2 358.4h102.4V256H51.2v102.4zm153.6 460.8h614.4V102.4H204.8v716.8zM870.4 512h102.4V409.6H870.4V512zm0 51.2v102.4h102.4V563.2H870.4zm0-204.8h102.4V256H870.4v102.4zm102.4 358.4H870.4v102.4h102.4V716.8zM153.6 819.2V716.8H51.2v102.4h102.4zM51.2 204.8h102.4V102.4H51.2v102.4zm819.2-102.4v102.4h102.4V102.4H870.4z" data-tags="film-play, video, movie"/><glyph unicode="" d="M979.496 99.669h-.008c-12.378.002-24.846 4.957-37.059 14.725L766.391 255.226c-28.272 22.613-49.59 66.97-49.59 103.174V512c0 36.203 21.318 80.56 49.589 103.174l176.037 140.83c12.216 9.773 24.686 14.726 37.066 14.726 22.155.002 44.509-16.675 44.509-53.931v-563.2c0-14.234-3.275-26.197-9.733-35.558-8.056-11.675-20.73-18.373-34.771-18.373zM972.8 714.736L798.373 575.194C782.477 562.477 768 532.357 768 512V358.4c0-20.358 14.477-50.478 30.371-63.194L972.8 155.664v559.072zM588.8 102.4h-512C34.453 102.4 0 136.853 0 179.2v512C0 733.547 34.453 768 76.8 768h512c42.347 0 76.8-34.453 76.8-76.8v-512c0-42.347-34.453-76.8-76.8-76.8zm-512 614.4c-14.115 0-25.6-11.485-25.6-25.6v-512c0-14.115 11.485-25.6 25.6-25.6h512c14.115 0 25.6 11.485 25.6 25.6v512c0 14.115-11.485 25.6-25.6 25.6h-512z" data-tags="camera-video, video"/><glyph unicode="" d="M486.4 204.8C359.357 204.8 256 308.157 256 435.2s103.357 230.4 230.4 230.4 230.4-103.357 230.4-230.4-103.357-230.4-230.4-230.4zm0 409.6c-98.811 0-179.2-80.389-179.2-179.2S387.589 256 486.4 256s179.2 80.389 179.2 179.2-80.389 179.2-179.2 179.2zM896 51.2H76.8C34.453 51.2 0 85.651 0 128v512c0 42.347 34.453 76.8 76.8 76.8h76.8c21.246 0 54.278 13.682 69.302 28.706l29.992 29.992C277.808 800.413 323.166 819.2 358.4 819.2h256c35.235 0 80.594-18.789 105.506-43.702l29.992-29.99c15.024-15.026 48.056-28.707 69.302-28.707H896c42.349 0 76.8-34.453 76.8-76.8v-512c0-42.349-34.451-76.8-76.8-76.8zM76.8 665.6c-14.115 0-25.6-11.485-25.6-25.6V128c0-14.115 11.485-25.6 25.6-25.6H896c14.115 0 25.6 11.485 25.6 25.6v512c0 14.115-11.485 25.6-25.6 25.6h-76.8c-35.235 0-80.594 18.789-105.506 43.702l-29.992 29.99c-15.024 15.026-48.056 28.707-69.302 28.707h-256c-21.246 0-54.278-13.682-69.302-28.706l-29.992-29.992c-24.914-24.915-70.272-43.702-105.506-43.702H76.8z" data-tags="camera, photo"/><glyph unicode="" d="M947.2-51.2H76.8C34.453-51.2 0-16.749 0 25.6V896c0 42.347 34.453 76.8 76.8 76.8h870.4c42.349 0 76.8-34.453 76.8-76.8V25.6c0-42.349-34.451-76.8-76.8-76.8zM76.8 921.6c-14.115 0-25.6-11.485-25.6-25.6V25.6C51.2 11.485 62.685 0 76.8 0h870.4c14.115 0 25.6 11.485 25.6 25.6V896c0 14.115-11.485 25.6-25.6 25.6H76.8zM665.6 512c-56.464 0-102.4 45.936-102.4 102.4s45.936 102.4 102.4 102.4S768 670.864 768 614.4 722.064 512 665.6 512zm0 153.6c-28.232 0-51.2-22.968-51.2-51.2s22.968-51.2 51.2-51.2 51.2 22.968 51.2 51.2-22.968 51.2-51.2 51.2zM896 870.4H128c-14.138 0-25.6-11.462-25.6-25.6V230.4c0-14.139 11.462-25.6 25.6-25.6h768c14.139 0 25.6 11.461 25.6 25.6v614.4c0 14.138-11.461 25.6-25.6 25.6zM153.6 374.267l164.318 184.858c4.203 4.728 9.694 7.371 15.462 7.44 5.725.09 11.322-2.438 15.638-7.062l283.27-303.502h-478.69v118.267zM870.4 256H702.325L386.45 594.437c-14.269 15.288-33.312 23.605-53.691 23.325-20.354-.246-39.214-8.992-53.107-24.621L153.601 451.333V819.2h716.8V256z" data-tags="picture, photo, polaroid"/><glyph unicode="" d="M742.4 51.2h-512c-14.138 0-25.6 11.461-25.6 25.6s11.462 25.6 25.6 25.6h512c14.139 0 25.6-11.461 25.6-25.6s-11.461-25.6-25.6-25.6zm102.4 768c-14.139 0-25.6-11.462-25.6-25.6v-768c0-14.115-11.485-25.6-25.6-25.6H230.4c-42.347 0-76.8 34.453-76.8 76.8s34.453 76.8 76.8 76.8h460.8c42.349 0 76.8 34.451 76.8 76.8v614.4c0 42.347-34.451 76.8-76.8 76.8h-512c-42.347 0-76.8-34.453-76.8-76.8v-768c0-70.579 57.421-128 128-128h563.2c42.349 0 76.8 34.451 76.8 76.8v768c0 14.138-11.461 25.6-25.6 25.6zm-665.6 51.2h512c14.115 0 25.6-11.485 25.6-25.6V230.4c0-14.115-11.485-25.6-25.6-25.6H230.4c-28.794 0-55.392-9.563-76.8-25.67V844.8c0 14.115 11.485 25.6 25.6 25.6z" data-tags="book, read"/><glyph unicode="" d="M793.605-51.202a25.603 25.603 0 0 0-19.442 8.941L486.4 293.462 198.637-42.261A25.6 25.6 0 0 0 153.601-25.6V896c0 14.138 11.462 25.6 25.6 25.6h614.4c14.139 0 25.6-11.462 25.6-25.6V-25.6a25.6 25.6 0 0 0-25.595-25.602zM486.4 358.4a25.603 25.603 0 0 0 19.437-8.939L768 43.603V870.4H204.8V43.603l262.163 305.858A25.6 25.6 0 0 0 486.4 358.4z" data-tags="bookmark, ribbon"/><glyph unicode="" d="M486.4 409.6c-155.275 0-281.6 126.325-281.6 281.6s126.325 281.6 281.6 281.6S768 846.475 768 691.2 641.675 409.6 486.4 409.6zm0 512C359.357 921.6 256 818.243 256 691.2s103.357-230.4 230.4-230.4c127.042 0 230.4 103.357 230.4 230.4S613.442 921.6 486.4 921.6zM896-51.2H76.8C34.453-51.2 0-16.749 0 25.6c0 3.485.712 86.285 62.72 168.96 36.094 48.126 85.514 86.36 146.883 113.634C284.56 341.508 377.688 358.4 486.4 358.4c108.71 0 201.838-16.893 276.797-50.206 61.37-27.275 110.789-65.507 146.883-113.634C972.088 111.885 972.8 29.085 972.8 25.6c0-42.349-34.451-76.8-76.8-76.8zM486.4 307.2c-178.52 0-310.267-48.789-381-141.093C52.389 96.933 51.205 26.203 51.2 25.497 51.2 11.484 62.685-.001 76.8-.001H896c14.115 0 25.6 11.485 25.6 25.6-.006.603-1.189 71.333-54.198 140.507C796.668 258.41 664.919 307.199 486.4 307.199z" data-tags="user, persona, profile, avatar"/><glyph unicode="" d="M947.2 51.2H384c-42.347 0-76.8 34.453-76.8 76.8 0 2.461.538 60.952 47.331 118.544 26.883 33.088 63.541 59.31 108.952 77.941C518.339 346.989 586.341 358.4 665.6 358.4s147.261-11.411 202.117-33.915c45.411-18.63 82.067-44.853 108.952-77.941C1023.463 188.952 1024 130.461 1024 128c0-42.347-34.453-76.8-76.8-76.8zm-588.8 76.669c.072-14.056 11.528-25.469 25.6-25.469h563.2c14.072 0 25.528 11.413 25.6 25.469-.048 1.786-1.656 45.802-37.851 88.786-49.88 59.235-143.019 90.546-269.349 90.546s-219.469-31.31-269.349-90.546c-36.194-42.984-37.803-87-37.851-88.786zM665.6 409.6c-112.926 0-204.8 91.874-204.8 204.8 0 112.928 91.874 204.8 204.8 204.8s204.8-91.872 204.8-204.8c0-112.926-91.874-204.8-204.8-204.8zm0 358.4C580.904 768 512 699.096 512 614.4s68.904-153.6 153.6-153.6 153.6 68.904 153.6 153.6S750.296 768 665.6 768zM230.4 51.2H76.8C34.453 51.2 0 85.651 0 128c0 1.915.386 47.446 33.92 92.16 19.373 25.832 45.778 46.299 78.483 60.834C151.529 298.383 199.841 307.2 256 307.2c9.16 0 18.232-.235 26.962-.701 14.118-.754 24.954-12.81 24.2-26.928-.752-14.117-12.781-24.96-26.928-24.2-7.826.418-15.979.629-24.234.629C56.634 256 51.334 134.174 51.2 127.869c.072-14.054 11.528-25.469 25.6-25.469h153.6c14.138 0 25.6-11.461 25.6-25.6s-11.462-25.6-25.6-25.6zM256 358.4c-84.696 0-153.6 68.904-153.6 153.6S171.304 665.6 256 665.6 409.6 596.696 409.6 512 340.696 358.4 256 358.4zm0 256c-56.464 0-102.4-45.936-102.4-102.4S199.536 409.6 256 409.6 358.4 455.536 358.4 512c0 56.464-45.936 102.4-102.4 102.4z" data-tags="users, group, team, people"/><glyph unicode="" d="M691.2 0H281.6c-42.347 0-76.8 34.451-76.8 76.8v476.482L84.896 513.314c-13.414-4.472-27.91 2.778-32.381 16.19l-51.2 153.6c-4.029 12.086 1.442 25.296 12.837 30.994l307.2 153.6A25.6 25.6 0 0 0 358.4 844.8c0-70.579 57.421-128 128-128s128 57.421 128 128a25.6 25.6 0 0 0 37.048 22.898l307.2-153.6c11.395-5.698 16.867-18.907 12.837-30.994l-51.2-153.6c-4.47-13.411-18.966-20.662-32.381-16.19L768 553.282V76.8C768 34.451 733.549 0 691.2 0zM230.398 614.4A25.597 25.597 0 0 0 256 588.8v-512c0-14.115 11.485-25.6 25.6-25.6h409.6c14.115 0 25.6 11.485 25.6 25.6v512a25.602 25.602 0 0 0 33.696 24.286l129.314-43.104 36.083 108.25-254.624 127.312C643.323 725.549 571.731 665.6 486.4 665.6c-85.333 0-156.925 59.949-174.869 139.944L56.907 678.232l36.083-108.25 129.314 43.104a25.633 25.633 0 0 0 8.094 1.314z" data-tags="shirt, clothing, tee, tshirt"/><glyph unicode="" d="M921.6 486.4v51.2a25.6 25.6 0 0 1-2.702 11.448l-102.4 204.8A25.597 25.597 0 0 1 793.6 768H179.2a25.597 25.597 0 0 1-22.898-14.152l-102.4-204.8A25.587 25.587 0 0 1 51.2 537.6v-51.2c0-41.786 20.131-78.955 51.2-102.33V51.2H76.8c-14.138 0-25.6-11.461-25.6-25.6S62.662 0 76.8 0H896c14.139 0 25.6 11.461 25.6 25.6S910.139 51.2 896 51.2h-25.598v332.87c31.067 23.376 51.198 60.544 51.198 102.33zm-332.8-76.8c-42.347 0-76.8 34.453-76.8 76.8V512h153.6v-25.6c0-42.347-34.453-76.8-76.8-76.8zm-486.4 76.8V512H256v-25.6c0-42.347-34.453-76.8-76.8-76.8s-76.8 34.453-76.8 76.8zm358.4 230.4V563.2H314.387l38.4 153.6H460.8zm159.213 0l38.4-153.6H512v153.6h108.013zM307.2 512h153.6v-25.6c0-42.347-34.453-76.8-76.8-76.8s-76.8 34.453-76.8 76.8V512zm409.6 0h153.6v-25.6c0-42.347-34.453-76.8-76.8-76.8s-76.8 34.453-76.8 76.8V512zm137.778 51.2h-143.39l-38.4 153.6h104.99l76.8-153.6zM195.022 716.8h104.99l-38.4-153.6h-143.39l76.8 153.6zM153.6 360.974a128.11 128.11 0 0 1 25.6-2.574c41.827 0 79.029 20.168 102.4 51.29 23.371-31.122 60.573-51.29 102.4-51.29s79.029 20.168 102.4 51.29c18.474-24.598 45.589-42.354 76.8-48.714V51.2H153.6v309.774zM819.202 51.2H614.4v309.774c31.211 6.362 58.325 24.115 76.8 48.714 23.371-31.12 60.573-51.288 102.4-51.288 8.766 0 17.326.89 25.602 2.576V51.2zM716.8 230.4c0-14.138-11.462-25.6-25.6-25.6s-25.6 11.462-25.6 25.6c0 14.138 11.462 25.6 25.6 25.6s25.6-11.462 25.6-25.6zm-486.4-25.6a25.517 25.517 0 0 0-18.102 7.499c-9.997 9.997-9.997 26.206 0 36.203l51.2 51.2c9.998 9.997 26.206 9.997 36.205 0 9.997-9.997 9.997-26.206 0-36.203l-51.2-51.2c-5-5-11.55-7.499-18.102-7.499zm51.2-102.4a25.513 25.513 0 0 0-18.101 7.499c-9.998 9.997-9.998 26.206 0 36.203l153.6 153.6c9.997 9.997 26.206 9.997 36.203 0 9.998-9.997 9.998-26.206 0-36.203l-153.6-153.6c-5-5-11.55-7.499-18.102-7.499zm153.6 0a25.517 25.517 0 0 0-18.102 7.499c-9.997 9.997-9.997 26.206 0 36.203l51.2 51.2c9.998 9.997 26.206 9.997 36.205 0s9.998-26.206 0-36.203l-51.2-51.2c-5-5-11.55-7.499-18.102-7.499z" data-tags="store, shop, market"/><glyph unicode="" d="M409.6-51.2c-56.464 0-102.4 45.936-102.4 102.4s45.936 102.4 102.4 102.4S512 107.664 512 51.2 466.064-51.2 409.6-51.2zm0 153.6c-28.232 0-51.2-22.968-51.2-51.2S381.368 0 409.6 0s51.2 22.968 51.2 51.2-22.968 51.2-51.2 51.2zM768-51.2c-56.464 0-102.4 45.936-102.4 102.4S711.536 153.6 768 153.6s102.4-45.936 102.4-102.4S824.464-51.2 768-51.2zm0 153.6c-28.232 0-51.2-22.968-51.2-51.2S739.768 0 768 0s51.2 22.968 51.2 51.2-22.968 51.2-51.2 51.2zm130.021 641.712C885.162 759.293 865.763 768 844.8 768H217.954l-5.085 30.506C206.149 838.821 168.871 870.4 128 870.4H76.8c-14.138 0-25.6-11.462-25.6-25.6s11.462-25.6 25.6-25.6H128c15.722 0 31.781-13.603 34.366-29.112l85.566-513.395c6.718-40.314 43.997-71.893 84.867-71.893h512c14.139 0 25.6 11.461 25.6 25.6s-11.461 25.6-25.6 25.6h-512c-15.722 0-31.781 13.603-34.366 29.11l-12.63 75.784 510.206 44.366c39.69 3.451 75.907 36.938 82.458 76.234l34.366 206.194c3.448 20.677-1.952 41.243-14.813 56.424zm-35.69-48.006l-34.366-206.194c-2.699-16.186-20.043-32.221-36.39-33.645l-514.214-44.714-50.874 305.246h618.314c5.968 0 10.995-2.054 14.155-5.782 3.157-3.73 4.357-9.024 3.376-14.912z" data-tags="cart, shop"/><glyph unicode="" d="M384-4.33c-20.554 0-39.84 7.966-54.306 22.43L69.3 278.495c-14.466 14.464-22.432 33.75-22.432 54.304s7.966 39.84 22.434 54.306l439.594 439.592c24.91 24.914 70.269 43.702 105.504 43.702h230.4c42.349 0 76.8-34.453 76.8-76.8v-230.4c0-35.232-18.787-80.59-43.699-105.504L438.306 18.1C423.84 3.634 404.554-4.33 384-4.33zM614.4 819.2c-21.246 0-54.278-13.682-69.299-28.704L105.506 350.901c-4.795-4.795-7.435-11.224-7.435-18.101s2.64-13.306 7.435-18.099L365.9 54.304c4.795-4.794 11.224-7.434 18.101-7.434s13.307 2.64 18.102 7.435l439.594 439.592c15.021 15.024 28.704 48.058 28.704 69.302v230.4c0 14.115-11.485 25.6-25.6 25.6h-230.4zm128-204.8c-42.349 0-76.8 34.453-76.8 76.8s34.451 76.8 76.8 76.8 76.8-34.453 76.8-76.8-34.451-76.8-76.8-76.8zm0 102.4c-14.115 0-25.6-11.485-25.6-25.6s11.485-25.6 25.6-25.6 25.6 11.485 25.6 25.6-11.485 25.6-25.6 25.6z" data-tags="tag, price"/><glyph unicode="" d="M819.2-51.2c-90.691 0-187.154 25.699-286.706 76.386C440.7 71.922 350.014 138.84 270.236 218.708c-79.763 79.853-146.595 170.624-193.272 262.498C26.356 580.816.695 677.308.695 768.001c0 58.774 54.765 115.55 78.31 137.232 33.85 31.17 87.104 67.568 125.794 67.568 19.245 0 41.803-12.589 70.994-39.616 21.782-20.17 46.27-47.51 70.814-79.067 14.794-19.021 88.592-116.267 88.592-162.917 0-38.27-43.25-64.853-89.037-92.998-17.694-10.875-35.992-22.122-49.226-32.73-14.114-11.315-16.645-17.288-17.061-18.629 48.602-121.128 197.141-269.651 318.203-318.184 1.085.341 7.067 2.699 18.592 17.075 10.608 13.234 21.854 31.531 32.73 49.227C677.544 340.751 704.126 384 742.398 384c46.648 0 143.896-73.798 162.917-88.592 31.557-24.546 58.898-49.032 79.067-70.816 27.029-29.189 39.616-51.747 39.616-70.992 0-38.701-36.378-92.115-67.528-126.099C934.777 3.839 877.979-51.2 819.198-51.2zM204.477 921.597c-13.731-.262-50.634-17.054-90.789-54.029-38.115-35.099-61.792-73.25-61.792-99.568C51.896 423.477 474.989 0 819.2 0c26.28 0 64.418 23.795 99.528 62.099 37.003 40.366 53.806 77.413 54.069 91.178-1.662 9.728-28.57 47.563-102.232 104.283-63.322 48.762-114.699 74.886-127.901 75.237-.925-.274-6.656-2.467-18.277-17.222-10.104-12.832-20.912-30.418-31.366-47.424-28.683-46.666-55.774-90.744-95.122-90.744-6.336 0-12.597 1.219-18.608 3.624-134.376 53.75-293.31 212.685-347.061 347.061-6.456 16.138-7.485 41.414 24.272 70.184 16.882 15.293 40.25 29.656 62.848 43.546 17.006 10.453 34.59 21.261 47.422 31.366 14.755 11.619 16.95 17.352 17.222 18.277-.352 13.203-26.475 64.579-75.237 127.902-56.72 73.659-94.554 100.568-104.282 102.23z" data-tags="phone-handset, telephone, phone, call, contact"/><glyph unicode="" d="M916.19 517.291c-53.283-.002-149.901 19.214-180.016 49.326-18.466 18.466-22.854 41.64-26.381 60.262-4.344 22.931-6.95 29.755-17.01 34.077-46.194 19.853-112.456 31.238-181.8 31.238-68.621 0-134.16-11.189-179.81-30.699-9.939-4.248-12.499-11.05-16.741-33.938-3.459-18.672-7.765-41.91-26.234-60.381-16.814-16.813-51.976-28.36-78.512-35.086-34.218-8.674-70.85-13.646-100.502-13.646-33.982 0-56.965 6.461-70.258 19.755-20.021 20.019-32.797 47.4-35.05 75.12-1.901 23.365 2.6 57.979 34.824 90.205 52.315 52.315 122.699 93.11 209.195 121.253 79.549 25.882 170.093 39.562 261.842 39.562 92.378 0 183.67-13.848 264.006-40.048 87.304-28.472 158.35-69.688 211.163-122.499 53.766-53.765 40.451-125.102.629-164.928-13.173-13.17-35.856-19.571-69.347-19.573zM510.986 743.395c77.157 0 148.901-12.571 202.014-35.398 36.51-15.69 42.632-48 47.099-71.59 2.672-14.104 4.979-26.285 12.28-33.586 12.915-12.914 87.362-34.331 143.811-34.33 24.638 0 32.398 4.219 33.4 4.835 15.851 16.061 35.757 55.621-.885 92.261-92.392 92.392-256.493 147.552-438.966 147.552-180.973 0-343.526-54.51-434.832-145.818-14.76-14.76-21.488-31.533-19.998-49.853 1.258-15.462 8.72-31.445 19.986-42.827.965-.606 8.846-5 34.291-5 56.242 0 130.12 21.048 142.811 33.738 7.226 7.227 9.482 19.403 12.094 33.502 4.382 23.659 10.386 56.061 46.963 71.691 52.538 22.456 123.541 34.822 199.931 34.822zM844.8 51.2H179.2c-34.347 0-66.043 13.509-89.248 38.04-23.206 24.531-34.936 56.928-33.032 91.222.218 3.928 6.024 97.307 65.029 191.453 34.904 55.694 81.181 100.088 137.541 131.946C329.148 543.235 414.103 563.2 512 563.2s182.853-19.965 252.509-59.339c56.363-31.858 102.637-76.251 137.542-131.946 59.005-94.146 64.811-187.525 65.03-191.453 1.904-34.296-9.827-66.691-33.034-91.222S879.146 51.2 844.799 51.2zM512 512c-159.592 0-275.859-55.696-345.574-165.541-52.726-83.077-58.336-168.038-58.387-168.888-1.114-20.05 5.67-38.942 19.107-53.146s31.923-22.026 52.054-22.026h665.6c20.131 0 38.618 7.822 52.054 22.027 13.435 14.203 20.222 33.096 19.104 53.195-.046.798-5.658 85.762-58.384 168.837C787.859 456.303 671.59 511.999 512 511.999zm0-358.4c-84.696 0-153.6 68.904-153.6 153.6S427.304 460.8 512 460.8s153.6-68.904 153.6-153.6S596.696 153.6 512 153.6zm0 256c-56.464 0-102.4-45.936-102.4-102.4S455.536 204.8 512 204.8c56.464 0 102.4 45.936 102.4 102.4S568.464 409.6 512 409.6z" data-tags="phone, telephone, call, contact"/><glyph unicode="" d="M921.6 625.003L650.603 896c-9.65 9.65-22.507 14.965-36.203 14.965s-26.554-5.314-36.203-14.965L563.2 881.003c-14.834-14.834-25.6-40.826-25.6-61.803V768c0-7.288-5.45-20.446-10.603-25.6L384 599.403c-5.152-5.154-18.312-10.603-25.6-10.603h-51.2c-20.978 0-46.97-10.766-61.803-25.6L230.4 548.203c-19.963-19.963-19.963-52.443 0-72.406l79.534-79.534L56.508 66.81c-7.84-10.192-6.902-24.619 2.189-33.71a25.558 25.558 0 0 1 18.109-7.499 25.53 25.53 0 0 1 15.602 5.309l329.453 253.426 79.536-79.534c9.65-9.651 22.507-14.966 36.203-14.966s26.554 5.314 36.203 14.966l14.997 14.997c14.834 14.834 25.6 40.826 25.6 61.803v51.2c0 7.288 5.45 20.446 10.603 25.6L768 501.399c5.154 5.154 18.312 10.603 25.6 10.603h51.2c20.976 0 46.968 10.766 61.803 25.6l14.997 14.997c9.65 9.65 14.966 22.507 14.966 36.203s-5.317 26.554-14.966 36.203zM216.757 191.158l129.688 168.594 38.906-38.906-168.594-129.688zM870.4 573.803c-5.154-5.154-18.312-10.603-25.6-10.603h-51.2c-20.976 0-46.968-10.766-61.803-25.6L588.8 394.603c-14.834-14.834-25.6-40.826-25.6-61.803v-51.2c0-7.288-5.45-20.446-10.603-25.6l-14.93-14.958a.214.214 0 0 0-.067-.008v-.032L266.603 512l14.998 14.998c5.152 5.154 18.312 10.603 25.6 10.603h51.2c20.978 0 46.97 10.766 61.803 25.6l142.995 142.995c14.834 14.834 25.6 40.826 25.6 61.803v51.2c0 7.288 5.45 20.446 10.603 25.6l14.997 14.997 270.997-270.997-14.997-14.997z" data-tags="pushpin, pin, location"/><glyph unicode="" d="M512-51.2a25.597 25.597 0 0 0-20.13 9.784c-2.931 3.73-72.587 92.864-143.229 224.51-41.581 77.491-74.742 153.568-98.565 226.118-30.043 91.499-45.277 177.758-45.277 256.387 0 169.39 137.81 307.2 307.2 307.2s307.2-137.81 307.2-307.2c0-78.629-15.234-164.888-45.278-256.386-23.822-72.55-56.984-148.629-98.565-226.118-70.64-131.646-140.298-220.781-143.229-224.51a25.589 25.589 0 0 0-20.128-9.786zm0 972.8c-141.158 0-256-114.842-256-256 0-166.597 74.914-341.176 137.758-458.296 46.186-86.074 92.634-154.306 118.237-189.938 25.709 35.789 72.429 104.432 118.688 190.76C693.326 325.028 768 499.289 768 665.6c0 141.158-114.84 256-256 256zm0-409.6c-84.696 0-153.6 68.904-153.6 153.6S427.304 819.2 512 819.2s153.6-68.904 153.6-153.6S596.696 512 512 512zm0 256c-56.464 0-102.4-45.936-102.4-102.4S455.536 563.2 512 563.2c56.464 0 102.4 45.936 102.4 102.4S568.464 768 512 768z" data-tags="map-marker, pin, location"/><glyph unicode="" d="M960.659 917.776a25.606 25.606 0 0 1-24.907 1.122L640 771.023 344.248 918.898a25.605 25.605 0 0 1-22.898 0l-307.2-153.6A25.6 25.6 0 0 1 0 742.4v-768a25.6 25.6 0 0 1 37.048-22.898L332.8 99.377 628.552-48.498a25.607 25.607 0 0 1 22.899 0l307.2 153.6A25.597 25.597 0 0 1 972.803 128v768a25.609 25.609 0 0 1-12.144 21.776zM307.2 143.822l-256-128v710.755l256 128V143.822zm51.2 710.756l256-128V15.821l-256 128v710.757zm563.2-710.756l-256-128v710.755l256 128V143.822z" data-tags="map, guide, address"/><glyph unicode="" d="M435.202-51.202a25.57 25.57 0 0 0-6.642.878 25.597 25.597 0 0 0-18.96 24.723v384h-384a25.597 25.597 0 0 0-24.723 18.96 25.596 25.596 0 0 0 11.898 28.795l972.8 563.2a25.601 25.601 0 0 0 34.981-34.983l-563.2-972.8a25.605 25.605 0 0 0-22.154-12.774zM120.912 409.6H435.2c14.138 0 25.6-11.461 25.6-25.6V69.712l467.346 807.234L120.912 409.6z" data-tags="location, compass, direction"/><glyph unicode="" d="M947.2 870.4h-128V896c0 14.138-11.461 25.6-25.6 25.6S768 910.138 768 896v-25.6H256V896c0 14.138-11.462 25.6-25.6 25.6s-25.6-11.462-25.6-25.6v-25.6h-128C34.453 870.4 0 835.947 0 793.6V76.8C0 34.451 34.453 0 76.8 0h870.4c42.349 0 76.8 34.451 76.8 76.8v716.8c0 42.347-34.451 76.8-76.8 76.8zM76.8 819.2h128v-76.8c0-14.138 11.462-25.6 25.6-25.6s25.6 11.462 25.6 25.6v76.8h512v-76.8c0-14.138 11.461-25.6 25.6-25.6s25.6 11.462 25.6 25.6v76.8h128c14.115 0 25.6-11.485 25.6-25.6v-128H51.2v128c0 14.115 11.485 25.6 25.6 25.6zm870.4-768H76.8c-14.115 0-25.6 11.485-25.6 25.6v537.6h921.6V76.8c0-14.115-11.485-25.6-25.6-25.6zM384 460.8h-51.2c-14.138 0-25.6 11.461-25.6 25.6s11.462 25.6 25.6 25.6H384c14.138 0 25.6-11.461 25.6-25.6s-11.462-25.6-25.6-25.6zm153.6 0h-51.2c-14.138 0-25.6 11.461-25.6 25.6s11.462 25.6 25.6 25.6h51.2c14.139 0 25.6-11.461 25.6-25.6s-11.461-25.6-25.6-25.6zm153.6 0H640c-14.139 0-25.6 11.461-25.6 25.6S625.861 512 640 512h51.2c14.139 0 25.6-11.461 25.6-25.6s-11.461-25.6-25.6-25.6zm153.6 0h-51.2c-14.139 0-25.6 11.461-25.6 25.6s11.461 25.6 25.6 25.6h51.2c14.139 0 25.6-11.461 25.6-25.6s-11.461-25.6-25.6-25.6zM230.4 358.4h-51.2c-14.138 0-25.6 11.461-25.6 25.6s11.462 25.6 25.6 25.6h51.2c14.138 0 25.6-11.461 25.6-25.6s-11.462-25.6-25.6-25.6zm153.6 0h-51.2c-14.138 0-25.6 11.461-25.6 25.6s11.462 25.6 25.6 25.6H384c14.138 0 25.6-11.461 25.6-25.6s-11.462-25.6-25.6-25.6zm153.6 0h-51.2c-14.138 0-25.6 11.461-25.6 25.6s11.462 25.6 25.6 25.6h51.2c14.139 0 25.6-11.461 25.6-25.6s-11.461-25.6-25.6-25.6zm153.6 0H640c-14.139 0-25.6 11.461-25.6 25.6s11.461 25.6 25.6 25.6h51.2c14.139 0 25.6-11.461 25.6-25.6s-11.461-25.6-25.6-25.6zm153.6 0h-51.2c-14.139 0-25.6 11.461-25.6 25.6s11.461 25.6 25.6 25.6h51.2c14.139 0 25.6-11.461 25.6-25.6s-11.461-25.6-25.6-25.6zM230.4 256h-51.2c-14.138 0-25.6 11.461-25.6 25.6s11.462 25.6 25.6 25.6h51.2c14.138 0 25.6-11.461 25.6-25.6S244.538 256 230.4 256zm153.6 0h-51.2c-14.138 0-25.6 11.461-25.6 25.6s11.462 25.6 25.6 25.6H384c14.138 0 25.6-11.461 25.6-25.6S398.138 256 384 256zm153.6 0h-51.2c-14.138 0-25.6 11.461-25.6 25.6s11.462 25.6 25.6 25.6h51.2c14.139 0 25.6-11.461 25.6-25.6S551.739 256 537.6 256zm153.6 0H640c-14.139 0-25.6 11.461-25.6 25.6s11.461 25.6 25.6 25.6h51.2c14.139 0 25.6-11.461 25.6-25.6S705.339 256 691.2 256zm153.6 0h-51.2c-14.139 0-25.6 11.461-25.6 25.6s11.461 25.6 25.6 25.6h51.2c14.139 0 25.6-11.461 25.6-25.6S858.939 256 844.8 256zM230.4 153.6h-51.2c-14.138 0-25.6 11.461-25.6 25.6s11.462 25.6 25.6 25.6h51.2c14.138 0 25.6-11.461 25.6-25.6s-11.462-25.6-25.6-25.6zm153.6 0h-51.2c-14.138 0-25.6 11.461-25.6 25.6s11.462 25.6 25.6 25.6H384c14.138 0 25.6-11.461 25.6-25.6s-11.462-25.6-25.6-25.6zm153.6 0h-51.2c-14.138 0-25.6 11.461-25.6 25.6s11.462 25.6 25.6 25.6h51.2c14.139 0 25.6-11.461 25.6-25.6s-11.461-25.6-25.6-25.6zm153.6 0H640c-14.139 0-25.6 11.461-25.6 25.6s11.461 25.6 25.6 25.6h51.2c14.139 0 25.6-11.461 25.6-25.6s-11.461-25.6-25.6-25.6zm153.6 0h-51.2c-14.139 0-25.6 11.461-25.6 25.6s11.461 25.6 25.6 25.6h51.2c14.139 0 25.6-11.461 25.6-25.6s-11.461-25.6-25.6-25.6z" data-tags="calendar-full, calendar, date, schedule"/><glyph unicode="" d="M896 153.6H76.8C34.453 153.6 0 188.051 0 230.4V640c0 42.347 34.453 76.8 76.8 76.8H896c42.349 0 76.8-34.453 76.8-76.8V230.4c0-42.349-34.451-76.8-76.8-76.8zm-819.2 512c-14.115 0-25.6-11.485-25.6-25.6V230.4c0-14.115 11.485-25.6 25.6-25.6H896c14.115 0 25.6 11.485 25.6 25.6V640c0 14.115-11.485 25.6-25.6 25.6H76.8zm102.4-102.4H128c-14.138 0-25.6 11.461-25.6 25.6s11.462 25.6 25.6 25.6h51.2c14.138 0 25.6-11.461 25.6-25.6s-11.462-25.6-25.6-25.6zm665.6 0h-51.2c-14.139 0-25.6 11.461-25.6 25.6s11.461 25.6 25.6 25.6h51.2c14.139 0 25.6-11.461 25.6-25.6s-11.461-25.6-25.6-25.6zM230.4 460.8H128c-14.138 0-25.6 11.461-25.6 25.6S113.862 512 128 512h102.4c14.138 0 25.6-11.461 25.6-25.6s-11.462-25.6-25.6-25.6zM179.2 256H128c-14.138 0-25.6 11.461-25.6 25.6s11.462 25.6 25.6 25.6h51.2c14.138 0 25.6-11.461 25.6-25.6S193.338 256 179.2 256zm409.6 0H281.6c-14.138 0-25.6 11.461-25.6 25.6s11.462 25.6 25.6 25.6h307.2c14.139 0 25.6-11.461 25.6-25.6S602.939 256 588.8 256zm153.6 0h-51.2c-14.139 0-25.6 11.461-25.6 25.6s11.461 25.6 25.6 25.6h51.2c14.139 0 25.6-11.461 25.6-25.6S756.539 256 742.4 256zm102.4 102.4H691.2c-14.139 0-25.6 11.461-25.6 25.6s11.461 25.6 25.6 25.6h128v76.8c0 14.139 11.461 25.6 25.6 25.6s25.6-11.461 25.6-25.6V384c0-14.139-11.461-25.6-25.6-25.6zm-563.2 0H128c-14.138 0-25.6 11.461-25.6 25.6s11.462 25.6 25.6 25.6h153.6c14.138 0 25.6-11.461 25.6-25.6s-11.462-25.6-25.6-25.6zm25.6 230.4c0-14.138-11.462-25.6-25.6-25.6S256 574.662 256 588.8c0 14.138 11.462 25.6 25.6 25.6s25.6-11.462 25.6-25.6zm102.4 0c0-14.138-11.462-25.6-25.6-25.6s-25.6 11.462-25.6 25.6c0 14.138 11.462 25.6 25.6 25.6s25.6-11.462 25.6-25.6zm102.4 0c0-14.138-11.462-25.6-25.6-25.6s-25.6 11.462-25.6 25.6c0 14.138 11.462 25.6 25.6 25.6s25.6-11.462 25.6-25.6zm102.4 0c0-14.138-11.462-25.6-25.6-25.6s-25.6 11.462-25.6 25.6c0 14.138 11.462 25.6 25.6 25.6s25.6-11.462 25.6-25.6zm102.4 0c0-14.138-11.462-25.6-25.6-25.6s-25.6 11.462-25.6 25.6c0 14.138 11.462 25.6 25.6 25.6s25.6-11.462 25.6-25.6zM358.4 486.4c0-14.138-11.462-25.6-25.6-25.6s-25.6 11.462-25.6 25.6c0 14.138 11.462 25.6 25.6 25.6s25.6-11.462 25.6-25.6zm102.4 0c0-14.138-11.462-25.6-25.6-25.6s-25.6 11.462-25.6 25.6c0 14.138 11.462 25.6 25.6 25.6s25.6-11.462 25.6-25.6zm102.4 0c0-14.138-11.462-25.6-25.6-25.6S512 472.262 512 486.4c0 14.138 11.462 25.6 25.6 25.6s25.6-11.462 25.6-25.6zm102.4 0c0-14.138-11.462-25.6-25.6-25.6s-25.6 11.462-25.6 25.6c0 14.138 11.462 25.6 25.6 25.6s25.6-11.462 25.6-25.6zm102.4 0c0-14.138-11.462-25.6-25.6-25.6s-25.6 11.462-25.6 25.6c0 14.138 11.462 25.6 25.6 25.6s25.6-11.462 25.6-25.6zM409.6 384c0-14.138-11.462-25.6-25.6-25.6s-25.6 11.462-25.6 25.6c0 14.138 11.462 25.6 25.6 25.6s25.6-11.462 25.6-25.6zm102.4 0c0-14.138-11.462-25.6-25.6-25.6s-25.6 11.462-25.6 25.6c0 14.138 11.462 25.6 25.6 25.6S512 398.138 512 384zm102.4 0c0-14.138-11.462-25.6-25.6-25.6s-25.6 11.462-25.6 25.6c0 14.138 11.462 25.6 25.6 25.6s25.6-11.462 25.6-25.6z" data-tags="keyboard, type, typing"/><glyph unicode="" d="M230.4 256c-14.138 0-25.6-11.461-25.6-25.6v-.07C183.392 246.437 156.794 256 128 256 57.421 256 0 198.579 0 128S57.421 0 128 0c28.794 0 55.392 9.563 76.8 25.67v-.07c0-14.139 11.462-25.6 25.6-25.6S256 11.461 256 25.6v204.8c0 14.139-11.462 25.6-25.6 25.6zM128 51.2c-42.347 0-76.8 34.453-76.8 76.8s34.453 76.8 76.8 76.8 76.8-34.453 76.8-76.8-34.453-76.8-76.8-76.8zM435.2 256c-28.794 0-55.392-9.563-76.8-25.67V435.2c0 14.139-11.462 25.6-25.6 25.6s-25.6-11.461-25.6-25.6V25.6c0-14.139 11.462-25.6 25.6-25.6s25.6 11.461 25.6 25.6v.07C379.808 9.563 406.406 0 435.2 0c70.579 0 128 57.421 128 128s-57.421 128-128 128zm0-204.8c-42.347 0-76.8 34.453-76.8 76.8s34.453 76.8 76.8 76.8S512 170.347 512 128s-34.453-76.8-76.8-76.8zM742.4 0c-70.579 0-128 57.421-128 128s57.421 128 128 128c22.496 0 44.632-5.925 64.014-17.136 12.238-7.08 16.422-22.739 9.344-34.978-7.082-12.24-22.744-16.421-34.978-9.344-11.603 6.71-24.875 10.258-38.381 10.258-42.347 0-76.8-34.453-76.8-76.8s34.453-76.8 76.8-76.8c13.509 0 26.782 3.547 38.382 10.258 12.235 7.078 27.898 2.899 34.978-9.341 7.08-12.237 2.899-27.899-9.341-34.978C787.036 5.926 764.898 0 742.399 0zM588.8 435.2a25.513 25.513 0 0 0-18.101 7.499l-153.6 153.6c-9.997 9.998-9.997 26.206 0 36.205 9.998 9.997 26.206 9.997 36.205 0L588.8 497.005l340.299 340.298c9.997 9.997 26.206 9.997 36.203 0 9.998-9.998 9.998-26.206 0-36.205l-358.4-358.4A25.524 25.524 0 0 0 588.8 435.2z" data-tags="spell-check, spelling"/><glyph unicode="" d="M896 870.4H76.8C34.453 870.4 0 835.947 0 793.6v-512c0-42.349 34.453-76.8 76.8-76.8h384V102.4H281.6c-14.138 0-25.6-11.461-25.6-25.6s11.462-25.6 25.6-25.6h409.6c14.139 0 25.6 11.461 25.6 25.6s-11.461 25.6-25.6 25.6H512v102.4h384c42.349 0 76.8 34.451 76.8 76.8v512c0 42.347-34.451 76.8-76.8 76.8zm25.6-588.8c0-14.115-11.485-25.6-25.6-25.6H76.8c-14.115 0-25.6 11.485-25.6 25.6v512c0 14.115 11.485 25.6 25.6 25.6H896c14.115 0 25.6-11.485 25.6-25.6v-512z" data-tags="screen, monitor"/><glyph unicode="" d="M537.6 51.2h-51.2c-14.138 0-25.6 11.461-25.6 25.6s11.462 25.6 25.6 25.6h51.2c14.139 0 25.6-11.461 25.6-25.6s-11.461-25.6-25.6-25.6zM742.4-51.2H281.6c-42.347 0-76.8 34.451-76.8 76.8V896c0 42.347 34.453 76.8 76.8 76.8h460.8c42.349 0 76.8-34.453 76.8-76.8V25.6c0-42.349-34.451-76.8-76.8-76.8zM281.6 921.6c-14.115 0-25.6-11.485-25.6-25.6V25.6C256 11.485 267.485 0 281.6 0h460.8C756.515 0 768 11.485 768 25.6V896c0 14.115-11.485 25.6-25.6 25.6H281.6zm409.6-768H332.8c-14.138 0-25.6 11.461-25.6 25.6v665.6c0 14.138 11.462 25.6 25.6 25.6h358.4c14.139 0 25.6-11.462 25.6-25.6V179.2c0-14.139-11.461-25.6-25.6-25.6zm-332.8 51.2h307.2v614.4H358.4V204.8z" data-tags="smartphone, mobile, phone, cellular"/><glyph unicode="" d="M844.8-51.2H179.2c-42.347 0-76.8 34.451-76.8 76.8V896c0 42.347 34.453 76.8 76.8 76.8h665.6c42.349 0 76.8-34.453 76.8-76.8V25.6c0-42.349-34.451-76.8-76.8-76.8zM179.2 921.6c-14.115 0-25.6-11.485-25.6-25.6V25.6c0-14.115 11.485-25.6 25.6-25.6h665.6c14.115 0 25.6 11.485 25.6 25.6V896c0 14.115-11.485 25.6-25.6 25.6H179.2zM537.6 51.2h-51.2c-14.138 0-25.6 11.461-25.6 25.6s11.462 25.6 25.6 25.6h51.2c14.139 0 25.6-11.461 25.6-25.6s-11.461-25.6-25.6-25.6zm256 102.4H230.4c-14.138 0-25.6 11.461-25.6 25.6v665.6c0 14.138 11.462 25.6 25.6 25.6h563.2c14.139 0 25.6-11.462 25.6-25.6V179.2c0-14.139-11.461-25.6-25.6-25.6zM256 204.8h512v614.4H256V204.8z" data-tags="tablet, mobile"/><glyph unicode="" d="M179.2 256h665.6c42.349 0 76.8 34.451 76.8 76.8v409.6c0 42.347-34.451 76.8-76.8 76.8H179.2c-42.347 0-76.8-34.453-76.8-76.8V332.8c0-42.349 34.453-76.8 76.8-76.8zm-25.6 486.4c0 14.115 11.485 25.6 25.6 25.6h665.6c14.115 0 25.6-11.485 25.6-25.6V332.8c0-14.115-11.485-25.6-25.6-25.6H179.2c-14.115 0-25.6 11.485-25.6 25.6v409.6zm844.8-537.6H25.6C11.462 204.8 0 193.339 0 179.2V128c0-42.349 34.453-76.8 76.8-76.8h870.4c42.349 0 76.8 34.451 76.8 76.8v51.2c0 14.139-11.461 25.6-25.6 25.6zm-51.2-102.4H76.8c-14.115 0-25.6 11.485-25.6 25.6v25.6h921.6V128c0-14.115-11.485-25.6-25.6-25.6z" data-tags="laptop, computer, pc"/><glyph unicode="" d="M588.8 256H179.2c-42.347 0-76.8 34.451-76.8 76.8v409.6c0 42.347 34.453 76.8 76.8 76.8h665.6c42.349 0 76.8-34.453 76.8-76.8v-51.2c0-14.138-11.461-25.6-25.6-25.6s-25.6 11.462-25.6 25.6v51.2c0 14.115-11.485 25.6-25.6 25.6H179.2c-14.115 0-25.6-11.485-25.6-25.6V332.8c0-14.115 11.485-25.6 25.6-25.6h409.6c14.139 0 25.6-11.461 25.6-25.6S602.939 256 588.8 256zm0-204.8h-512C34.453 51.2 0 85.653 0 128v51.2c0 14.139 11.462 25.6 25.6 25.6h563.2c14.139 0 25.6-11.461 25.6-25.6s-11.461-25.6-25.6-25.6H51.2V128c0-14.115 11.485-25.6 25.6-25.6h512c14.139 0 25.6-11.461 25.6-25.6s-11.461-25.6-25.6-25.6zm358.4 0H742.4c-42.347 0-76.8 34.453-76.8 76.8v409.6c0 42.347 34.453 76.8 76.8 76.8h204.8c42.347 0 76.8-34.453 76.8-76.8V128c0-42.347-34.453-76.8-76.8-76.8zm-204.8 512c-14.115 0-25.6-11.485-25.6-25.6V128c0-14.115 11.485-25.6 25.6-25.6h204.8c14.115 0 25.6 11.485 25.6 25.6v409.6c0 14.115-11.485 25.6-25.6 25.6H742.4zm102.4-409.6c-6.736 0-13.328 2.736-18.098 7.504-4.766 4.768-7.502 11.36-7.502 18.096s2.736 13.344 7.502 18.098c4.754 4.766 11.362 7.502 18.098 7.502s13.344-2.736 18.096-7.502c4.768-4.754 7.504-11.346 7.504-18.098 0-6.736-2.736-13.344-7.504-18.096-4.768-4.768-11.36-7.504-18.096-7.504z" data-tags="laptop-phone, devices, responsive"/><glyph unicode="" d="M486.4 358.4c-14.138 0-25.6 11.461-25.6 25.6v460.8c0 14.138 11.462 25.6 25.6 25.6s25.6-11.462 25.6-25.6V384c0-14.139-11.462-25.6-25.6-25.6zm0-358.4c-102.57 0-199 39.944-271.53 112.47C142.342 184.998 102.4 281.43 102.4 384c0 84.395 26.859 164.478 77.674 231.594 49.15 64.915 118.979 113.394 196.624 136.501 13.55 4.034 27.805-3.683 31.838-17.234s-3.683-27.805-17.234-31.838C251.347 661.369 153.6 530.183 153.6 384.001c0-183.506 149.294-332.8 332.8-332.8s332.8 149.294 332.8 332.8c0 146.187-97.75 277.374-237.71 319.024-13.552 4.034-21.267 18.288-17.234 31.838 4.032 13.552 18.29 21.267 31.837 17.235 77.646-23.106 147.48-71.582 196.632-136.499 50.816-67.115 77.675-147.202 77.675-231.598 0-102.57-39.942-199.002-112.47-271.53C685.402 39.945 588.97.001 486.4.001z" data-tags="power-switch, toggle"/><glyph unicode="" d="M25.6 0C14.093 0 4 7.677.93 18.766S2.564 41.63 12.431 47.55c86.57 51.942 122.485 127.414 135.218 162.755C53.561 282.353.001 382.051.001 486.399c0 52.704 13.23 103.755 39.323 151.736 24.902 45.794 60.406 86.806 105.526 121.899 91.504 71.17 212.802 110.365 341.55 110.365s250.046-39.195 341.552-110.366c45.118-35.093 80.624-76.104 105.526-121.899 26.091-47.979 39.322-99.03 39.322-151.734 0-52.702-13.23-103.755-39.322-151.736-24.902-45.794-60.408-86.806-105.526-121.899C736.446 141.595 615.149 102.4 486.4 102.4c-52.907 0-104.8 6.627-154.437 19.707-21.974-14.637-63.04-40.605-112.086-65.005C143.714 19.212 78.349 0 25.6 0zm460.8 819.2c-239.97 0-435.2-149.294-435.2-332.8 0-92.946 51.432-182.379 141.107-245.368a25.6 25.6 0 0 0 10.013-27.576c-5.984-22.325-26.363-83.597-80.878-142.734 66.659 23.341 138.424 63.832 191.434 100.286a25.605 25.605 0 0 0 21.544 3.52c48.558-13.888 99.691-20.928 151.981-20.928 239.97 0 435.2 149.294 435.2 332.8s-195.23 332.8-435.2 332.8z" data-tags="bubble, chat, comment"/><glyph unicode="" d="M486.4 0a25.582 25.582 0 0 0-12.432 3.222c-5.954 3.307-147.285 82.464-274.914 208.987-10.04 9.954-10.11 26.163-.157 36.203s26.163 10.11 36.203.157C336.449 148.097 449.407 77.246 486.393 55.219c37 22.054 150.123 93.045 251.304 193.352 10.042 9.952 26.248 9.882 36.205-.158 9.954-10.04 9.883-26.25-.158-36.205C646.115 85.688 504.786 6.53 498.832 3.222A25.571 25.571 0 0 0 486.4 0zM65.478 409.584c-9.61 0-18.821 5.437-23.182 14.709C14.23 483.952 0 543.607 0 601.6c0 148.218 120.582 268.8 268.8 268.8 50.173 0 103.461-18.805 150.051-52.952 27.251-19.973 50.442-44.043 67.549-69.606 17.107 25.565 40.299 49.634 67.55 69.606C600.539 851.595 653.828 870.4 704 870.4c148.218 0 268.8-120.582 268.8-268.8 0-57.992-14.23-117.645-42.294-177.301-6.018-12.794-21.267-18.29-34.061-12.267-12.794 6.018-18.286 21.267-12.269 34.061C909.01 498.879 921.6 551.2 921.6 601.6c0 119.986-97.616 217.6-217.6 217.6-87.187 0-171.856-71.725-193.314-136.096a25.6 25.6 0 0 0-48.572 0C440.658 747.475 355.989 819.2 268.8 819.2c-119.986 0-217.6-97.614-217.6-217.6 0-50.4 12.592-102.723 37.426-155.512 6.019-12.794.526-28.043-12.267-34.061a25.472 25.472 0 0 0-10.88-2.443zm472.868-204.808c-.232 0-.456.002-.678.006-10.35.218-29.122 5.598-38.552 39.194l-62.291 221.915-41.328-167.894c-8.106-32.933-26.902-39.813-37.387-40.982-10.483-1.173-30.334 1.397-45.504 31.733l-31.005 62.01c-1.475 2.952-2.85 4.834-3.893 6a20.256 20.256 0 0 1-.546-.765c-18.939-27.816-61.053-48.792-97.962-48.792H128c-14.138 0-25.6 11.461-25.6 25.6s11.462 25.6 25.6 25.6h51.2c21.554 0 47.152 13.942 55.638 26.408 11.397 16.739 28.026 25.638 45.629 24.48 19.142-1.286 36.246-14.274 46.928-35.634l22.781-45.562 47.93 194.71c8.069 32.784 24.658 39.907 37.15 40.109 12.512.24 29.302-6.379 38.43-38.888l65.763-234.286 60.323 184.738c10.504 32.168 29.779 37.707 40.334 38.144 10.542.435 30.224-3.482 43.357-34.672l37.062-88.026c6.946-16.496 29.573-31.522 47.474-31.522h76.8c14.139 0 25.6-11.461 25.6-25.6s-11.461-25.6-25.6-25.6h-76.8c-38.24 0-79.822 27.608-94.662 62.853l-30.301 71.968-65.208-199.699c-10.598-32.454-29-37.546-39.483-37.546z" data-tags="heart-pulse, health, heart-rate"/><glyph unicode="" d="M1024 716.808V793.6c0 14.138-11.461 25.6-25.6 25.6H25.6C11.462 819.2 0 807.738 0 793.6V486.4c0-14.139 11.462-25.6 25.6-25.6h76.8V153.6H76.8c-14.138 0-25.6-11.461-25.6-25.6s11.462-25.6 25.6-25.6h204.8c14.138 0 25.6 11.461 25.6 25.6s-11.462 25.6-25.6 25.6H256v153.6h512V153.6h-25.6c-14.139 0-25.6-11.461-25.6-25.6s11.461-25.6 25.6-25.6h204.8c14.139 0 25.6 11.461 25.6 25.6s-11.461 25.6-25.6 25.6h-25.6v307.2h76.8c14.139 0 25.6 11.461 25.6 25.6v230.408zm-51.2 10.595L757.397 512H573.803l256 256H972.8v-40.597zM317.803 512l256 256h183.594l-256-256H317.803zm-256 0l256 256h183.594l-256-256H61.803zm183.594 256L51.2 573.803V768h194.197zM153.6 153.6v307.2h51.2V153.6h-51.2zM256 358.4v102.4h512V358.4H256zm614.4-204.8h-51.2v307.2h51.2V153.6zM829.803 512L972.8 654.997V512H829.803z" data-tags="construction, road-sign"/><glyph unicode="" d="M435.2-51.2c-116.246 0-225.534 45.269-307.733 127.467S0 267.755 0 384c0 116.246 45.269 225.534 127.467 307.733S318.953 819.2 435.2 819.2c14.138 0 25.6-11.462 25.6-25.6v-384h384c14.139 0 25.6-11.461 25.6-25.6 0-116.245-45.269-225.534-127.467-307.733S551.445-51.2 435.2-51.2zm-25.6 818.357C209.758 753.931 51.2 587.131 51.2 384c0-211.739 172.262-384 384-384 203.131 0 369.931 158.558 383.157 358.4H435.2c-14.138 0-25.6 11.461-25.6 25.6v383.157zM947.2 460.8H537.6c-14.139 0-25.6 11.462-25.6 25.6V896c0 14.138 11.461 25.6 25.6 25.6 116.245 0 225.534-45.269 307.733-127.467S972.8 602.647 972.8 486.4c0-14.138-11.461-25.6-25.6-25.6zm-384 51.2h357.557C908.093 703.374 754.573 856.891 563.2 869.557V512z" data-tags="pie-chart, chart, statistics"/><glyph unicode="" d="M896-51.2H76.8C34.453-51.2 0-16.749 0 25.6v819.2c0 42.347 34.453 76.8 76.8 76.8H896c42.349 0 76.8-34.453 76.8-76.8V25.6c0-42.349-34.451-76.8-76.8-76.8zM76.8 870.4c-14.115 0-25.6-11.485-25.6-25.6V25.6C51.2 11.485 62.685 0 76.8 0H896c14.115 0 25.6 11.485 25.6 25.6v819.2c0 14.115-11.485 25.6-25.6 25.6H76.8zm256-768H230.4c-14.138 0-25.6 11.461-25.6 25.6v460.8c0 14.138 11.462 25.6 25.6 25.6h102.4c14.138 0 25.6-11.462 25.6-25.6V128c0-14.139-11.462-25.6-25.6-25.6zM256 153.6h51.2v409.6H256V153.6zm281.6-51.2H435.2c-14.138 0-25.6 11.461-25.6 25.6v614.4c0 14.138 11.462 25.6 25.6 25.6h102.4c14.139 0 25.6-11.462 25.6-25.6V128c0-14.139-11.461-25.6-25.6-25.6zm-76.8 51.2H512v563.2h-51.2V153.6zm281.6-51.2H640c-14.139 0-25.6 11.461-25.6 25.6v256c0 14.139 11.461 25.6 25.6 25.6h102.4c14.139 0 25.6-11.461 25.6-25.6V128c0-14.139-11.461-25.6-25.6-25.6zm-76.8 51.2h51.2v204.8h-51.2V153.6z" data-tags="chart-bars, chart, statistics"/><glyph unicode="" d="M947.2 716.8H793.53c16.107 21.408 25.67 48.006 25.67 76.8 0 70.579-57.421 128-128 128-71.181 0-130.869-56.381-160.112-89.987-17.707-20.35-32.954-42.136-44.686-63.208-11.733 21.07-26.981 42.858-44.688 63.208C412.469 865.219 352.783 921.6 281.6 921.6c-70.579 0-128-57.421-128-128 0-28.794 9.563-55.392 25.669-76.8H25.6C11.462 716.8 0 705.338 0 691.2V537.6C0 523.462 11.462 512 25.6 512h25.6V25.6c0-42.349 34.453-76.8 76.8-76.8h716.8c42.349 0 76.8 34.451 76.8 76.8V512h25.6c14.139 0 25.6 11.462 25.6 25.6v153.6c0 14.138-11.461 25.6-25.6 25.6zm-377.488 81.203c40.035 46.01 84.317 72.397 121.488 72.397 42.349 0 76.8-34.453 76.8-76.8s-34.451-76.8-76.8-76.8H518.254c8.854 22.621 26.758 52.818 51.458 81.203zM563.2 0H409.6v665.6h153.6V0zM204.8 793.6c0 42.347 34.453 76.8 76.8 76.8 37.173 0 81.453-26.387 121.488-72.397 24.699-28.386 42.603-58.582 51.458-81.203H281.6c-42.347 0-76.8 34.453-76.8 76.8zm-153.6-128h307.2V563.2H51.2v102.4zm51.2-640V512h256V0H128c-14.115 0-25.6 11.485-25.6 25.6zm768 0c0-14.115-11.485-25.6-25.6-25.6H614.4v512h256V25.6zm51.2 537.6H614.4v102.4h307.2V563.2z" data-tags="gift, birthday, prize, box"/><glyph unicode="" d="M967.68 604.16l-153.6 204.8a25.589 25.589 0 0 1-16.272 9.891l-307.2 51.2a25.628 25.628 0 0 1-8.418 0l-307.2-51.2a25.597 25.597 0 0 1-16.27-9.891L5.12 604.16c-7.339-9.786-6.731-23.395 1.451-32.486l460.8-512a25.603 25.603 0 0 1 38.058.001l460.8 512c8.182 9.091 8.79 22.699 1.451 32.485zM654.65 614.4L486.4 151.709 318.149 614.4H654.65zm-311.245 51.2L486.4 808.595 629.395 665.6h-285.99zm217.584 140.816l189.349-31.558-63.115-94.674-126.234 126.232zm-275.41-126.232l-63.117 94.674 189.349 31.558-126.232-126.232zm-46.483-22.578L86.283 627.043l91.688 122.25 61.125-91.686zm25.962-47.022L417.343 191.8 74.701 572.512l190.357 38.072zm442.686 0l190.357-38.072L555.458 191.8l152.286 418.784zm25.96 47.022l61.125 91.688 91.688-122.25-152.813 30.562z" data-tags="diamond, jewelry"/><glyph unicode="" d="M998.4 153.6h-25.6c-29.667 0-51.2-32.299-51.2-76.8 0-14.115-11.485-25.6-25.6-25.6s-25.6 11.485-25.6 25.6V128c0 14.139-11.461 25.6-25.6 25.6-7.074 0-13.475-2.869-18.109-7.504A76.354 76.354 0 0 1 793.6 153.6c-42.349 0-76.8-34.451-76.8-76.8a76.48 76.48 0 0 1 4.403-25.6H665.6c-20.762 0-52.194 14.162-65.949 29.71l-53.472 60.445 471.395 532.882c8.221 9.294 8.459 22.888 1.238 32.41L865.279 911.361a25.6 25.6 0 0 1-20.48 10.24h-665.6a25.6 25.6 0 0 1-20.48-10.24L5.18 706.643c-7.216-9.522-6.974-23.112 1.245-32.403L477.82 141.358l-53.472-60.446c-14.802-16.733-40.723-29.71-53.149-29.71h-12.8v25.6c0 42.349-34.453 76.8-76.8 76.8a76.332 76.332 0 0 1-39.442-10.931c-6.52 6.925-14.97 10.931-24.558 10.931-15.762 0-27.496-12.459-35.957-23.314-7.773-9.97-15.813-22.981-22.638-36.634l-5.405-10.81v45.157c0 14.139-11.462 25.6-25.6 25.6s-25.6-11.461-25.6-25.6v-51.2c0-14.115-11.485-25.6-25.6-25.6s-25.6 11.485-25.6 25.6v153.6c0 14.139-11.462 25.6-25.6 25.6s-25.6-11.461-25.6-25.6v-153.6c0-42.347 34.453-76.8 76.8-76.8a76.315 76.315 0 0 1 39.442 10.933C122.759 4.008 131.211.001 140.799.001c15.762 0 27.496 12.459 35.957 23.314 7.773 9.97 15.813 22.981 22.638 36.634l5.405 10.81V25.602c0-14.139 11.462-25.6 25.6-25.6s25.6 11.461 25.6 25.6v51.2c0 14.115 11.485 25.6 25.6 25.6s25.6-11.485 25.6-25.6v-51.2c0-14.139 11.462-25.6 25.6-25.6h38.4c28.467 0 67.803 20.2 91.498 46.986l49.302 55.733L561.3 46.99C584.996 20.203 629.834.003 665.599.003h128c19.654 0 37.602 7.43 51.2 19.618C858.397 7.434 876.345.003 895.999.003c42.349 0 76.8 34.451 76.8 76.8 0 12.749 3.099 21.594 5.278 25.6h20.322c14.139 0 25.6 11.461 25.6 25.6s-11.461 25.6-25.6 25.6zM58.6 692.533L192 870.4h640l133.4-177.867L512 179.994 58.6 692.533zM793.6 51.2c-14.115 0-25.6 11.485-25.6 25.6s11.485 25.6 25.6 25.6 25.6-11.485 25.6-25.6-11.485-25.6-25.6-25.6zM128 204.8c6.736 0 13.344 2.736 18.096 7.504 4.768 4.768 7.504 11.36 7.504 18.096s-2.736 13.328-7.504 18.098C141.344 253.264 134.736 256 128 256s-13.328-2.736-18.096-7.502c-4.768-4.754-7.504-11.362-7.504-18.098s2.736-13.344 7.504-18.096c4.768-4.768 11.36-7.504 18.096-7.504z" data-tags="linearicons, perxis, diamond"/><glyph unicode="" d="M409.6 947.2c0 14.138-11.462 25.6-25.6 25.6s-25.6-11.462-25.6-25.6c0-66.843 12.915-122.715 23.293-167.608 10.112-43.749 18.099-78.302 6.637-92.718-9.525-11.978-36.712-18.942-80.938-20.778-.114 8.314-.189 16.669-.19 25.109V896c0 14.138-11.462 25.6-25.6 25.6s-25.6-11.462-25.6-25.6V691.197a1855.51 1855.51 0 0 0-.182-25.069c-44.099 1.898-71.219 8.901-80.76 20.893-11.52 14.477-3.542 49.086 6.557 92.902 10.328 44.818 23.184 100.594 23.184 167.277 0 14.138-11.462 25.6-25.6 25.6s-25.6-11.462-25.6-25.6c0-60.859-12.131-113.488-21.878-155.776-13.198-57.259-23.622-102.485 3.27-136.283 19.97-25.096 56.374-37.542 119.458-40.192-5.741-142.84-26.443-265.747-43.589-367.451-22.816-135.354-37.888-224.77.605-270.298 15.934-18.845 39.531-28.4 70.134-28.4 30.608 0 54.208 9.558 70.147 28.406 38.52 45.554 23.438 135.051.611 270.526-17.126 101.638-37.808 224.466-43.584 367.184 63.213 2.57 99.656 14.973 119.629 40.09 26.837 33.747 16.395 78.923 3.173 136.117-9.79 42.358-21.976 95.074-21.976 156.077zM312.651 10.266C308.925 5.86 301.651 0 281.6 0c-20.045 0-27.312 5.854-31.035 10.258-23.154 27.384-7.426 120.69 10.786 228.728 6.581 39.038 13.68 81.157 20.28 126.326 6.589-45.082 13.672-87.115 20.238-126.09 18.224-108.144 33.962-201.544 10.782-228.957zm500.507 237.465C793.054 367.057 768.028 515.563 768 691.203V947.2a25.6 25.6 0 0 1-19.032 24.742 25.598 25.598 0 0 1-28.795-12.042C616.786 778.974 565.736 502.654 563.611 490.978a25.6 25.6 0 0 1 25.187-30.179h114.443c-8.957-79.045-20.954-150.25-31.581-213.302-22.819-135.354-37.891-224.77.605-270.298 15.936-18.845 39.531-28.4 70.134-28.4 30.608 0 54.208 9.558 70.147 28.406 38.518 45.554 23.437 135.051.611 270.525zM620.062 512c12.688 59.962 45.166 198.998 96.738 323.424V691.197c.01-63.296-3.242-123.046-8.334-179.197h-88.403zM773.451 10.266C769.725 5.86 762.451 0 742.4 0c-20.043 0-27.312 5.854-31.034 10.258-23.157 27.384-7.429 120.691 10.784 228.73 6.581 39.038 13.68 81.155 20.28 126.326 6.589-45.083 13.674-87.118 20.238-126.093 18.224-108.144 33.963-201.542 10.782-228.955z" data-tags="dinner, food, fork, knife"/><glyph unicode="" d="M512 204.8c-84.696 0-153.6 68.904-153.6 153.6S427.304 512 512 512s153.6-68.904 153.6-153.6S596.696 204.8 512 204.8zm0 256c-56.464 0-102.4-45.936-102.4-102.4S455.536 256 512 256c56.464 0 102.4 45.936 102.4 102.4S568.464 460.8 512 460.8zm302.302 406.742l-9.05 36.195c-9.682 38.726-48.534 69.062-88.453 69.062h-409.6c-39.918 0-78.771-30.336-88.454-69.062l-9.048-36.195c-32.32-9.062-56.098-38.768-56.098-73.942v-51.2c0-33.925 22.118-62.762 52.685-72.899l46.133-645.853c2.947-41.272 39.008-74.848 80.382-74.848h358.4c41.376 0 77.435 33.576 80.382 74.846l46.131 645.853c30.568 10.139 52.686 38.976 52.686 72.901v51.2c0 35.174-23.778 64.88-56.098 73.942zM307.2 921.6h409.6c16.334 0 34.821-14.434 38.781-30.28l5.23-20.92H263.189l5.23 20.92c3.96 15.846 22.446 30.28 38.781 30.28zm455.25-307.2H261.552l-3.658 51.2h508.213l-3.658-51.2zm-32.914-460.8h-435.07l-29.258 409.6h493.584l-29.256-409.6zM691.2 0H332.8c-14.834 0-28.256 12.499-29.312 27.294l-5.365 75.106h427.755l-5.365-75.106C719.455 12.499 706.033 0 691.199 0zm128 742.4c0-14.115-11.485-25.6-25.6-25.6H230.4c-14.115 0-25.6 11.485-25.6 25.6v51.2c0 14.093 11.446 25.558 25.531 25.597.03 0 .059-.003.09-.003.05 0 .099.006.149.006H793.6c14.115 0 25.6-11.485 25.6-25.6v-51.2z" data-tags="coffee-cup, drink, coffee"/><glyph unicode="" d="M1017.987 963.683a25.6 25.6 0 0 1-19.582 9.117l-26.114.008c-258.027.091-461.854.163-611.93-35.728-80.627-19.283-142.987-48.411-190.643-89.051C118.331 804.21 83.273 746.786 62.54 672.48c-13.771-49.363-20.213-138.478 6.96-227.178 10.043-32.787 25.696-63.682 46.584-92.093C53.838 255.692-.001 127.195-.001-25.601c0-14.139 11.462-25.6 25.6-25.6s25.6 11.461 25.6 25.6c0 235.789 139.654 410.651 222.901 493.899 59.741 59.739 127.301 110.166 195.378 145.824 63.373 33.195 123.933 51.477 170.522 51.477 14.139 0 25.6 11.462 25.6 25.6s-11.461 25.6-25.6 25.6c-55.506 0-122.686-19.822-194.278-57.323-72.603-38.03-144.467-91.621-207.822-154.976-26.726-26.726-58.899-62.346-90.824-105.994-12.403 19.496-21.998 40.173-28.619 61.79-25.597 83.555-16.19 164.038-6.597 198.422 73.206 262.397 351.32 263.072 855.925 262.89-60.16-321.93-172.331-530.309-333.613-619.571-149.582-82.786-298.008-37.613-354.877-14.346-12.005 4.912-24.051 10.949-35.802 17.944-12.147 7.227-27.858 3.243-35.091-8.904-7.232-12.149-3.245-27.859 8.902-35.093 13.923-8.288 28.256-15.464 42.602-21.334 31.843-13.027 83.144-29.706 146.704-35.184a485.014 485.014 0 0 1 41.672-1.814c75.189 0 145.893 18.077 210.682 53.934 82.37 45.587 153.675 119.736 211.938 220.384 68.315 118.018 119.699 274.534 152.723 465.205a25.597 25.597 0 0 1-5.637 20.853z" data-tags="leaf, nature, green, plant"/><glyph unicode="" d="M153.6 358.4c-57.421 0-102.4 67.712-102.4 154.155S96.179 666.71 153.6 666.71 256 598.998 256 512.555 211.021 358.4 153.6 358.4zm0 257.109c-24.168 0-51.2-44.03-51.2-102.955S129.432 409.6 153.6 409.6s51.2 44.03 51.2 102.955-27.032 102.954-51.2 102.954zM358.299 563.2C300.934 563.2 256 630.669 256 716.8s44.934 153.6 102.299 153.6 102.299-67.469 102.299-153.6-44.934-153.6-102.299-153.6zm0 256c-24.122 0-51.099-43.792-51.099-102.4s26.978-102.4 51.099-102.4 51.099 43.792 51.099 102.4-26.978 102.4-51.099 102.4zm256.101-256c-57.421 0-102.4 67.469-102.4 153.6s44.979 153.6 102.4 153.6 102.4-67.469 102.4-153.6-44.979-153.6-102.4-153.6zm0 256c-24.168 0-51.2-43.792-51.2-102.4s27.032-102.4 51.2-102.4 51.2 43.792 51.2 102.4-27.032 102.4-51.2 102.4zm204.8-460.8c-57.421 0-102.4 67.712-102.4 154.155S761.779 666.71 819.2 666.71s102.4-67.712 102.4-154.155S876.621 358.4 819.2 358.4zm0 257.109c-24.168 0-51.2-44.03-51.2-102.955S795.032 409.6 819.2 409.6s51.2 44.03 51.2 102.955-27.032 102.954-51.2 102.954zM665.6 51.2c-44.434 0-74.482 15.032-100.99 28.293-24.573 12.291-45.792 22.907-78.21 22.907-32.298 0-53.52-10.606-78.093-22.888C381.752 66.242 351.653 51.2 307.2 51.2c-28.446 0-55.258 15.501-73.557 42.53-32.104 47.421-32.619 119.362-1.413 197.378 56.152 140.381 148.794 220.893 254.17 220.893s198.018-80.512 254.168-220.893c31.206-78.018 30.693-149.958-1.413-197.378C720.857 66.701 694.046 51.2 665.6 51.2zM486.4 153.6c44.507 0 74.582-15.043 101.115-28.317 24.546-12.278 45.742-22.883 78.085-22.883 11.182 0 22.539 7.301 31.16 20.034 22.096 32.635 20.701 88.582-3.728 149.658C645.061 392.02 569.747 460.801 486.4 460.801c-83.346 0-158.661-68.781-206.632-188.707-24.43-61.075-25.824-117.022-3.728-149.658 8.621-12.734 19.978-20.035 31.16-20.035 32.371 0 53.618 10.618 78.218 22.912 26.533 13.259 56.605 28.288 100.982 28.288z" data-tags="paw, pet, print"/><glyph unicode="" d="M691.2 512c-70.579 0-128 57.421-128 128s57.421 128 128 128 128-57.421 128-128-57.421-128-128-128zm0 204.8c-42.347 0-76.8-34.453-76.8-76.8s34.453-76.8 76.8-76.8S768 597.653 768 640s-34.453 76.8-76.8 76.8zM25.603-51.2A25.6 25.6 0 0 0 1.54-16.851c78.781 216.648 161.613 326.499 246.195 326.499 27.883 0 53.979-11.96 77.566-35.546 37.283-37.283 38.611-74.394 33.162-98.96C341.338 97.955 232.292 22.32 34.348-49.66a25.565 25.565 0 0 0-8.746-1.541zm222.133 309.646c-25.354 0-55.19-22.214-86.282-64.237-30.578-41.33-61.274-100.205-91.525-175.477 68.352 27.478 123.302 55.379 163.806 83.205 54.648 37.542 70.808 66.562 74.742 84.294 3.944 17.779-2.395 34.682-19.382 51.667-13.826 13.826-27.354 20.547-41.36 20.547zM998.4 972.8c-132.848 0-251.256-22.534-351.939-66.981-82.997-36.638-154.075-88.075-211.258-152.882a574.277 574.277 0 0 1-29.691-36.586c-44.142-2.942-89.275-20.47-134.362-52.221-38.13-26.851-76.459-64.014-113.923-110.458C94.262 475.618 55.521 398.685 53.902 395.446c-5.605-11.211-2.25-24.814 7.904-32.166a25.512 25.512 0 0 1 14.992-4.856c6.573 0 13.109 2.52 18.064 7.434.243.24 24.714 24.299 66.469 47.926 34.41 19.474 87.461 42.336 151.613 46.384 16.219-41.541 62.662-91.181 84.954-113.47 22.291-22.291 71.931-68.734 113.472-84.955-4.046-64.152-26.91-117.202-46.382-151.611-23.629-41.757-47.686-66.227-47.89-66.432-8.878-8.878-10.006-22.885-2.666-33.07a25.594 25.594 0 0 1 32.216-7.93c3.237 1.619 80.17 40.36 158.226 103.325 46.443 37.464 83.606 75.794 110.458 113.922 31.75 45.088 49.278 90.221 52.221 134.363a574.04 574.04 0 0 1 36.586 29.693c64.806 57.181 116.243 128.259 152.883 211.258 44.443 100.682 66.979 219.091 66.979 351.939v25.6h-25.6zM159.102 470.613c48.797 70.8 123.384 158.595 207.446 186.232-33.222-58.203-50.422-111.691-56.611-145.555-59.323-3.626-110.467-20.89-150.835-40.677zM521.87 108.019c19.762 40.35 36.995 91.453 40.619 150.718 33.859 6.187 87.336 23.384 145.528 56.597-27.658-83.92-115.381-158.49-186.147-207.315zm248.392 314.376C663.782 328.443 553.468 307.2 537.6 307.2c-.102 0-10.581.23-38.867 20.136-19.728 13.883-42.682 33.618-64.63 55.566-21.95 21.95-41.683 44.902-55.566 64.632-19.906 28.285-20.136 38.763-20.136 38.866 0 15.869 21.243 126.182 115.197 232.662 112.416 127.406 284.533 197.059 498.894 202.227-5.17-214.358-74.822-386.477-202.229-498.894z" data-tags="rocket, spaceship, space, fast"/><glyph unicode="" d="M947.2 716.8H716.8v76.8c0 42.347-34.453 76.8-76.8 76.8H384c-42.347 0-76.8-34.453-76.8-76.8v-76.8H76.8C34.453 716.8 0 682.347 0 640V76.8C0 34.451 34.453 0 76.8 0h870.4c42.349 0 76.8 34.451 76.8 76.8V640c0 42.347-34.451 76.8-76.8 76.8zm-588.8 76.8c0 14.115 11.485 25.6 25.6 25.6h256c14.115 0 25.6-11.485 25.6-25.6v-76.8H358.4v76.8zm-281.6-128h870.4c14.115 0 25.6-11.485 25.6-25.6V256H870.4v25.6c0 14.139-11.461 25.6-25.6 25.6H742.4c-14.139 0-25.6-11.461-25.6-25.6V256H307.2v25.6c0 14.139-11.462 25.6-25.6 25.6H179.2c-14.138 0-25.6-11.461-25.6-25.6V256H51.2v384c0 14.115 11.485 25.6 25.6 25.6zM819.2 256v-51.2H768V256h51.2zM256 256v-51.2h-51.2V256H256zM947.2 51.2H76.8c-14.115 0-25.6 11.485-25.6 25.6v128h102.4v-25.6c0-14.139 11.462-25.6 25.6-25.6h102.4c14.138 0 25.6 11.461 25.6 25.6v25.6h409.6v-25.6c0-14.139 11.461-25.6 25.6-25.6h102.4c14.139 0 25.6 11.461 25.6 25.6v25.6h102.4v-128c0-14.115-11.485-25.6-25.6-25.6z" data-tags="briefcase, suitcase, luggage"/></font>
</defs>
</svg>
